{
copyright = "Copyright (c) 2015, Cadson Demak (info@cadsondemak.com)";
customParameters = (
{
name = vendorID;
value = CDK;
},
{
name = description;
value = "Copyright (c) 2015, Cadson Demak (info@cadsondemak.com)";
},
{
name = license;

glyphs = (
{
glyphname = A;
lastChange = "2015-10-24 06:28:57 +0000";
layers = (
{
layerId = "D9861EBB-D268-4716-B046-FAB51EB1D86F";
name = "Bold Italic";
paths = (
{
closed = 1;
nodes = (
"181 0 LINE",
"263 137 LINE",
"459 137 LINE",
"482 0 LINE",
"678 0 LINE",
"567 644 LINE",
"368 644 LINE",
"-15 0 LINE"
);
},
{
closed = 1;
nodes = (
"428 461 LINE",
"460 272 LINE",
"316 272 LINE"
);
}
);
width = 743;
}
);
leftKerningGroup = A;
note = A;
rightKerningGroup = A;
unicode = 0041;
},
{
glyphname = Aacute;
lastChange = "2015-10-24 06:28:57 +0000";
layers = (
{
layerId = "D9861EBB-D268-4716-B046-FAB51EB1D86F";
name = "Bold Italic";
paths = (
{
closed = 1;
nodes = (
"181 0 LINE",
"263 137 LINE",
"459 137 LINE",
"482 0 LINE",
"678 0 LINE",
"567 644 LINE",
"368 644 LINE",
"-15 0 LINE"
);
},
{
closed = 1;
nodes = (
"428 461 LINE",
"460 272 LINE",
"316 272 LINE"
);
},
{
closed = 1;
nodes = (
"543 688 LINE",
"683 894 LINE",
"537 894 LINE",
"405 688 LINE"
);
}
);
width = 743;
}
);
leftKerningGroup = A;
note = Aacute;
rightKerningGroup = A;
unicode = 00C1;
},
{
glyphname = Abreve;
lastChange = "2015-10-24 06:29:10 +0000";
layers = (
{
layerId = "D9861EBB-D268-4716-B046-FAB51EB1D86F";
name = "Bold Italic";
paths = (
{
closed = 1;
nodes = (
"181 0 LINE",
"263 137 LINE",
"459 137 LINE",
"482 0 LINE",
"678 0 LINE",
"567 644 LINE",
"368 644 LINE",
"-15 0 LINE"
);
},
{
closed = 1;
nodes = (
"428 461 LINE",
"460 272 LINE",
"316 272 LINE"
);
},
{
closed = 1;
nodes = (
"590 689 OFFCURVE",
"680 755 OFFCURVE",
"706 876 CURVE",
"579 876 LINE",
"569 827 OFFCURVE",
"544 792 OFFCURVE",
"493 792 CURVE SMOOTH",
"454 792 OFFCURVE",
"440 812 OFFCURVE",
"440 844 CURVE SMOOTH",
"440 853 OFFCURVE",
"442 864 OFFCURVE",
"444 876 CURVE",
"328 876 LINE",
"324 858 OFFCURVE",
"322 840 OFFCURVE",
"322 824 CURVE SMOOTH",
"322 736 OFFCURVE",
"381 689 OFFCURVE",
"476 689 CURVE SMOOTH"
);
}
);
width = 743;
}
);
leftKerningGroup = A;
note = Abreve;
rightKerningGroup = A;
unicode = 0102;
},
{
glyphname = Abreveacute;
lastChange = "2015-10-24 06:29:09 +0000";
layers = (
{
layerId = "D9861EBB-D268-4716-B046-FAB51EB1D86F";
name = "Bold Italic";
paths = (
{
closed = 1;
nodes = (
"181 0 LINE",
"263 137 LINE",
"459 137 LINE",
"482 0 LINE",
"678 0 LINE",
"567 644 LINE",
"368 644 LINE",
"-15 0 LINE"
);
},
{
closed = 1;
nodes = (
"428 461 LINE",
"460 272 LINE",
"316 272 LINE"
);
},
{
closed = 1;
nodes = (
"597 688 OFFCURVE",
"670 740 OFFCURVE",
"696 860 CURVE",
"591 860 LINE",
"581 812 OFFCURVE",
"548 780 OFFCURVE",
"498 780 CURVE SMOOTH",
"451 780 OFFCURVE",
"435 800 OFFCURVE",
"435 831 CURVE SMOOTH",
"435 840 OFFCURVE",
"436 850 OFFCURVE",
"438 860 CURVE",
"333 860 LINE",
"329 844 OFFCURVE",
"328 829 OFFCURVE",
"328 815 CURVE SMOOTH",
"328 727 OFFCURVE",
"395 688 OFFCURVE",
"478 688 CURVE SMOOTH"
);
},
{
closed = 1;
nodes = (
"567 856 LINE",
"683 1013 LINE",
"558 1013 LINE",
"459 856 LINE"
);
}
);
width = 743;
}
);
leftKerningGroup = A;
note = Abreveacute;
rightKerningGroup = A;
unicode = 1EAE;
},
{
glyphname = Abrevedotbelow;
lastChange = "2015-10-24 06:29:08 +0000";
layers = (
{
layerId = "D9861EBB-D268-4716-B046-FAB51EB1D86F";
name = "Bold Italic";
paths = (
{
closed = 1;
nodes = (
"181 0 LINE",
"263 137 LINE",
"459 137 LINE",
"482 0 LINE",
"678 0 LINE",
"567 644 LINE",
"368 644 LINE",
"-15 0 LINE"
);
},
{
closed = 1;
nodes = (
"359 -176 LINE",
"384 -56 LINE",
"254 -56 LINE",
"229 -176 LINE"
);
},
{
closed = 1;
nodes = (
"428 461 LINE",
"460 272 LINE",
"316 272 LINE"
);
},
{
closed = 1;
nodes = (
"590 688 OFFCURVE",
"680 754 OFFCURVE",
"706 875 CURVE",
"579 875 LINE",
"569 826 OFFCURVE",
"544 791 OFFCURVE",
"493 791 CURVE SMOOTH",
"454 791 OFFCURVE",
"440 811 OFFCURVE",
"440 843 CURVE SMOOTH",
"440 852 OFFCURVE",
"442 863 OFFCURVE",
"444 875 CURVE",
"328 875 LINE",
"324 857 OFFCURVE",
"322 839 OFFCURVE",
"322 823 CURVE SMOOTH",
"322 735 OFFCURVE",
"381 688 OFFCURVE",
"476 688 CURVE SMOOTH"
);
}
);
width = 743;
}
);
leftKerningGroup = A;
note = Abrevedotbelow;
rightKerningGroup = A;
unicode = 1EB6;
},
{
glyphname = Abrevegrave;
lastChange = "2015-10-24 06:29:08 +0000";
layers = (
{
layerId = "D9861EBB-D268-4716-B046-FAB51EB1D86F";
name = "Bold Italic";
paths = (
{
closed = 1;
nodes = (
"181 0 LINE",
"263 137 LINE",
"459 137 LINE",
"482 0 LINE",
"678 0 LINE",
"567 644 LINE",
"368 644 LINE",
"-15 0 LINE"
);
},
{
closed = 1;
nodes = (
"428 461 LINE",
"460 272 LINE",
"316 272 LINE"
);
},
{
closed = 1;
nodes = (
"596 688 OFFCURVE",
"669 740 OFFCURVE",
"695 860 CURVE",
"590 860 LINE",
"580 812 OFFCURVE",
"547 780 OFFCURVE",
"497 780 CURVE SMOOTH",
"450 780 OFFCURVE",
"434 800 OFFCURVE",
"434 831 CURVE SMOOTH",
"434 840 OFFCURVE",
"435 850 OFFCURVE",
"437 860 CURVE",
"332 860 LINE",
"328 844 OFFCURVE",
"327 829 OFFCURVE",
"327 815 CURVE SMOOTH",
"327 727 OFFCURVE",
"394 688 OFFCURVE",
"477 688 CURVE SMOOTH"
);
},
{
closed = 1;
nodes = (
"567 856 LINE",
"534 1013 LINE",
"409 1013 LINE",
"459 856 LINE"
);
}
);
width = 743;
}
);
leftKerningGroup = A;
note = Abrevegrave;
rightKerningGroup = A;
unicode = 1EB0;
},
{
glyphname = Abrevehookabove;
lastChange = "2015-10-24 06:29:09 +0000";
layers = (
{
layerId = "D9861EBB-D268-4716-B046-FAB51EB1D86F";
name = "Bold Italic";
paths = (
{
closed = 1;
nodes = (
"181 0 LINE",
"263 137 LINE",
"459 137 LINE",
"482 0 LINE",
"678 0 LINE",
"567 644 LINE",
"368 644 LINE",
"-15 0 LINE"
);
},
{
closed = 1;
nodes = (
"428 461 LINE",
"460 272 LINE",
"316 272 LINE"
);
},
{
closed = 1;
nodes = (
"596 688 OFFCURVE",
"669 740 OFFCURVE",
"695 860 CURVE",
"590 860 LINE",
"580 812 OFFCURVE",
"547 780 OFFCURVE",
"497 780 CURVE SMOOTH",
"450 780 OFFCURVE",
"434 800 OFFCURVE",
"434 831 CURVE SMOOTH",
"434 840 OFFCURVE",
"435 850 OFFCURVE",
"437 860 CURVE",
"332 860 LINE",
"328 844 OFFCURVE",
"327 829 OFFCURVE",
"327 815 CURVE SMOOTH",
"327 727 OFFCURVE",
"394 688 OFFCURVE",
"477 688 CURVE SMOOTH"
);
},
{
closed = 1;
nodes = (
"573 861 LINE",
"579 891 LINE",
"635 904 OFFCURVE",
"662 928 OFFCURVE",
"672 973 CURVE SMOOTH",
"673 979 OFFCURVE",
"674 984 OFFCURVE",
"674 989 CURVE SMOOTH",
"674 1030 OFFCURVE",
"639 1059 OFFCURVE",
"573 1059 CURVE SMOOTH",
"533 1059 OFFCURVE",
"494 1054 OFFCURVE",
"468 1046 CURVE",
"454 979 LINE",
"468 984 OFFCURVE",
"488 988 OFFCURVE",
"507 988 CURVE SMOOTH",
"538 988 OFFCURVE",
"553 982 OFFCURVE",
"548 960 CURVE",
"544 939 OFFCURVE",
"522 925 OFFCURVE",
"465 923 CURVE",
"452 861 LINE"
);
}
);
width = 743;
}
);
leftKerningGroup = A;
note = Abrevehookabove;
rightKerningGroup = A;
unicode = 1EB2;
},
{
glyphname = Abrevetilde;
lastChange = "2015-10-24 06:29:09 +0000";
layers = (
{
layerId = "D9861EBB-D268-4716-B046-FAB51EB1D86F";
name = "Bold Italic";
paths = (
{
closed = 1;
nodes = (
"181 0 LINE",
"263 137 LINE",
"459 137 LINE",
"482 0 LINE",
"678 0 LINE",
"567 644 LINE",
"368 644 LINE",
"-15 0 LINE"
);
},
{
closed = 1;
nodes = (
"428 461 LINE",
"460 272 LINE",
"316 272 LINE"
);
},
{
closed = 1;
nodes = (
"596 688 OFFCURVE",
"669 740 OFFCURVE",
"695 860 CURVE",
"590 860 LINE",
"580 812 OFFCURVE",
"547 780 OFFCURVE",
"497 780 CURVE SMOOTH",
"450 780 OFFCURVE",
"434 800 OFFCURVE",
"434 831 CURVE SMOOTH",
"434 840 OFFCURVE",
"435 850 OFFCURVE",
"437 860 CURVE",
"332 860 LINE",
"328 844 OFFCURVE",
"327 829 OFFCURVE",
"327 815 CURVE SMOOTH",
"327 727 OFFCURVE",
"394 688 OFFCURVE",
"477 688 CURVE SMOOTH"
);
},
{
closed = 1;
nodes = (
"651 878 OFFCURVE",
"688 893 OFFCURVE",
"703 910 CURVE",
"725 1013 LINE",
"704 990 OFFCURVE",
"670 974 OFFCURVE",
"629 974 CURVE SMOOTH",
"569 974 OFFCURVE",
"527 1015 OFFCURVE",
"462 1015 CURVE SMOOTH",
"424 1015 OFFCURVE",
"385 1001 OFFCURVE",
"363 983 CURVE",
"341 881 LINE",
"369 905 OFFCURVE",
"403 919 OFFCURVE",
"444 919 CURVE SMOOTH",
"498 919 OFFCURVE",
"549 878 OFFCURVE",
"612 878 CURVE SMOOTH"
);
}
);
width = 743;
}
);
leftKerningGroup = A;
note = Abrevetilde;
rightKerningGroup = A;
unicode = 1EB4;
},
{
glyphname = Acaron;
lastChange = "2015-10-24 06:28:57 +0000";
layers = (
{
layerId = "D9861EBB-D268-4716-B046-FAB51EB1D86F";
name = "Bold Italic";
paths = (
{
closed = 1;
nodes = (
"181 0 LINE",
"263 137 LINE",
"459 137 LINE",
"482 0 LINE",
"678 0 LINE",
"567 644 LINE",
"368 644 LINE",
"-15 0 LINE"
);
},
{
closed = 1;
nodes = (
"428 461 LINE",
"460 272 LINE",
"316 272 LINE"
);
},
{
closed = 1;
nodes = (
"534 688 LINE",
"731 888 LINE",
"590 888 LINE",
"491 779 LINE",
"442 888 LINE",
"308 888 LINE",
"420 688 LINE"
);
}
);
width = 743;
}
);
leftKerningGroup = A;
note = Acaron;
rightKerningGroup = A;
unicode = 01CD;
},
{
glyphname = Acircumflex;
lastChange = "2015-10-24 06:28:56 +0000";
layers = (
{
layerId = "D9861EBB-D268-4716-B046-FAB51EB1D86F";
name = "Bold Italic";
paths = (
{
closed = 1;
nodes = (
"181 0 LINE",
"263 137 LINE",
"459 137 LINE",
"482 0 LINE",
"678 0 LINE",
"567 644 LINE",
"368 644 LINE",
"-15 0 LINE"
);
},
{
closed = 1;
nodes = (
"428 461 LINE",
"460 272 LINE",
"316 272 LINE"
);
},
{
closed = 1;
nodes = (
"411 688 LINE",
"504 796 LINE",
"558 688 LINE",
"689 688 LINE",
"576 888 LINE",
"462 888 LINE",
"266 688 LINE"
);
}
);
width = 743;
}
);
leftKerningGroup = A;
note = Acircumflex;
rightKerningGroup = A;
unicode = 00C2;
},
{
glyphname = Acircumflexacute;
lastChange = "2015-10-24 06:28:56 +0000";
layers = (
{
layerId = "D9861EBB-D268-4716-B046-FAB51EB1D86F";
name = "Bold Italic";
paths = (
{
closed = 1;
nodes = (
"181 0 LINE",
"263 137 LINE",
"459 137 LINE",
"482 0 LINE",
"678 0 LINE",
"567 644 LINE",
"368 644 LINE",
"-15 0 LINE"
);
},
{
closed = 1;
nodes = (
"428 461 LINE",
"460 272 LINE",
"316 272 LINE"
);
},
{
closed = 1;
nodes = (
"417 688 LINE",
"496 767 LINE",
"541 688 LINE",
"687 688 LINE",
"578 840 LINE",
"440 840 LINE",
"265 688 LINE"
);
},
{
closed = 1;
nodes = (
"756 813 LINE",
"867 969 LINE",
"728 969 LINE",
"625 813 LINE"
);
}
);
width = 743;
}
);
leftKerningGroup = A;
note = Acircumflexacute;
rightKerningGroup = A;
unicode = 1EA4;
},
{
glyphname = Acircumflexdotbelow;
lastChange = "2015-10-24 06:28:56 +0000";
layers = (
{
layerId = "D9861EBB-D268-4716-B046-FAB51EB1D86F";
name = "Bold Italic";
paths = (
{
closed = 1;
nodes = (
"181 0 LINE",
"263 137 LINE",
"459 137 LINE",
"482 0 LINE",
"678 0 LINE",
"567 644 LINE",
"368 644 LINE",
"-15 0 LINE"
);
},
{
closed = 1;
nodes = (
"359 -176 LINE",
"384 -56 LINE",
"254 -56 LINE",
"229 -176 LINE"
);
},
{
closed = 1;
nodes = (
"428 461 LINE",
"460 272 LINE",
"316 272 LINE"
);
},
{
closed = 1;
nodes = (
"411 688 LINE",
"504 796 LINE",
"558 688 LINE",
"689 688 LINE",
"576 888 LINE",
"462 888 LINE",
"266 688 LINE"
);
}
);
width = 743;
}
);
leftKerningGroup = A;
note = Acircumflexdotbelow;
rightKerningGroup = A;
unicode = 1EAC;
},
{
glyphname = Acircumflexgrave;
lastChange = "2015-10-24 06:28:57 +0000";
layers = (
{
layerId = "D9861EBB-D268-4716-B046-FAB51EB1D86F";
name = "Bold Italic";
paths = (
{
closed = 1;
nodes = (
"181 0 LINE",
"263 137 LINE",
"459 137 LINE",
"482 0 LINE",
"678 0 LINE",
"567 644 LINE",
"368 644 LINE",
"-15 0 LINE"
);
},
{
closed = 1;
nodes = (
"428 461 LINE",
"460 272 LINE",
"316 272 LINE"
);
},
{
closed = 1;
nodes = (
"385 812 LINE",
"347 968 LINE",
"208 968 LINE",
"253 812 LINE"
);
},
{
closed = 1;
nodes = (
"421 687 LINE",
"500 766 LINE",
"545 687 LINE",
"690 687 LINE",
"582 839 LINE",
"444 839 LINE",
"269 687 LINE"
);
}
);
width = 743;
}
);
leftKerningGroup = A;
note = Acircumflexgrave;
rightKerningGroup = A;
unicode = 1EA6;
},
{
glyphname = Acircumflexhookabove;
lastChange = "2015-10-24 06:29:09 +0000";
layers = (
{
layerId = "D9861EBB-D268-4716-B046-FAB51EB1D86F";
name = "Bold Italic";
paths = (
{
closed = 1;
nodes = (
"181 0 LINE",
"263 137 LINE",
"459 137 LINE",
"482 0 LINE",
"678 0 LINE",
"567 644 LINE",
"368 644 LINE",
"-15 0 LINE"
);
},
{
closed = 1;
nodes = (
"428 461 LINE",
"460 272 LINE",
"316 272 LINE"
);
},
{
closed = 1;
nodes = (
"417 688 LINE",
"496 767 LINE",
"541 688 LINE",
"686 688 LINE",
"578 840 LINE",
"440 840 LINE",
"265 688 LINE"
);
},
{
closed = 1;
nodes = (
"754 790 LINE",
"761 823 LINE",
"813 831 OFFCURVE",
"842 862 OFFCURVE",
"852 907 CURVE SMOOTH",
"853 914 OFFCURVE",
"854 920 OFFCURVE",
"854 926 CURVE SMOOTH",
"854 968 OFFCURVE",
"821 993 OFFCURVE",
"750 993 CURVE SMOOTH",
"711 993 OFFCURVE",
"675 988 OFFCURVE",
"650 981 CURVE",
"634 909 LINE",
"650 913 OFFCURVE",
"668 916 OFFCURVE",
"686 916 CURVE SMOOTH",
"712 916 OFFCURVE",
"726 910 OFFCURVE",
"723 894 CURVE",
"719 877 OFFCURVE",
"704 864 OFFCURVE",
"645 863 CURVE",
"630 790 LINE"
);
}
);
width = 743;
}
);
leftKerningGroup = A;
note = Acircumflexhookabove;
rightKerningGroup = A;
unicode = 1EA8;
},
{
glyphname = Acircumflextilde;
lastChange = "2015-10-24 06:28:57 +0000";
layers = (
{
layerId = "D9861EBB-D268-4716-B046-FAB51EB1D86F";
name = "Bold Italic";
paths = (
{
closed = 1;
nodes = (
"181 0 LINE",
"263 137 LINE",
"459 137 LINE",
"482 0 LINE",
"678 0 LINE",
"567 644 LINE",
"368 644 LINE",
"-15 0 LINE"
);
},
{
closed = 1;
nodes = (
"428 461 LINE",
"460 272 LINE",
"316 272 LINE"
);
},
{
closed = 1;
nodes = (
"418 688 LINE",
"497 767 LINE",
"542 688 LINE",
"687 688 LINE",
"579 840 LINE",
"441 840 LINE",
"266 688 LINE"
);
},
{
closed = 1;
nodes = (
"652 855 OFFCURVE",
"688 870 OFFCURVE",
"705 887 CURVE",
"727 993 LINE",
"706 970 OFFCURVE",
"672 954 OFFCURVE",
"631 954 CURVE SMOOTH",
"571 954 OFFCURVE",
"528 995 OFFCURVE",
"463 995 CURVE SMOOTH",
"425 995 OFFCURVE",
"387 981 OFFCURVE",
"365 963 CURVE",
"342 858 LINE",
"370 882 OFFCURVE",
"404 896 OFFCURVE",
"445 896 CURVE SMOOTH",
"499 896 OFFCURVE",
"550 855 OFFCURVE",
"613 855 CURVE SMOOTH"
);
}
);
width = 743;
}
);
leftKerningGroup = A;
note = Acircumflextilde;
rightKerningGroup = A;
unicode = 1EAA;
},
{
glyphname = Adieresis;
lastChange = "2015-10-24 06:28:57 +0000";
layers = (
{
layerId = "D9861EBB-D268-4716-B046-FAB51EB1D86F";
name = "Bold Italic";
paths = (
{
closed = 1;
nodes = (
"181 0 LINE",
"263 137 LINE",
"459 137 LINE",
"482 0 LINE",
"678 0 LINE",
"567 644 LINE",
"368 644 LINE",
"-15 0 LINE"
);
},
{
closed = 1;
nodes = (
"428 461 LINE",
"460 272 LINE",
"316 272 LINE"
);
},
{
closed = 1;
nodes = (
"440 714 LINE",
"466 834 LINE",
"336 834 LINE",
"310 714 LINE"
);
},
{
closed = 1;
nodes = (
"656 714 LINE",
"682 834 LINE",
"551 834 LINE",
"525 714 LINE"
);
}
);
width = 743;
}
);
leftKerningGroup = A;
note = Adieresis;
rightKerningGroup = A;
unicode = 00C4;
},
{
glyphname = Adotbelow;
lastChange = "2015-10-24 06:28:56 +0000";
layers = (
{
layerId = "D9861EBB-D268-4716-B046-FAB51EB1D86F";
name = "Bold Italic";
paths = (
{
closed = 1;
nodes = (
"181 0 LINE",
"263 137 LINE",
"459 137 LINE",
"482 0 LINE",
"678 0 LINE",
"567 644 LINE",
"368 644 LINE",
"-15 0 LINE"
);
},
{
closed = 1;
nodes = (
"358 -176 LINE",
"383 -56 LINE",
"253 -56 LINE",
"228 -176 LINE"
);
},
{
closed = 1;
nodes = (
"428 461 LINE",
"460 272 LINE",
"316 272 LINE"
);
}
);
width = 743;
}
);
note = Adotbelow;
unicode = 1EA0;
},
{
glyphname = Agrave;
lastChange = "2015-10-24 06:28:57 +0000";
layers = (
{
layerId = "D9861EBB-D268-4716-B046-FAB51EB1D86F";
name = "Bold Italic";
paths = (
{
closed = 1;
nodes = (
"181 0 LINE",
"263 137 LINE",
"459 137 LINE",
"482 0 LINE",
"678 0 LINE",
"567 644 LINE",
"368 644 LINE",
"-15 0 LINE"
);
},
{
closed = 1;
nodes = (
"428 461 LINE",
"460 272 LINE",
"316 272 LINE"
);
},
{
closed = 1;
nodes = (
"545 688 LINE",
"501 894 LINE",
"354 894 LINE",
"407 688 LINE"
);
}
);
width = 743;
}
);
leftKerningGroup = A;
note = Agrave;
rightKerningGroup = A;
unicode = 00C0;
},
{
glyphname = Ahookabove;
lastChange = "2015-10-24 06:29:09 +0000";
layers = (
{
layerId = "D9861EBB-D268-4716-B046-FAB51EB1D86F";
name = "Bold Italic";
paths = (
{
closed = 1;
nodes = (
"181 0 LINE",
"263 137 LINE",
"459 137 LINE",
"482 0 LINE",
"678 0 LINE",
"567 644 LINE",
"368 644 LINE",
"-15 0 LINE"
);
},
{
closed = 1;
nodes = (
"428 461 LINE",
"460 272 LINE",
"316 272 LINE"
);
},
{
closed = 1;
nodes = (
"547 688 LINE",
"556 729 LINE",
"615 745 OFFCURVE",
"649 771 OFFCURVE",
"661 829 CURVE SMOOTH",
"663 836 OFFCURVE",
"663 843 OFFCURVE",
"663 850 CURVE SMOOTH",
"663 898 OFFCURVE",
"622 930 OFFCURVE",
"542 930 CURVE SMOOTH",
"494 930 OFFCURVE",
"454 925 OFFCURVE",
"424 916 CURVE",
"407 838 LINE",
"424 842 OFFCURVE",
"449 846 OFFCURVE",
"468 846 CURVE SMOOTH",
"507 846 OFFCURVE",
"526 836 OFFCURVE",
"521 813 CURVE SMOOTH",
"516 788 OFFCURVE",
"493 773 OFFCURVE",
"424 769 CURVE",
"406 688 LINE"
);
}
);
width = 743;
}
);
leftKerningGroup = A;
note = Ahookabove;
rightKerningGroup = A;
unicode = 1EA2;
},
{
glyphname = Amacron;
lastChange = "2015-10-24 06:28:56 +0000";
layers = (
{
layerId = "D9861EBB-D268-4716-B046-FAB51EB1D86F";
name = "Bold Italic";
paths = (
{
closed = 1;
nodes = (
"181 0 LINE",
"263 137 LINE",
"459 137 LINE",
"482 0 LINE",
"678 0 LINE",
"567 644 LINE",
"368 644 LINE",
"-15 0 LINE"
);
},
{
closed = 1;
nodes = (
"428 461 LINE",
"460 272 LINE",
"316 272 LINE"
);
},
{
closed = 1;
nodes = (
"643 702 LINE",
"667 814 LINE",
"340 814 LINE",
"316 702 LINE"
);
}
);
width = 743;
}
);
leftKerningGroup = A;
note = Amacron;
rightKerningGroup = A;
unicode = 0100;
},
{
glyphname = Aogonek;
lastChange = "2015-10-24 06:29:10 +0000";
layers = (
{
layerId = "D9861EBB-D268-4716-B046-FAB51EB1D86F";
name = "Bold Italic";
paths = (
{
closed = 1;
nodes = (
"573 -220 OFFCURVE",
"614 -212 OFFCURVE",
"636 -204 CURVE",
"654 -118 LINE",
"641 -125 OFFCURVE",
"619 -129 OFFCURVE",
"602 -129 CURVE SMOOTH",
"580 -129 OFFCURVE",
"567 -119 OFFCURVE",
"567 -101 CURVE SMOOTH",
"567 -97 OFFCURVE",
"568 -93 OFFCURVE",
"569 -89 CURVE SMOOTH",
"576 -55 OFFCURVE",
"605 -26 OFFCURVE",
"645 0 CURVE",
"678 0 LINE",
"567 644 LINE",
"368 644 LINE",
"-15 0 LINE",
"181 0 LINE",
"263 137 LINE",
"459 137 LINE",
"482 0 LINE",
"520 0 LINE",
"471 -28 OFFCURVE",
"431 -72 OFFCURVE",
"420 -123 CURVE SMOOTH",
"418 -131 OFFCURVE",
"418 -138 OFFCURVE",
"418 -144 CURVE SMOOTH",
"418 -196 OFFCURVE",
"465 -220 OFFCURVE",
"532 -220 CURVE SMOOTH"
);
},
{
closed = 1;
nodes = (
"428 461 LINE",
"460 272 LINE",
"316 272 LINE"
);
}
);
width = 707;
}
);
leftKerningGroup = A;
note = Aogonek;
rightKerningGroup = A;
unicode = 0104;
},
{
glyphname = Aring;
lastChange = "2015-10-24 06:29:08 +0000";
layers = (
{
layerId = "D9861EBB-D268-4716-B046-FAB51EB1D86F";
name = "Bold Italic";
paths = (
{
closed = 1;
nodes = (
"181 0 LINE",
"263 137 LINE",
"459 137 LINE",
"482 0 LINE",
"678 0 LINE",
"569 630 LINE",
"597 653 OFFCURVE",
"615 685 OFFCURVE",
"623 722 CURVE SMOOTH",
"625 733 OFFCURVE",
"627 744 OFFCURVE",
"627 754 CURVE SMOOTH",
"627 812 OFFCURVE",
"588 854 OFFCURVE",
"512 854 CURVE SMOOTH",
"420 854 OFFCURVE",
"362 796 OFFCURVE",
"346 722 CURVE SMOOTH",
"344 711 OFFCURVE",
"342 700 OFFCURVE",
"342 690 CURVE SMOOTH",
"342 667 OFFCURVE",
"348 648 OFFCURVE",
"360 631 CURVE",
"-15 0 LINE"
);
},
{
closed = 1;
nodes = (
"428 461 LINE",
"460 272 LINE",
"316 272 LINE"
);
},
{
closed = 1;
nodes = (
"438 668 OFFCURVE",
"426 684 OFFCURVE",
"426 706 CURVE SMOOTH",
"426 741 OFFCURVE",
"452 776 OFFCURVE",
"495 776 CURVE SMOOTH",
"529 776 OFFCURVE",
"542 759 OFFCURVE",
"542 737 CURVE SMOOTH",
"542 700 OFFCURVE",
"515 668 OFFCURVE",
"472 668 CURVE SMOOTH"
);
}
);
width = 743;
}
);
leftKerningGroup = A;
note = Aring;
rightKerningGroup = A;
unicode = 00C5;
},
{
glyphname = Aringacute;
lastChange = "2015-10-24 06:29:09 +0000";
layers = (
{
layerId = "D9861EBB-D268-4716-B046-FAB51EB1D86F";
name = "Bold Italic";
paths = (
{
closed = 1;
nodes = (
"181 0 LINE",
"263 137 LINE",
"459 137 LINE",
"482 0 LINE",
"678 0 LINE",
"567 644 LINE",
"368 644 LINE",
"-15 0 LINE"
);
},
{
closed = 1;
nodes = (
"428 461 LINE",
"460 272 LINE",
"316 272 LINE"
);
},
{
closed = 1;
nodes = (
"548 591 OFFCURVE",
"607 648 OFFCURVE",
"623 722 CURVE SMOOTH",
"625 733 OFFCURVE",
"627 744 OFFCURVE",
"627 754 CURVE SMOOTH",
"627 812 OFFCURVE",
"588 854 OFFCURVE",
"512 854 CURVE SMOOTH",
"420 854 OFFCURVE",
"362 796 OFFCURVE",
"346 722 CURVE SMOOTH",
"344 711 OFFCURVE",
"342 701 OFFCURVE",
"342 691 CURVE SMOOTH",
"342 632 OFFCURVE",
"382 591 OFFCURVE",
"456 591 CURVE SMOOTH"
);
},
{
closed = 1;
nodes = (
"438 668 OFFCURVE",
"426 684 OFFCURVE",
"426 706 CURVE SMOOTH",
"426 741 OFFCURVE",
"452 776 OFFCURVE",
"495 776 CURVE SMOOTH",
"529 776 OFFCURVE",
"542 759 OFFCURVE",
"542 737 CURVE SMOOTH",
"542 700 OFFCURVE",
"515 668 OFFCURVE",
"472 668 CURVE SMOOTH"
);
},
{
closed = 1;
nodes = (
"586 880 LINE",
"726 1065 LINE",
"580 1065 LINE",
"448 880 LINE"
);
}
);
width = 743;
}
);
leftKerningGroup = A;
note = Aringacute;
rightKerningGroup = A;
unicode = 01FA;
},
{
glyphname = Atilde;
lastChange = "2015-10-24 06:28:56 +0000";
layers = (
{
layerId = "D9861EBB-D268-4716-B046-FAB51EB1D86F";
name = "Bold Italic";
paths = (
{
closed = 1;
nodes = (
"181 0 LINE",
"263 137 LINE",
"459 137 LINE",
"482 0 LINE",
"678 0 LINE",
"567 644 LINE",
"368 644 LINE",
"-15 0 LINE"
);
},
{
closed = 1;
nodes = (
"428 461 LINE",
"460 272 LINE",
"316 272 LINE"
);
},
{
closed = 1;
nodes = (
"614 691 OFFCURVE",
"652 706 OFFCURVE",
"669 724 CURVE",
"694 843 LINE",
"674 820 OFFCURVE",
"638 803 OFFCURVE",
"596 803 CURVE SMOOTH",
"533 803 OFFCURVE",
"491 845 OFFCURVE",
"424 845 CURVE SMOOTH",
"385 845 OFFCURVE",
"345 830 OFFCURVE",
"322 812 CURVE",
"297 694 LINE",
"326 718 OFFCURVE",
"361 733 OFFCURVE",
"403 733 CURVE SMOOTH",
"458 733 OFFCURVE",
"509 691 OFFCURVE",
"575 691 CURVE SMOOTH"
);
}
);
width = 743;
}
);
leftKerningGroup = A;
note = Atilde;
rightKerningGroup = A;
unicode = 00C3;
},
{
glyphname = AE;
lastChange = "2015-10-24 06:28:56 +0000";
layers = (
{
layerId = "D9861EBB-D268-4716-B046-FAB51EB1D86F";
name = "Bold Italic";
paths = (
{
closed = 1;
nodes = (
"184 0 LINE",
"266 138 LINE",
"391 138 LINE",
"362 0 LINE",
"794 0 LINE",
"824 144 LINE",
"576 144 LINE",
"598 249 LINE",
"809 249 LINE",
"840 395 LINE",
"629 395 LINE",
"652 500 LINE",
"900 500 LINE",
"930 644 LINE",
"368 644 LINE",
"-15 0 LINE"
);
},
{
closed = 1;
nodes = (
"462 500 LINE",
"468 500 LINE",
"422 284 LINE",
"333 284 LINE"
);
}
);
width = 859;
}
);
leftKerningGroup = A;
note = AE;
rightKerningGroup = E;
unicode = 00C6;
},
{
glyphname = AEacute;
lastChange = "2015-10-24 06:28:57 +0000";
layers = (
{
layerId = "D9861EBB-D268-4716-B046-FAB51EB1D86F";
name = "Bold Italic";
paths = (
{
closed = 1;
nodes = (
"184 0 LINE",
"266 138 LINE",
"391 138 LINE",
"362 0 LINE",
"794 0 LINE",
"824 144 LINE",
"576 144 LINE",
"598 249 LINE",
"809 249 LINE",
"840 395 LINE",
"629 395 LINE",
"652 500 LINE",
"900 500 LINE",
"930 644 LINE",
"368 644 LINE",
"-15 0 LINE"
);
},
{
closed = 1;
nodes = (
"462 500 LINE",
"468 500 LINE",
"422 284 LINE",
"333 284 LINE"
);
},
{
closed = 1;
nodes = (
"661 688 LINE",
"801 894 LINE",
"655 894 LINE",
"523 688 LINE"
);
}
);
width = 859;
}
);
leftKerningGroup = A;
note = AEacute;
rightKerningGroup = E;
unicode = 01FC;
},
{
glyphname = B;
lastChange = "2015-10-24 06:29:08 +0000";
layers = (
{
layerId = "D9861EBB-D268-4716-B046-FAB51EB1D86F";
name = "Bold Italic";
paths = (
{
closed = 1;
nodes = (
"367 0 LINE SMOOTH",
"504 0 OFFCURVE",
"596 69 OFFCURVE",
"622 191 CURVE SMOOTH",
"625 206 OFFCURVE",
"627 220 OFFCURVE",
"627 232 CURVE SMOOTH",
"627 282 OFFCURVE",
"602 310 OFFCURVE",
"561 328 CURVE",
"607 354 OFFCURVE",
"644 399 OFFCURVE",
"658 466 CURVE SMOOTH",
"661 482 OFFCURVE",
"663 497 OFFCURVE",
"663 511 CURVE SMOOTH",
"663 594 OFFCURVE",
"606 644 OFFCURVE",
"495 644 CURVE SMOOTH",
"141 644 LINE",
"5 0 LINE"
);
},
{
closed = 1;
nodes = (
"241 263 LINE",
"367 263 LINE SMOOTH",
"414 263 OFFCURVE",
"434 248 OFFCURVE",
"434 218 CURVE SMOOTH",
"434 213 OFFCURVE",
"433 207 OFFCURVE",
"432 200 CURVE SMOOTH",
"421 150 OFFCURVE",
"393 131 OFFCURVE",
"343 131 CURVE SMOOTH",
"213 131 LINE"
);
},
{
closed = 1;
nodes = (
"294 512 LINE",
"411 512 LINE SMOOTH",
"456 512 OFFCURVE",
"474 497 OFFCURVE",
"474 468 CURVE SMOOTH",
"474 463 OFFCURVE",
"474 456 OFFCURVE",
"472 449 CURVE SMOOTH",
"463 409 OFFCURVE",
"438 387 OFFCURVE",
"390 387 CURVE SMOOTH",
"268 387 LINE"
);
}
);
width = 647;
}
);
note = B;
unicode = 0042;
},
{
glyphname = C;
lastChange = "2015-10-24 06:29:08 +0000";
layers = (
{
layerId = "D9861EBB-D268-4716-B046-FAB51EB1D86F";
name = "Bold Italic";
paths = (
{
closed = 1;
nodes = (
"421 -10 OFFCURVE",
"484 2 OFFCURVE",
"546 22 CURVE",
"581 187 LINE",
"516 161 OFFCURVE",
"453 150 OFFCURVE",
"389 150 CURVE SMOOTH",
"280 150 OFFCURVE",
"236 182 OFFCURVE",
"236 256 CURVE SMOOTH",
"236 274 OFFCURVE",
"239 295 OFFCURVE",
"244 319 CURVE SMOOTH",
"270 442 OFFCURVE",
"340 494 OFFCURVE",
"461 494 CURVE SMOOTH",
"527 494 OFFCURVE",
"583 482 OFFCURVE",
"636 456 CURVE",
"671 620 LINE",
"618 641 OFFCURVE",
"562 654 OFFCURVE",
"482 654 CURVE SMOOTH",
"225 654 OFFCURVE",
"98 535 OFFCURVE",
"52 319 CURVE SMOOTH",
"46 289 OFFCURVE",
"43 262 OFFCURVE",
"43 236 CURVE SMOOTH",
"43 78 OFFCURVE",
"155 -10 OFFCURVE",
"341 -10 CURVE SMOOTH"
);
}
);
width = 607;
}
);
leftKerningGroup = C;
note = C;
unicode = 0043;
},
{
glyphname = Cacute;
lastChange = "2015-10-24 06:29:08 +0000";
layers = (
{
layerId = "D9861EBB-D268-4716-B046-FAB51EB1D86F";
name = "Bold Italic";
paths = (
{
closed = 1;
nodes = (
"421 -10 OFFCURVE",
"484 2 OFFCURVE",
"546 22 CURVE",
"581 187 LINE",
"516 161 OFFCURVE",
"453 150 OFFCURVE",
"389 150 CURVE SMOOTH",
"280 150 OFFCURVE",
"236 182 OFFCURVE",
"236 256 CURVE SMOOTH",
"236 274 OFFCURVE",
"239 295 OFFCURVE",
"244 319 CURVE SMOOTH",
"270 442 OFFCURVE",
"340 494 OFFCURVE",
"461 494 CURVE SMOOTH",
"527 494 OFFCURVE",
"583 482 OFFCURVE",
"636 456 CURVE",
"671 620 LINE",
"618 641 OFFCURVE",
"562 654 OFFCURVE",
"482 654 CURVE SMOOTH",
"225 654 OFFCURVE",
"98 535 OFFCURVE",
"52 319 CURVE SMOOTH",
"46 289 OFFCURVE",
"43 262 OFFCURVE",
"43 236 CURVE SMOOTH",
"43 78 OFFCURVE",
"155 -10 OFFCURVE",
"341 -10 CURVE SMOOTH"
);
},
{
closed = 1;
nodes = (
"542 688 LINE",
"682 894 LINE",
"536 894 LINE",
"404 688 LINE"
);
}
);
width = 607;
}
);
leftKerningGroup = C;
note = Cacute;
unicode = 0106;
},
{
glyphname = Ccaron;
lastChange = "2015-10-24 06:29:09 +0000";
layers = (
{
layerId = "D9861EBB-D268-4716-B046-FAB51EB1D86F";
name = "Bold Italic";
paths = (
{
closed = 1;
nodes = (
"421 -10 OFFCURVE",
"484 2 OFFCURVE",
"546 22 CURVE",
"581 187 LINE",
"516 161 OFFCURVE",
"453 150 OFFCURVE",
"389 150 CURVE SMOOTH",
"280 150 OFFCURVE",
"236 182 OFFCURVE",
"236 256 CURVE SMOOTH",
"236 274 OFFCURVE",
"239 295 OFFCURVE",
"244 319 CURVE SMOOTH",
"270 442 OFFCURVE",
"340 494 OFFCURVE",
"461 494 CURVE SMOOTH",
"527 494 OFFCURVE",
"583 482 OFFCURVE",
"636 456 CURVE",
"671 620 LINE",
"618 641 OFFCURVE",
"562 654 OFFCURVE",
"482 654 CURVE SMOOTH",
"225 654 OFFCURVE",
"98 535 OFFCURVE",
"52 319 CURVE SMOOTH",
"46 289 OFFCURVE",
"43 262 OFFCURVE",
"43 236 CURVE SMOOTH",
"43 78 OFFCURVE",
"155 -10 OFFCURVE",
"341 -10 CURVE SMOOTH"
);
},
{
closed = 1;
nodes = (
"526 688 LINE",
"723 888 LINE",
"582 888 LINE",
"483 779 LINE",
"434 888 LINE",
"300 888 LINE",
"412 688 LINE"
);
}
);
width = 607;
}
);
leftKerningGroup = C;
note = Ccaron;
unicode = 010C;
},
{
glyphname = Ccedilla;
lastChange = "2015-10-24 06:29:09 +0000";
layers = (
{
layerId = "D9861EBB-D268-4716-B046-FAB51EB1D86F";
name = "Bold Italic";
paths = (
{
closed = 1;
nodes = (
"385 -240 OFFCURVE",
"446 -201 OFFCURVE",
"460 -135 CURVE SMOOTH",
"462 -127 OFFCURVE",
"463 -119 OFFCURVE",
"463 -111 CURVE SMOOTH",
"463 -69 OFFCURVE",
"435 -41 OFFCURVE",
"368 -41 CURVE",
"387 -8 LINE",
"446 -5 OFFCURVE",
"496 6 OFFCURVE",
"546 22 CURVE",
"581 187 LINE",
"516 161 OFFCURVE",
"453 150 OFFCURVE",
"389 150 CURVE SMOOTH",
"280 150 OFFCURVE",
"236 182 OFFCURVE",
"236 256 CURVE SMOOTH",
"236 274 OFFCURVE",
"239 295 OFFCURVE",
"244 319 CURVE SMOOTH",
"270 442 OFFCURVE",
"340 494 OFFCURVE",
"461 494 CURVE SMOOTH",
"527 494 OFFCURVE",
"583 482 OFFCURVE",
"636 456 CURVE",
"671 620 LINE",
"618 641 OFFCURVE",
"562 654 OFFCURVE",
"482 654 CURVE SMOOTH",
"225 654 OFFCURVE",
"98 535 OFFCURVE",
"52 319 CURVE SMOOTH",
"46 289 OFFCURVE",
"43 261 OFFCURVE",
"43 235 CURVE SMOOTH",
"43 94 OFFCURVE",
"132 9 OFFCURVE",
"285 -7 CURVE",
"239 -101 LINE",
"302 -101 LINE SMOOTH",
"330 -101 OFFCURVE",
"350 -104 OFFCURVE",
"350 -124 CURVE SMOOTH",
"350 -156 OFFCURVE",
"326 -166 OFFCURVE",
"270 -166 CURVE SMOOTH",
"250 -166 OFFCURVE",
"230 -163 OFFCURVE",
"213 -158 CURVE",
"197 -232 LINE",
"211 -236 OFFCURVE",
"253 -240 OFFCURVE",
"277 -240 CURVE SMOOTH"
);
}
);
width = 607;
}
);
leftKerningGroup = C;
note = Ccedilla;
unicode = 00C7;
},
{
glyphname = Ccircumflex;
lastChange = "2015-10-24 06:29:10 +0000";
layers = (
{
layerId = "D9861EBB-D268-4716-B046-FAB51EB1D86F";
name = "Bold Italic";
paths = (
{
closed = 1;
nodes = (
"421 -10 OFFCURVE",
"484 2 OFFCURVE",
"546 22 CURVE",
"581 187 LINE",
"516 161 OFFCURVE",
"453 150 OFFCURVE",
"389 150 CURVE SMOOTH",
"280 150 OFFCURVE",
"236 182 OFFCURVE",
"236 256 CURVE SMOOTH",
"236 274 OFFCURVE",
"239 295 OFFCURVE",
"244 319 CURVE SMOOTH",
"270 442 OFFCURVE",
"340 494 OFFCURVE",
"461 494 CURVE SMOOTH",
"527 494 OFFCURVE",
"583 482 OFFCURVE",
"636 456 CURVE",
"671 620 LINE",
"618 641 OFFCURVE",
"562 654 OFFCURVE",
"482 654 CURVE SMOOTH",
"225 654 OFFCURVE",
"98 535 OFFCURVE",
"52 319 CURVE SMOOTH",
"46 289 OFFCURVE",
"43 262 OFFCURVE",
"43 236 CURVE SMOOTH",
"43 78 OFFCURVE",
"155 -10 OFFCURVE",
"341 -10 CURVE SMOOTH"
);
},
{
closed = 1;
nodes = (
"388 688 LINE",
"481 796 LINE",
"535 688 LINE",
"666 688 LINE",
"553 888 LINE",
"439 888 LINE",
"243 688 LINE"
);
}
);
width = 607;
}
);
leftKerningGroup = C;
note = Ccircumflex;
unicode = 0108;
},
{
glyphname = Cdotaccent;
lastChange = "2015-10-24 06:29:08 +0000";
layers = (
{
layerId = "D9861EBB-D268-4716-B046-FAB51EB1D86F";
name = "Bold Italic";
paths = (
{
closed = 1;
nodes = (
"421 -10 OFFCURVE",
"484 2 OFFCURVE",
"546 22 CURVE",
"581 187 LINE",
"516 161 OFFCURVE",
"453 150 OFFCURVE",
"389 150 CURVE SMOOTH",
"280 150 OFFCURVE",
"236 182 OFFCURVE",
"236 256 CURVE SMOOTH",
"236 274 OFFCURVE",
"239 295 OFFCURVE",
"244 319 CURVE SMOOTH",
"270 442 OFFCURVE",
"340 494 OFFCURVE",
"461 494 CURVE SMOOTH",
"527 494 OFFCURVE",
"583 482 OFFCURVE",
"636 456 CURVE",
"671 620 LINE",
"618 641 OFFCURVE",
"562 654 OFFCURVE",
"482 654 CURVE SMOOTH",
"225 654 OFFCURVE",
"98 535 OFFCURVE",
"52 319 CURVE SMOOTH",
"46 289 OFFCURVE",
"43 262 OFFCURVE",
"43 236 CURVE SMOOTH",
"43 78 OFFCURVE",
"155 -10 OFFCURVE",
"341 -10 CURVE SMOOTH"
);
},
{
closed = 1;
nodes = (
"537 715 LINE",
"563 835 LINE",
"433 835 LINE",
"407 715 LINE"
);
}
);
width = 607;
}
);
leftKerningGroup = C;
note = Cdotaccent;
unicode = 010A;
},
{
glyphname = D;
lastChange = "2015-10-24 06:29:09 +0000";
layers = (
{
layerId = "D9861EBB-D268-4716-B046-FAB51EB1D86F";
name = "Bold Italic";
paths = (
{
closed = 1;
nodes = (
"300 0 LINE SMOOTH",
"520 0 OFFCURVE",
"628 96 OFFCURVE",
"673 318 CURVE SMOOTH",
"680 351 OFFCURVE",
"683 382 OFFCURVE",
"683 410 CURVE SMOOTH",
"683 570 OFFCURVE",
"579 644 OFFCURVE",
"429 644 CURVE SMOOTH",
"141 644 LINE",
"5 0 LINE"
);
},
{
closed = 1;
nodes = (
"299 500 LINE",
"375 500 LINE SMOOTH",
"456 500 OFFCURVE",
"492 478 OFFCURVE",
"492 406 CURVE SMOOTH",
"492 382 OFFCURVE",
"488 353 OFFCURVE",
"481 318 CURVE SMOOTH",
"451 175 OFFCURVE",
"392 144 OFFCURVE",
"299 144 CURVE SMOOTH",
"223 144 LINE"
);
}
);
width = 671;
}
);
note = D;
rightKerningGroup = D;
unicode = 0044;
},
{
glyphname = Eth;
lastChange = "2015-10-24 06:29:08 +0000";
layers = (
{
layerId = "D9861EBB-D268-4716-B046-FAB51EB1D86F";
name = "Bold Italic";
paths = (
{
closed = 1;
nodes = (
"319 0 LINE SMOOTH",
"539 0 OFFCURVE",
"647 96 OFFCURVE",
"692 318 CURVE SMOOTH",
"699 351 OFFCURVE",
"702 382 OFFCURVE",
"702 410 CURVE SMOOTH",
"702 570 OFFCURVE",
"598 644 OFFCURVE",
"448 644 CURVE SMOOTH",
"160 644 LINE",
"24 0 LINE"
);
},
{
closed = 1;
nodes = (
"387 251 LINE",
"414 380 LINE",
"45 380 LINE",
"18 251 LINE"
);
},
{
closed = 1;
nodes = (
"318 500 LINE",
"394 500 LINE SMOOTH",
"475 500 OFFCURVE",
"511 478 OFFCURVE",
"511 406 CURVE SMOOTH",
"511 382 OFFCURVE",
"507 353 OFFCURVE",
"500 318 CURVE SMOOTH",
"470 175 OFFCURVE",
"411 144 OFFCURVE",
"318 144 CURVE SMOOTH",
"242 144 LINE"
);
}
);
width = 710;
}
);
note = Eth;
rightKerningGroup = D;
unicode = 00D0;
},
{
glyphname = Dcaron;
lastChange = "2015-10-24 06:29:08 +0000";
layers = (
{
layerId = "D9861EBB-D268-4716-B046-FAB51EB1D86F";
name = "Bold Italic";
paths = (
{
closed = 1;
nodes = (
"300 0 LINE SMOOTH",
"520 0 OFFCURVE",
"628 96 OFFCURVE",
"673 318 CURVE SMOOTH",
"680 351 OFFCURVE",
"683 382 OFFCURVE",
"683 410 CURVE SMOOTH",
"683 570 OFFCURVE",
"579 644 OFFCURVE",
"429 644 CURVE SMOOTH",
"141 644 LINE",
"5 0 LINE"
);
},
{
closed = 1;
nodes = (
"299 500 LINE",
"375 500 LINE SMOOTH",
"456 500 OFFCURVE",
"492 478 OFFCURVE",
"492 406 CURVE SMOOTH",
"492 382 OFFCURVE",
"488 353 OFFCURVE",
"481 318 CURVE SMOOTH",
"451 175 OFFCURVE",
"392 144 OFFCURVE",
"299 144 CURVE SMOOTH",
"223 144 LINE"
);
},
{
closed = 1;
nodes = (
"459 688 LINE",
"656 888 LINE",
"515 888 LINE",
"416 779 LINE",
"367 888 LINE",
"233 888 LINE",
"345 688 LINE"
);
}
);
width = 671;
}
);
note = Dcaron;
rightKerningGroup = D;
unicode = 010E;
},
{
glyphname = Dcroat;
lastChange = "2015-10-24 06:29:09 +0000";
layers = (
{
layerId = "D9861EBB-D268-4716-B046-FAB51EB1D86F";
name = "Bold Italic";
paths = (
{
closed = 1;
nodes = (
"319 0 LINE SMOOTH",
"539 0 OFFCURVE",
"647 96 OFFCURVE",
"692 318 CURVE SMOOTH",
"699 351 OFFCURVE",
"702 382 OFFCURVE",
"702 410 CURVE SMOOTH",
"702 570 OFFCURVE",
"598 644 OFFCURVE",
"448 644 CURVE SMOOTH",
"160 644 LINE",
"24 0 LINE"
);
},
{
closed = 1;
nodes = (
"387 251 LINE",
"414 380 LINE",
"45 380 LINE",
"18 251 LINE"
);
},
{
closed = 1;
nodes = (
"318 500 LINE",
"394 500 LINE SMOOTH",
"475 500 OFFCURVE",
"511 478 OFFCURVE",
"511 406 CURVE SMOOTH",
"511 382 OFFCURVE",
"507 353 OFFCURVE",
"500 318 CURVE SMOOTH",
"470 175 OFFCURVE",
"411 144 OFFCURVE",
"318 144 CURVE SMOOTH",
"242 144 LINE"
);
}
);
width = 710;
}
);
note = Dcroat;
rightKerningGroup = D;
unicode = 0110;
},
{
glyphname = Ddotbelow;
lastChange = "2015-10-24 06:29:09 +0000";
layers = (
{
layerId = "D9861EBB-D268-4716-B046-FAB51EB1D86F";
name = "Bold Italic";
paths = (
{
closed = 1;
nodes = (
"300 0 LINE SMOOTH",
"520 0 OFFCURVE",
"628 96 OFFCURVE",
"673 318 CURVE SMOOTH",
"680 351 OFFCURVE",
"683 382 OFFCURVE",
"683 410 CURVE SMOOTH",
"683 570 OFFCURVE",
"579 644 OFFCURVE",
"429 644 CURVE SMOOTH",
"141 644 LINE",
"5 0 LINE"
);
},
{
closed = 1;
nodes = (
"264 -197 LINE",
"289 -77 LINE",
"159 -77 LINE",
"134 -197 LINE"
);
},
{
closed = 1;
nodes = (
"299 500 LINE",
"375 500 LINE SMOOTH",
"456 500 OFFCURVE",
"492 478 OFFCURVE",
"492 406 CURVE SMOOTH",
"492 382 OFFCURVE",
"488 353 OFFCURVE",
"481 318 CURVE SMOOTH",
"451 175 OFFCURVE",
"392 144 OFFCURVE",
"299 144 CURVE SMOOTH",
"223 144 LINE"
);
}
);
width = 671;
}
);
note = Ddotbelow;
rightKerningGroup = D;
unicode = 1E0C;
},
{
glyphname = Dlinebelow;
lastChange = "2015-10-24 06:29:08 +0000";
layers = (
{
layerId = "D9861EBB-D268-4716-B046-FAB51EB1D86F";
name = "Bold Italic";
paths = (
{
closed = 1;
nodes = (
"300 0 LINE SMOOTH",
"520 0 OFFCURVE",
"628 96 OFFCURVE",
"673 318 CURVE SMOOTH",
"680 351 OFFCURVE",
"683 382 OFFCURVE",
"683 410 CURVE SMOOTH",
"683 570 OFFCURVE",
"579 644 OFFCURVE",
"429 644 CURVE SMOOTH",
"141 644 LINE",
"5 0 LINE"
);
},
{
closed = 1;
nodes = (
"412 -176 LINE",
"436 -64 LINE",
"109 -64 LINE",
"85 -176 LINE"
);
},
{
closed = 1;
nodes = (
"299 500 LINE",
"375 500 LINE SMOOTH",
"456 500 OFFCURVE",
"492 478 OFFCURVE",
"492 406 CURVE SMOOTH",
"492 382 OFFCURVE",
"488 353 OFFCURVE",
"481 318 CURVE SMOOTH",
"451 175 OFFCURVE",
"392 144 OFFCURVE",
"299 144 CURVE SMOOTH",
"223 144 LINE"
);
}
);
width = 671;
}
);
note = Dlinebelow;
rightKerningGroup = D;
unicode = 1E0E;
},
{
glyphname = E;
lastChange = "2015-10-24 06:28:51 +0000";
layers = (
{
layerId = "D9861EBB-D268-4716-B046-FAB51EB1D86F";
name = "Bold Italic";
paths = (
{
closed = 1;
nodes = (
"493 0 LINE",
"523 144 LINE",
"223 144 LINE",
"245 249 LINE",
"508 249 LINE",
"539 395 LINE",
"276 395 LINE",
"299 500 LINE",
"599 500 LINE",
"629 644 LINE",
"141 644 LINE",
"5 0 LINE"
);
}
);
width = 548;
}
);
note = E;
unicode = 0045;
},
{
glyphname = Eacute;
lastChange = "2015-10-24 06:28:55 +0000";
layers = (
{
layerId = "D9861EBB-D268-4716-B046-FAB51EB1D86F";
name = "Bold Italic";
paths = (
{
closed = 1;
nodes = (
"493 0 LINE",
"523 144 LINE",
"223 144 LINE",
"245 249 LINE",
"508 249 LINE",
"539 395 LINE",
"276 395 LINE",
"299 500 LINE",
"599 500 LINE",
"629 644 LINE",
"141 644 LINE",
"5 0 LINE"
);
},
{
closed = 1;
nodes = (
"445 688 LINE",
"585 894 LINE",
"439 894 LINE",
"307 688 LINE"
);
}
);
width = 548;
}
);
note = Eacute;
unicode = 00C9;
},
{
glyphname = Ebreve;
lastChange = "2015-10-24 06:29:10 +0000";
layers = (
{
layerId = "D9861EBB-D268-4716-B046-FAB51EB1D86F";
name = "Bold Italic";
paths = (
{
closed = 1;
nodes = (
"493 0 LINE",
"523 144 LINE",
"223 144 LINE",
"245 249 LINE",
"508 249 LINE",
"539 395 LINE",
"276 395 LINE",
"299 500 LINE",
"599 500 LINE",
"629 644 LINE",
"141 644 LINE",
"5 0 LINE"
);
},
{
closed = 1;
nodes = (
"511 689 OFFCURVE",
"601 755 OFFCURVE",
"627 876 CURVE",
"500 876 LINE",
"490 827 OFFCURVE",
"465 792 OFFCURVE",
"414 792 CURVE SMOOTH",
"375 792 OFFCURVE",
"361 812 OFFCURVE",
"361 844 CURVE SMOOTH",
"361 853 OFFCURVE",
"363 864 OFFCURVE",
"365 876 CURVE",
"249 876 LINE",
"245 858 OFFCURVE",
"243 840 OFFCURVE",
"243 824 CURVE SMOOTH",
"243 736 OFFCURVE",
"302 689 OFFCURVE",
"397 689 CURVE SMOOTH"
);
}
);
width = 558;
}
);
note = Ebreve;
unicode = 0114;
},
{
glyphname = Ecaron;
lastChange = "2015-10-24 06:28:57 +0000";
layers = (
{
layerId = "D9861EBB-D268-4716-B046-FAB51EB1D86F";
name = "Bold Italic";
paths = (
{
closed = 1;
nodes = (
"493 0 LINE",
"523 144 LINE",
"223 144 LINE",
"245 249 LINE",
"508 249 LINE",
"539 395 LINE",
"276 395 LINE",
"299 500 LINE",
"599 500 LINE",
"629 644 LINE",
"141 644 LINE",
"5 0 LINE"
);
},
{
closed = 1;
nodes = (
"459 688 LINE",
"656 888 LINE",
"515 888 LINE",
"416 779 LINE",
"367 888 LINE",
"233 888 LINE",
"345 688 LINE"
);
}
);
width = 558;
}
);
note = Ecaron;
unicode = 011A;
},
{
glyphname = Ecircumflex;
lastChange = "2015-10-24 06:28:57 +0000";
layers = (
{
layerId = "D9861EBB-D268-4716-B046-FAB51EB1D86F";
name = "Bold Italic";
paths = (
{
closed = 1;
nodes = (
"495 0 LINE",
"525 144 LINE",
"225 144 LINE",
"247 249 LINE",
"510 249 LINE",
"541 395 LINE",
"278 395 LINE",
"301 500 LINE",
"601 500 LINE",
"631 644 LINE",
"143 644 LINE",
"7 0 LINE"
);
},
{
closed = 1;
nodes = (
"332 688 LINE",
"425 796 LINE",
"479 688 LINE",
"610 688 LINE",
"497 888 LINE",
"383 888 LINE",
"187 688 LINE"
);
}
);
width = 560;
}
);
note = Ecircumflex;
unicode = 00CA;
},
{
glyphname = Ecircumflexacute;
lastChange = "2015-10-24 06:28:57 +0000";
layers = (
{
layerId = "D9861EBB-D268-4716-B046-FAB51EB1D86F";
name = "Bold Italic";
paths = (
{
closed = 1;
nodes = (
"493 0 LINE",
"523 144 LINE",
"223 144 LINE",
"245 249 LINE",
"508 249 LINE",
"539 395 LINE",
"276 395 LINE",
"299 500 LINE",
"599 500 LINE",
"629 644 LINE",
"141 644 LINE",
"5 0 LINE"
);
},
{
closed = 1;
nodes = (
"316 688 LINE",
"395 767 LINE",
"440 688 LINE",
"586 688 LINE",
"477 840 LINE",
"339 840 LINE",
"164 688 LINE"
);
},
{
closed = 1;
nodes = (
"655 813 LINE",
"766 969 LINE",
"627 969 LINE",
"524 813 LINE"
);
}
);
width = 548;
}
);
note = Ecircumflexacute;
unicode = 1EBE;
},
{
glyphname = Ecircumflexdotbelow;
lastChange = "2015-10-24 06:28:56 +0000";
layers = (
{
layerId = "D9861EBB-D268-4716-B046-FAB51EB1D86F";
name = "Bold Italic";
paths = (
{
closed = 1;
nodes = (
"499 0 LINE",
"529 144 LINE",
"229 144 LINE",
"251 249 LINE",
"514 249 LINE",
"545 395 LINE",
"282 395 LINE",
"305 500 LINE",
"605 500 LINE",
"635 644 LINE",
"147 644 LINE",
"11 0 LINE"
);
},
{
closed = 1;
nodes = (
"275 -176 LINE",
"300 -56 LINE",
"170 -56 LINE",
"145 -176 LINE"
);
},
{
closed = 1;
nodes = (
"327 688 LINE",
"420 796 LINE",
"474 688 LINE",
"605 688 LINE",
"492 888 LINE",
"378 888 LINE",
"182 688 LINE"
);
}
);
width = 564;
}
);
note = Ecircumflexdotbelow;
unicode = 1EC6;
},
{
glyphname = Ecircumflexgrave;
lastChange = "2015-10-24 06:28:56 +0000";
layers = (
{
layerId = "D9861EBB-D268-4716-B046-FAB51EB1D86F";
name = "Bold Italic";
paths = (
{
closed = 1;
nodes = (
"493 0 LINE",
"523 144 LINE",
"223 144 LINE",
"245 249 LINE",
"508 249 LINE",
"539 395 LINE",
"276 395 LINE",
"299 500 LINE",
"599 500 LINE",
"629 644 LINE",
"141 644 LINE",
"5 0 LINE"
);
},
{
closed = 1;
nodes = (
"294 813 LINE",
"256 969 LINE",
"117 969 LINE",
"162 813 LINE"
);
},
{
closed = 1;
nodes = (
"330 688 LINE",
"409 767 LINE",
"454 688 LINE",
"599 688 LINE",
"491 840 LINE",
"353 840 LINE",
"178 688 LINE"
);
}
);
width = 548;
}
);
note = Ecircumflexgrave;
unicode = 1EC0;
},
{
glyphname = Ecircumflexhookabove;
lastChange = "2015-10-24 06:29:09 +0000";
layers = (
{
layerId = "D9861EBB-D268-4716-B046-FAB51EB1D86F";
name = "Bold Italic";
paths = (
{
closed = 1;
nodes = (
"493 0 LINE",
"523 144 LINE",
"223 144 LINE",
"245 249 LINE",
"508 249 LINE",
"539 395 LINE",
"276 395 LINE",
"299 500 LINE",
"599 500 LINE",
"629 644 LINE",
"141 644 LINE",
"5 0 LINE"
);
},
{
closed = 1;
nodes = (
"323 688 LINE",
"402 767 LINE",
"447 688 LINE",
"592 688 LINE",
"484 840 LINE",
"346 840 LINE",
"171 688 LINE"
);
},
{
closed = 1;
nodes = (
"660 790 LINE",
"667 823 LINE",
"719 831 OFFCURVE",
"748 862 OFFCURVE",
"758 907 CURVE SMOOTH",
"759 914 OFFCURVE",
"760 920 OFFCURVE",
"760 926 CURVE SMOOTH",
"760 968 OFFCURVE",
"727 993 OFFCURVE",
"656 993 CURVE SMOOTH",
"617 993 OFFCURVE",
"581 988 OFFCURVE",
"556 981 CURVE",
"540 909 LINE",
"556 913 OFFCURVE",
"574 916 OFFCURVE",
"592 916 CURVE SMOOTH",
"618 916 OFFCURVE",
"632 910 OFFCURVE",
"629 894 CURVE",
"625 877 OFFCURVE",
"610 864 OFFCURVE",
"551 863 CURVE",
"536 790 LINE"
);
}
);
width = 548;
}
);
note = Ecircumflexhookabove;
unicode = 1EC2;
},
{
glyphname = Ecircumflextilde;
lastChange = "2015-10-24 06:28:57 +0000";
layers = (
{
layerId = "D9861EBB-D268-4716-B046-FAB51EB1D86F";
name = "Bold Italic";
paths = (
{
closed = 1;
nodes = (
"493 0 LINE",
"523 144 LINE",
"223 144 LINE",
"245 249 LINE",
"508 249 LINE",
"539 395 LINE",
"276 395 LINE",
"299 500 LINE",
"599 500 LINE",
"629 644 LINE",
"141 644 LINE",
"5 0 LINE"
);
},
{
closed = 1;
nodes = (
"333 688 LINE",
"412 767 LINE",
"457 688 LINE",
"602 688 LINE",
"494 840 LINE",
"356 840 LINE",
"181 688 LINE"
);
},
{
closed = 1;
nodes = (
"567 855 OFFCURVE",
"603 870 OFFCURVE",
"620 887 CURVE",
"642 993 LINE",
"621 970 OFFCURVE",
"587 954 OFFCURVE",
"546 954 CURVE SMOOTH",
"486 954 OFFCURVE",
"443 995 OFFCURVE",
"378 995 CURVE SMOOTH",
"340 995 OFFCURVE",
"302 981 OFFCURVE",
"280 963 CURVE",
"257 858 LINE",
"285 882 OFFCURVE",
"319 896 OFFCURVE",
"360 896 CURVE SMOOTH",
"414 896 OFFCURVE",
"465 855 OFFCURVE",
"528 855 CURVE SMOOTH"
);
}
);
width = 558;
}
);
note = Ecircumflextilde;
unicode = 1EC4;
},
{
glyphname = Edieresis;
lastChange = "2015-10-24 06:28:57 +0000";
layers = (
{
layerId = "D9861EBB-D268-4716-B046-FAB51EB1D86F";
name = "Bold Italic";
paths = (
{
closed = 1;
nodes = (
"493 0 LINE",
"523 144 LINE",
"223 144 LINE",
"245 249 LINE",
"508 249 LINE",
"539 395 LINE",
"276 395 LINE",
"299 500 LINE",
"599 500 LINE",
"629 644 LINE",
"141 644 LINE",
"5 0 LINE"
);
},
{
closed = 1;
nodes = (
"362 715 LINE",
"388 835 LINE",
"258 835 LINE",
"232 715 LINE"
);
},
{
closed = 1;
nodes = (
"578 715 LINE",
"604 835 LINE",
"473 835 LINE",
"447 715 LINE"
);
}
);
width = 558;
}
);
note = Edieresis;
unicode = 00CB;
},
{
glyphname = Edotaccent;
lastChange = "2015-10-24 06:28:56 +0000";
layers = (
{
layerId = "D9861EBB-D268-4716-B046-FAB51EB1D86F";
name = "Bold Italic";
paths = (
{
closed = 1;
nodes = (
"493 0 LINE",
"523 144 LINE",
"223 144 LINE",
"245 249 LINE",
"508 249 LINE",
"539 395 LINE",
"276 395 LINE",
"299 500 LINE",
"599 500 LINE",
"629 644 LINE",
"141 644 LINE",
"5 0 LINE"
);
},
{
closed = 1;
nodes = (
"463 715 LINE",
"489 835 LINE",
"359 835 LINE",
"333 715 LINE"
);
}
);
width = 558;
}
);
note = Edotaccent;
unicode = 0116;
},
{
glyphname = Edotbelow;
lastChange = "2015-10-24 06:28:56 +0000";
layers = (
{
layerId = "D9861EBB-D268-4716-B046-FAB51EB1D86F";
name = "Bold Italic";
paths = (
{
closed = 1;
nodes = (
"493 0 LINE",
"523 144 LINE",
"223 144 LINE",
"245 249 LINE",
"508 249 LINE",
"539 395 LINE",
"276 395 LINE",
"299 500 LINE",
"599 500 LINE",
"629 644 LINE",
"141 644 LINE",
"5 0 LINE"
);
},
{
closed = 1;
nodes = (
"267 -176 LINE",
"292 -56 LINE",
"162 -56 LINE",
"137 -176 LINE"
);
}
);
width = 558;
}
);
note = Edotbelow;
unicode = 1EB8;
},
{
glyphname = Egrave;
lastChange = "2015-10-24 06:28:55 +0000";
layers = (
{
layerId = "D9861EBB-D268-4716-B046-FAB51EB1D86F";
name = "Bold Italic";
paths = (
{
closed = 1;
nodes = (
"493 0 LINE",
"523 144 LINE",
"223 144 LINE",
"245 249 LINE",
"508 249 LINE",
"539 395 LINE",
"276 395 LINE",
"299 500 LINE",
"599 500 LINE",
"629 644 LINE",
"141 644 LINE",
"5 0 LINE"
);
},
{
closed = 1;
nodes = (
"482 688 LINE",
"438 894 LINE",
"291 894 LINE",
"344 688 LINE"
);
}
);
width = 558;
}
);
note = Egrave;
unicode = 00C8;
},
{
glyphname = Ehookabove;
lastChange = "2015-10-24 06:29:08 +0000";
layers = (
{
layerId = "D9861EBB-D268-4716-B046-FAB51EB1D86F";
name = "Bold Italic";
paths = (
{
closed = 1;
nodes = (
"493 0 LINE",
"523 144 LINE",
"223 144 LINE",
"245 249 LINE",
"508 249 LINE",
"539 395 LINE",
"276 395 LINE",
"299 500 LINE",
"599 500 LINE",
"629 644 LINE",
"141 644 LINE",
"5 0 LINE"
);
},
{
closed = 1;
nodes = (
"460 687 LINE",
"469 728 LINE",
"528 744 OFFCURVE",
"562 770 OFFCURVE",
"574 828 CURVE SMOOTH",
"576 835 OFFCURVE",
"576 842 OFFCURVE",
"576 849 CURVE SMOOTH",
"576 897 OFFCURVE",
"535 929 OFFCURVE",
"455 929 CURVE SMOOTH",
"407 929 OFFCURVE",
"367 924 OFFCURVE",
"337 915 CURVE",
"320 837 LINE",
"337 841 OFFCURVE",
"362 845 OFFCURVE",
"381 845 CURVE SMOOTH",
"420 845 OFFCURVE",
"439 835 OFFCURVE",
"434 812 CURVE SMOOTH",
"429 787 OFFCURVE",
"406 772 OFFCURVE",
"337 768 CURVE",
"319 687 LINE"
);
}
);
width = 558;
}
);
note = Ehookabove;
unicode = 1EBA;
},
{
glyphname = Emacron;
lastChange = "2015-10-24 06:28:57 +0000";
layers = (
{
layerId = "D9861EBB-D268-4716-B046-FAB51EB1D86F";
name = "Bold Italic";
paths = (
{
closed = 1;
nodes = (
"493 0 LINE",
"523 144 LINE",
"223 144 LINE",
"245 249 LINE",
"508 249 LINE",
"539 395 LINE",
"276 395 LINE",
"299 500 LINE",
"599 500 LINE",
"629 644 LINE",
"141 644 LINE",
"5 0 LINE"
);
},
{
closed = 1;
nodes = (
"556 724 LINE",
"580 836 LINE",
"253 836 LINE",
"229 724 LINE"
);
}
);
width = 558;
}
);
note = Emacron;
unicode = 0112;
},
{
glyphname = Eogonek;
lastChange = "2015-10-24 06:29:09 +0000";
layers = (
{
layerId = "D9861EBB-D268-4716-B046-FAB51EB1D86F";
name = "Bold Italic";
paths = (
{
closed = 1;
nodes = (
"386 -220 OFFCURVE",
"427 -212 OFFCURVE",
"449 -204 CURVE",
"467 -118 LINE",
"454 -125 OFFCURVE",
"432 -129 OFFCURVE",
"415 -129 CURVE SMOOTH",
"393 -129 OFFCURVE",
"380 -119 OFFCURVE",
"380 -101 CURVE SMOOTH",
"380 -97 OFFCURVE",
"381 -93 OFFCURVE",
"382 -89 CURVE SMOOTH",
"389 -55 OFFCURVE",
"418 -26 OFFCURVE",
"458 0 CURVE",
"493 0 LINE",
"523 144 LINE",
"223 144 LINE",
"245 249 LINE",
"508 249 LINE",
"539 395 LINE",
"276 395 LINE",
"299 500 LINE",
"599 500 LINE",
"629 644 LINE",
"141 644 LINE",
"5 0 LINE",
"333 0 LINE",
"284 -28 OFFCURVE",
"244 -72 OFFCURVE",
"233 -123 CURVE SMOOTH",
"231 -131 OFFCURVE",
"231 -138 OFFCURVE",
"231 -144 CURVE SMOOTH",
"231 -196 OFFCURVE",
"278 -220 OFFCURVE",
"345 -220 CURVE SMOOTH"
);
}
);
width = 558;
}
);
note = Eogonek;
unicode = 0118;
},
{
glyphname = Etilde;
lastChange = "2015-10-24 06:28:56 +0000";
layers = (
{
layerId = "D9861EBB-D268-4716-B046-FAB51EB1D86F";
name = "Bold Italic";
paths = (
{
closed = 1;
nodes = (
"493 0 LINE",
"523 144 LINE",
"223 144 LINE",
"245 249 LINE",
"508 249 LINE",
"539 395 LINE",
"276 395 LINE",
"299 500 LINE",
"599 500 LINE",
"629 644 LINE",
"141 644 LINE",
"5 0 LINE"
);
},
{
closed = 1;
nodes = (
"537 696 OFFCURVE",
"575 711 OFFCURVE",
"592 729 CURVE",
"617 848 LINE",
"597 825 OFFCURVE",
"561 808 OFFCURVE",
"519 808 CURVE SMOOTH",
"456 808 OFFCURVE",
"414 850 OFFCURVE",
"347 850 CURVE SMOOTH",
"308 850 OFFCURVE",
"268 835 OFFCURVE",
"245 817 CURVE",
"220 699 LINE",
"249 723 OFFCURVE",
"284 738 OFFCURVE",
"326 738 CURVE SMOOTH",
"381 738 OFFCURVE",
"432 696 OFFCURVE",
"498 696 CURVE SMOOTH"
);
}
);
width = 558;
}
);
note = Etilde;
unicode = 1EBC;
},
{
glyphname = F;
lastChange = "2015-10-24 06:28:51 +0000";
layers = (
{
layerId = "D9861EBB-D268-4716-B046-FAB51EB1D86F";
name = "Bold Italic";
paths = (
{
closed = 1;
nodes = (
"193 0 LINE",
"246 251 LINE",
"504 251 LINE",
"534 393 LINE",
"276 393 LINE",
"300 504 LINE",
"596 504 LINE",
"625 644 LINE",
"141 644 LINE",
"5 0 LINE"
);
}
);
width = 534;
}
);
note = F;
unicode = 0046;
},
{
glyphname = G;
lastChange = "2015-10-24 06:29:10 +0000";
layers = (
{
layerId = "D9861EBB-D268-4716-B046-FAB51EB1D86F";
name = "Bold Italic";
paths = (
{
closed = 1;
nodes = (
"453 -10 OFFCURVE",
"540 18 OFFCURVE",
"596 49 CURVE",
"665 373 LINE",
"380 373 LINE",
"355 257 LINE",
"483 257 LINE",
"463 163 LINE",
"434 155 OFFCURVE",
"402 150 OFFCURVE",
"368 150 CURVE SMOOTH",
"272 150 OFFCURVE",
"235 180 OFFCURVE",
"235 248 CURVE SMOOTH",
"235 267 OFFCURVE",
"238 290 OFFCURVE",
"244 316 CURVE SMOOTH",
"270 441 OFFCURVE",
"353 494 OFFCURVE",
"468 494 CURVE SMOOTH",
"533 494 OFFCURVE",
"594 487 OFFCURVE",
"648 465 CURVE",
"683 626 LINE",
"629 645 OFFCURVE",
"569 654 OFFCURVE",
"489 654 CURVE SMOOTH",
"235 654 OFFCURVE",
"98 532 OFFCURVE",
"52 316 CURVE SMOOTH",
"46 287 OFFCURVE",
"43 259 OFFCURVE",
"43 234 CURVE SMOOTH",
"43 76 OFFCURVE",
"158 -10 OFFCURVE",
"334 -10 CURVE SMOOTH"
);
}
);
width = 651;
}
);
leftKerningGroup = C;
note = G;
unicode = 0047;
},
{
glyphname = Gbreve;
lastChange = "2015-10-24 06:29:09 +0000";
layers = (
{
layerId = "D9861EBB-D268-4716-B046-FAB51EB1D86F";
name = "Bold Italic";
paths = (
{
closed = 1;
nodes = (
"453 -10 OFFCURVE",
"540 18 OFFCURVE",
"596 49 CURVE",
"665 373 LINE",
"380 373 LINE",
"355 257 LINE",
"483 257 LINE",
"463 163 LINE",
"434 155 OFFCURVE",
"402 150 OFFCURVE",
"368 150 CURVE SMOOTH",
"272 150 OFFCURVE",
"235 180 OFFCURVE",
"235 248 CURVE SMOOTH",
"235 267 OFFCURVE",
"238 290 OFFCURVE",
"244 316 CURVE SMOOTH",
"270 441 OFFCURVE",
"353 494 OFFCURVE",
"468 494 CURVE SMOOTH",
"533 494 OFFCURVE",
"594 487 OFFCURVE",
"648 465 CURVE",
"683 626 LINE",
"629 645 OFFCURVE",
"569 654 OFFCURVE",
"489 654 CURVE SMOOTH",
"235 654 OFFCURVE",
"98 532 OFFCURVE",
"52 316 CURVE SMOOTH",
"46 287 OFFCURVE",
"43 259 OFFCURVE",
"43 234 CURVE SMOOTH",
"43 76 OFFCURVE",
"158 -10 OFFCURVE",
"334 -10 CURVE SMOOTH"
);
},
{
closed = 1;
nodes = (
"596 689 OFFCURVE",
"686 755 OFFCURVE",
"712 876 CURVE",
"585 876 LINE",
"575 827 OFFCURVE",
"550 792 OFFCURVE",
"499 792 CURVE SMOOTH",
"460 792 OFFCURVE",
"446 812 OFFCURVE",
"446 844 CURVE SMOOTH",
"446 853 OFFCURVE",
"448 864 OFFCURVE",
"450 876 CURVE",
"334 876 LINE",
"330 858 OFFCURVE",
"328 840 OFFCURVE",
"328 824 CURVE SMOOTH",
"328 736 OFFCURVE",
"387 689 OFFCURVE",
"482 689 CURVE SMOOTH"
);
}
);
width = 651;
}
);
leftKerningGroup = C;
note = Gbreve;
unicode = 011E;
},
{
glyphname = Gcaron;
lastChange = "2015-10-24 06:29:09 +0000";
layers = (
{
layerId = "D9861EBB-D268-4716-B046-FAB51EB1D86F";
name = "Bold Italic";
paths = (
{
closed = 1;
nodes = (
"453 -10 OFFCURVE",
"540 18 OFFCURVE",
"596 49 CURVE",
"665 373 LINE",
"380 373 LINE",
"355 257 LINE",
"483 257 LINE",
"463 163 LINE",
"434 155 OFFCURVE",
"402 150 OFFCURVE",
"368 150 CURVE SMOOTH",
"272 150 OFFCURVE",
"235 180 OFFCURVE",
"235 248 CURVE SMOOTH",
"235 267 OFFCURVE",
"238 290 OFFCURVE",
"244 316 CURVE SMOOTH",
"270 441 OFFCURVE",
"353 494 OFFCURVE",
"468 494 CURVE SMOOTH",
"533 494 OFFCURVE",
"594 487 OFFCURVE",
"648 465 CURVE",
"683 626 LINE",
"629 645 OFFCURVE",
"569 654 OFFCURVE",
"489 654 CURVE SMOOTH",
"235 654 OFFCURVE",
"98 532 OFFCURVE",
"52 316 CURVE SMOOTH",
"46 287 OFFCURVE",
"43 259 OFFCURVE",
"43 234 CURVE SMOOTH",
"43 76 OFFCURVE",
"158 -10 OFFCURVE",
"334 -10 CURVE SMOOTH"
);
},
{
closed = 1;
nodes = (
"536 688 LINE",
"733 888 LINE",
"592 888 LINE",
"493 779 LINE",
"444 888 LINE",
"310 888 LINE",
"422 688 LINE"
);
}
);
width = 651;
}
);
leftKerningGroup = C;
note = Gcaron;
unicode = 01E6;
},
{
glyphname = Gcircumflex;
lastChange = "2015-10-24 06:29:08 +0000";
layers = (
{
layerId = "D9861EBB-D268-4716-B046-FAB51EB1D86F";
name = "Bold Italic";
paths = (
{
closed = 1;
nodes = (
"453 -10 OFFCURVE",
"540 18 OFFCURVE",
"596 49 CURVE",
"665 373 LINE",
"380 373 LINE",
"355 257 LINE",
"483 257 LINE",
"463 163 LINE",
"434 155 OFFCURVE",
"402 150 OFFCURVE",
"368 150 CURVE SMOOTH",
"272 150 OFFCURVE",
"235 180 OFFCURVE",
"235 248 CURVE SMOOTH",
"235 267 OFFCURVE",
"238 290 OFFCURVE",
"244 316 CURVE SMOOTH",
"270 441 OFFCURVE",
"353 494 OFFCURVE",
"468 494 CURVE SMOOTH",
"533 494 OFFCURVE",
"594 487 OFFCURVE",
"648 465 CURVE",
"683 626 LINE",
"629 645 OFFCURVE",
"569 654 OFFCURVE",
"489 654 CURVE SMOOTH",
"235 654 OFFCURVE",
"98 532 OFFCURVE",
"52 316 CURVE SMOOTH",
"46 287 OFFCURVE",
"43 259 OFFCURVE",
"43 234 CURVE SMOOTH",
"43 76 OFFCURVE",
"158 -10 OFFCURVE",
"334 -10 CURVE SMOOTH"
);
},
{
closed = 1;
nodes = (
"404 688 LINE",
"497 796 LINE",
"551 688 LINE",
"682 688 LINE",
"569 888 LINE",
"455 888 LINE",
"259 688 LINE"
);
}
);
width = 651;
}
);
leftKerningGroup = C;
note = Gcircumflex;
unicode = 011C;
},
{
glyphname = Gcommaaccent;
lastChange = "2015-10-24 06:29:08 +0000";
layers = (
{
layerId = "D9861EBB-D268-4716-B046-FAB51EB1D86F";
name = "Bold Italic";
paths = (
{
closed = 1;
nodes = (
"453 -10 OFFCURVE",
"540 18 OFFCURVE",
"596 49 CURVE",
"665 373 LINE",
"380 373 LINE",
"355 257 LINE",
"483 257 LINE",
"463 163 LINE",
"434 155 OFFCURVE",
"402 150 OFFCURVE",
"368 150 CURVE SMOOTH",
"272 150 OFFCURVE",
"235 180 OFFCURVE",
"235 248 CURVE SMOOTH",
"235 267 OFFCURVE",
"238 290 OFFCURVE",
"244 316 CURVE SMOOTH",
"270 441 OFFCURVE",
"353 494 OFFCURVE",
"468 494 CURVE SMOOTH",
"533 494 OFFCURVE",
"594 487 OFFCURVE",
"648 465 CURVE",
"683 626 LINE",
"629 645 OFFCURVE",
"569 654 OFFCURVE",
"489 654 CURVE SMOOTH",
"235 654 OFFCURVE",
"98 532 OFFCURVE",
"52 316 CURVE SMOOTH",
"46 287 OFFCURVE",
"43 259 OFFCURVE",
"43 234 CURVE SMOOTH",
"43 76 OFFCURVE",
"158 -10 OFFCURVE",
"334 -10 CURVE SMOOTH"
);
},
{
closed = 1;
nodes = (
"311 -262 LINE",
"416 -37 LINE",
"263 -37 LINE",
"182 -262 LINE"
);
}
);
width = 651;
}
);
leftKerningGroup = C;
note = Gcommaaccent;
unicode = 0122;
},
{
glyphname = Gdotaccent;
lastChange = "2015-10-24 06:29:09 +0000";
layers = (
{
layerId = "D9861EBB-D268-4716-B046-FAB51EB1D86F";
name = "Bold Italic";
paths = (
{
closed = 1;
nodes = (
"453 -10 OFFCURVE",
"540 18 OFFCURVE",
"596 49 CURVE",
"665 373 LINE",
"380 373 LINE",
"355 257 LINE",
"483 257 LINE",
"463 163 LINE",
"434 155 OFFCURVE",
"402 150 OFFCURVE",
"368 150 CURVE SMOOTH",
"272 150 OFFCURVE",
"235 180 OFFCURVE",
"235 248 CURVE SMOOTH",
"235 267 OFFCURVE",
"238 290 OFFCURVE",
"244 316 CURVE SMOOTH",
"270 441 OFFCURVE",
"353 494 OFFCURVE",
"468 494 CURVE SMOOTH",
"533 494 OFFCURVE",
"594 487 OFFCURVE",
"648 465 CURVE",
"683 626 LINE",
"629 645 OFFCURVE",
"569 654 OFFCURVE",
"489 654 CURVE SMOOTH",
"235 654 OFFCURVE",
"98 532 OFFCURVE",
"52 316 CURVE SMOOTH",
"46 287 OFFCURVE",
"43 259 OFFCURVE",
"43 234 CURVE SMOOTH",
"43 76 OFFCURVE",
"158 -10 OFFCURVE",
"334 -10 CURVE SMOOTH"
);
},
{
closed = 1;
nodes = (
"562 715 LINE",
"588 835 LINE",
"458 835 LINE",
"432 715 LINE"
);
}
);
width = 651;
}
);
leftKerningGroup = C;
note = Gdotaccent;
unicode = 0120;
},
{
glyphname = Gmacron;
lastChange = "2015-10-24 06:29:08 +0000";
layers = (
{
layerId = "D9861EBB-D268-4716-B046-FAB51EB1D86F";
name = "Bold Italic";
paths = (
{
closed = 1;
nodes = (
"453 -10 OFFCURVE",
"540 18 OFFCURVE",
"596 49 CURVE",
"665 373 LINE",
"380 373 LINE",
"355 257 LINE",
"483 257 LINE",
"463 163 LINE",
"434 155 OFFCURVE",
"402 150 OFFCURVE",
"368 150 CURVE SMOOTH",
"272 150 OFFCURVE",
"235 180 OFFCURVE",
"235 248 CURVE SMOOTH",
"235 267 OFFCURVE",
"238 290 OFFCURVE",
"244 316 CURVE SMOOTH",
"270 441 OFFCURVE",
"353 494 OFFCURVE",
"468 494 CURVE SMOOTH",
"533 494 OFFCURVE",
"594 487 OFFCURVE",
"648 465 CURVE",
"683 626 LINE",
"629 645 OFFCURVE",
"569 654 OFFCURVE",
"489 654 CURVE SMOOTH",
"235 654 OFFCURVE",
"98 532 OFFCURVE",
"52 316 CURVE SMOOTH",
"46 287 OFFCURVE",
"43 259 OFFCURVE",
"43 234 CURVE SMOOTH",
"43 76 OFFCURVE",
"158 -10 OFFCURVE",
"334 -10 CURVE SMOOTH"
);
},
{
closed = 1;
nodes = (
"653 717 LINE",
"677 829 LINE",
"350 829 LINE",
"326 717 LINE"
);
}
);
width = 651;
}
);
leftKerningGroup = C;
note = Gmacron;
unicode = 1E20;
},
{
glyphname = H;
lastChange = "2015-10-24 06:28:51 +0000";
layers = (
{
layerId = "D9861EBB-D268-4716-B046-FAB51EB1D86F";
name = "Bold Italic";
paths = (
{
closed = 1;
nodes = (
"193 0 LINE",
"244 240 LINE",
"466 240 LINE",
"415 0 LINE",
"603 0 LINE",
"739 644 LINE",
"551 644 LINE",
"500 404 LINE",
"278 404 LINE",
"329 644 LINE",
"141 644 LINE",
"5 0 LINE"
);
}
);
width = 688;
}
);
note = H;
unicode = 0048;
},
{
glyphname = Hbar;
lastChange = "2015-10-24 06:28:57 +0000";
layers = (
{
layerId = "D9861EBB-D268-4716-B046-FAB51EB1D86F";
name = "Bold Italic";
paths = (
{
closed = 1;
nodes = (
"193 0 LINE",
"244 240 LINE",
"466 240 LINE",
"415 0 LINE",
"603 0 LINE",
"699 458 LINE",
"740 458 LINE",
"766 583 LINE",
"726 583 LINE",
"739 644 LINE",
"551 644 LINE",
"538 583 LINE",
"316 583 LINE",
"329 644 LINE",
"141 644 LINE",
"128 583 LINE",
"88 583 LINE",
"62 458 LINE",
"101 458 LINE",
"5 0 LINE"
);
},
{
closed = 1;
nodes = (
"289 458 LINE",
"511 458 LINE",
"500 404 LINE",
"278 404 LINE"
);
}
);
width = 688;
}
);
note = Hbar;
unicode = 0126;
},
{
glyphname = Hbrevebelow;
lastChange = "2015-10-24 06:29:10 +0000";
layers = (
{
layerId = "D9861EBB-D268-4716-B046-FAB51EB1D86F";
name = "Bold Italic";
paths = (
{
closed = 1;
nodes = (
"193 0 LINE",
"244 240 LINE",
"466 240 LINE",
"415 0 LINE",
"603 0 LINE",
"739 644 LINE",
"551 644 LINE",
"500 404 LINE",
"278 404 LINE",
"329 644 LINE",
"141 644 LINE",
"5 0 LINE"
);
},
{
closed = 1;
nodes = (
"368 -237 OFFCURVE",
"458 -171 OFFCURVE",
"484 -50 CURVE",
"357 -50 LINE",
"346 -99 OFFCURVE",
"323 -134 OFFCURVE",
"272 -134 CURVE SMOOTH",
"233 -134 OFFCURVE",
"219 -114 OFFCURVE",
"219 -83 CURVE SMOOTH",
"219 -73 OFFCURVE",
"220 -62 OFFCURVE",
"223 -50 CURVE",
"106 -50 LINE",
"102 -68 OFFCURVE",
"100 -86 OFFCURVE",
"100 -102 CURVE SMOOTH",
"100 -190 OFFCURVE",
"159 -237 OFFCURVE",
"255 -237 CURVE SMOOTH"
);
}
);
width = 688;
}
);
note = Hbrevebelow;
unicode = 1E2A;
},
{
glyphname = Hcircumflex;
lastChange = "2015-10-24 06:28:57 +0000";
layers = (
{
layerId = "D9861EBB-D268-4716-B046-FAB51EB1D86F";
name = "Bold Italic";
paths = (
{
closed = 1;
nodes = (
"193 0 LINE",
"244 240 LINE",
"466 240 LINE",
"415 0 LINE",
"603 0 LINE",
"739 644 LINE",
"551 644 LINE",
"500 404 LINE",
"278 404 LINE",
"329 644 LINE",
"141 644 LINE",
"5 0 LINE"
);
},
{
closed = 1;
nodes = (
"384 688 LINE",
"477 796 LINE",
"531 688 LINE",
"662 688 LINE",
"549 888 LINE",
"435 888 LINE",
"239 688 LINE"
);
}
);
width = 688;
}
);
note = Hcircumflex;
unicode = 0124;
},
{
glyphname = Hdotbelow;
lastChange = "2015-10-24 06:28:57 +0000";
layers = (
{
layerId = "D9861EBB-D268-4716-B046-FAB51EB1D86F";
name = "Bold Italic";
paths = (
{
closed = 1;
nodes = (
"193 0 LINE",
"244 240 LINE",
"466 240 LINE",
"415 0 LINE",
"603 0 LINE",
"739 644 LINE",
"551 644 LINE",
"500 404 LINE",
"278 404 LINE",
"329 644 LINE",
"141 644 LINE",
"5 0 LINE"
);
},
{
closed = 1;
nodes = (
"329 -197 LINE",
"354 -77 LINE",
"224 -77 LINE",
"199 -197 LINE"
);
}
);
width = 688;
}
);
note = Hdotbelow;
unicode = 1E24;
},
{
glyphname = I;
lastChange = "2015-10-24 06:28:52 +0000";
layers = (
{
layerId = "D9861EBB-D268-4716-B046-FAB51EB1D86F";
name = "Bold Italic";
paths = (
{
closed = 1;
nodes = (
"193 0 LINE",
"329 644 LINE",
"141 644 LINE",
"5 0 LINE"
);
}
);
width = 278;
}
);
note = I;
unicode = 0049;
},
{
glyphname = IJ;
lastChange = "2015-10-24 06:28:56 +0000";
layers = (
{
layerId = "D9861EBB-D268-4716-B046-FAB51EB1D86F";
name = "Bold Italic";
paths = (
{
closed = 1;
nodes = (
"560 -10 OFFCURVE",
"653 69 OFFCURVE",
"684 214 CURVE SMOOTH",
"775 644 LINE",
"587 644 LINE",
"502 244 LINE SMOOTH",
"488 176 OFFCURVE",
"462 149 OFFCURVE",
"382 149 CURVE SMOOTH",
"342 149 OFFCURVE",
"302 156 OFFCURVE",
"272 169 CURVE",
"239 13 LINE",
"282 -3 OFFCURVE",
"331 -10 OFFCURVE",
"387 -10 CURVE SMOOTH"
);
},
{
closed = 1;
nodes = (
"193 0 LINE",
"329 644 LINE",
"141 644 LINE",
"5 0 LINE"
);
}
);
width = 719;
}
);
note = IJ;
rightKerningGroup = J;
unicode = 0132;
},
{
glyphname = Iacute;
lastChange = "2015-10-24 06:28:56 +0000";
layers = (
{
layerId = "D9861EBB-D268-4716-B046-FAB51EB1D86F";
name = "Bold Italic";
paths = (
{
closed = 1;
nodes = (
"193 0 LINE",
"329 644 LINE",
"141 644 LINE",
"5 0 LINE"
);
},
{
closed = 1;
nodes = (
"309 688 LINE",
"449 894 LINE",
"303 894 LINE",
"171 688 LINE"
);
}
);
width = 278;
}
);
note = Iacute;
unicode = 00CD;
},
{
glyphname = Ibreve;
lastChange = "2015-10-24 06:29:08 +0000";
layers = (
{
layerId = "D9861EBB-D268-4716-B046-FAB51EB1D86F";
name = "Bold Italic";
paths = (
{
closed = 1;
nodes = (
"193 0 LINE",
"329 644 LINE",
"141 644 LINE",
"5 0 LINE"
);
},
{
closed = 1;
nodes = (
"362 709 OFFCURVE",
"452 775 OFFCURVE",
"478 896 CURVE",
"351 896 LINE",
"341 847 OFFCURVE",
"316 812 OFFCURVE",
"265 812 CURVE SMOOTH",
"226 812 OFFCURVE",
"212 832 OFFCURVE",
"212 864 CURVE SMOOTH",
"212 873 OFFCURVE",
"214 884 OFFCURVE",
"216 896 CURVE",
"100 896 LINE",
"96 878 OFFCURVE",
"94 860 OFFCURVE",
"94 844 CURVE SMOOTH",
"94 756 OFFCURVE",
"153 709 OFFCURVE",
"248 709 CURVE SMOOTH"
);
}
);
width = 278;
}
);
note = Ibreve;
unicode = 012C;
},
{
glyphname = Icaron;
lastChange = "2015-10-24 06:28:56 +0000";
layers = (
{
layerId = "D9861EBB-D268-4716-B046-FAB51EB1D86F";
name = "Bold Italic";
paths = (
{
closed = 1;
nodes = (
"193 0 LINE",
"329 644 LINE",
"141 644 LINE",
"5 0 LINE"
);
},
{
closed = 1;
nodes = (
"302 688 LINE",
"499 888 LINE",
"358 888 LINE",
"259 779 LINE",
"210 888 LINE",
"76 888 LINE",
"188 688 LINE"
);
}
);
width = 278;
}
);
note = Icaron;
unicode = 01CF;
},
{
glyphname = Icircumflex;
lastChange = "2015-10-24 06:28:56 +0000";
layers = (
{
layerId = "D9861EBB-D268-4716-B046-FAB51EB1D86F";
name = "Bold Italic";
paths = (
{
closed = 1;
nodes = (
"193 0 LINE",
"329 644 LINE",
"141 644 LINE",
"5 0 LINE"
);
},
{
closed = 1;
nodes = (
"179 688 LINE",
"272 796 LINE",
"326 688 LINE",
"457 688 LINE",
"344 888 LINE",
"230 888 LINE",
"34 688 LINE"
);
}
);
width = 278;
}
);
note = Icircumflex;
unicode = 00CE;
},
{
glyphname = Idieresis;
lastChange = "2015-10-24 06:28:56 +0000";
layers = (
{
layerId = "D9861EBB-D268-4716-B046-FAB51EB1D86F";
name = "Bold Italic";
paths = (
{
closed = 1;
nodes = (
"193 0 LINE",
"329 644 LINE",
"141 644 LINE",
"5 0 LINE"
);
},
{
closed = 1;
nodes = (
"209 722 LINE",
"235 842 LINE",
"105 842 LINE",
"79 722 LINE"
);
},
{
closed = 1;
nodes = (
"425 722 LINE",
"451 842 LINE",
"320 842 LINE",
"294 722 LINE"
);
}
);
width = 278;
}
);
note = Idieresis;
unicode = 00CF;
},
{
glyphname = Idotaccent;
lastChange = "2015-10-24 06:28:57 +0000";
layers = (
{
layerId = "D9861EBB-D268-4716-B046-FAB51EB1D86F";
name = "Bold Italic";
paths = (
{
closed = 1;
nodes = (
"193 0 LINE",
"329 644 LINE",
"141 644 LINE",
"5 0 LINE"
);
},
{
closed = 1;
nodes = (
"316 722 LINE",
"342 842 LINE",
"212 842 LINE",
"186 722 LINE"
);
}
);
width = 278;
}
);
note = Idotaccent;
unicode = 0130;
},
{
glyphname = Idotbelow;
lastChange = "2015-10-24 06:28:57 +0000";
layers = (
{
layerId = "D9861EBB-D268-4716-B046-FAB51EB1D86F";
name = "Bold Italic";
paths = (
{
closed = 1;
nodes = (
"193 0 LINE",
"329 644 LINE",
"141 644 LINE",
"5 0 LINE"
);
},
{
closed = 1;
nodes = (
"127 -176 LINE",
"152 -56 LINE",
"22 -56 LINE",
"-3 -176 LINE"
);
}
);
width = 278;
}
);
note = Idotbelow;
unicode = 1ECA;
},
{
glyphname = Igrave;
lastChange = "2015-10-24 06:28:57 +0000";
layers = (
{
layerId = "D9861EBB-D268-4716-B046-FAB51EB1D86F";
name = "Bold Italic";
paths = (
{
closed = 1;
nodes = (
"193 0 LINE",
"329 644 LINE",
"141 644 LINE",
"5 0 LINE"
);
},
{
closed = 1;
nodes = (
"317 688 LINE",
"273 894 LINE",
"126 894 LINE",
"179 688 LINE"
);
}
);
width = 278;
}
);
note = Igrave;
unicode = 00CC;
},
{
glyphname = Ihookabove;
lastChange = "2015-10-24 06:29:09 +0000";
layers = (
{
layerId = "D9861EBB-D268-4716-B046-FAB51EB1D86F";
name = "Bold Italic";
paths = (
{
closed = 1;
nodes = (
"193 0 LINE",
"329 644 LINE",
"141 644 LINE",
"5 0 LINE"
);
},
{
closed = 1;
nodes = (
"308 688 LINE",
"317 729 LINE",
"376 745 OFFCURVE",
"410 771 OFFCURVE",
"422 829 CURVE SMOOTH",
"424 836 OFFCURVE",
"424 843 OFFCURVE",
"424 850 CURVE SMOOTH",
"424 898 OFFCURVE",
"383 930 OFFCURVE",
"303 930 CURVE SMOOTH",
"255 930 OFFCURVE",
"215 925 OFFCURVE",
"185 916 CURVE",
"168 838 LINE",
"185 842 OFFCURVE",
"210 846 OFFCURVE",
"229 846 CURVE SMOOTH",
"268 846 OFFCURVE",
"287 836 OFFCURVE",
"282 813 CURVE SMOOTH",
"277 788 OFFCURVE",
"254 773 OFFCURVE",
"185 769 CURVE",
"167 688 LINE"
);
}
);
width = 278;
}
);
note = Ihookabove;
unicode = 1EC8;
},
{
glyphname = Imacron;
lastChange = "2015-10-24 06:28:56 +0000";
layers = (
{
layerId = "D9861EBB-D268-4716-B046-FAB51EB1D86F";
name = "Bold Italic";
paths = (
{
closed = 1;
nodes = (
"193 0 LINE",
"329 644 LINE",
"141 644 LINE",
"5 0 LINE"
);
},
{
closed = 1;
nodes = (
"417 724 LINE",
"441 836 LINE",
"113 836 LINE",
"89 724 LINE"
);
}
);
width = 278;
}
);
note = Imacron;
unicode = 012A;
},
{
glyphname = Iogonek;
lastChange = "2015-10-24 06:29:10 +0000";
layers = (
{
layerId = "D9861EBB-D268-4716-B046-FAB51EB1D86F";
name = "Bold Italic";
paths = (
{
closed = 1;
nodes = (
"90 -220 OFFCURVE",
"131 -212 OFFCURVE",
"153 -204 CURVE",
"171 -118 LINE",
"158 -125 OFFCURVE",
"136 -129 OFFCURVE",
"119 -129 CURVE SMOOTH",
"97 -129 OFFCURVE",
"84 -119 OFFCURVE",
"84 -101 CURVE SMOOTH",
"84 -97 OFFCURVE",
"85 -93 OFFCURVE",
"86 -89 CURVE SMOOTH",
"93 -55 OFFCURVE",
"122 -26 OFFCURVE",
"162 0 CURVE",
"193 0 LINE",
"329 644 LINE",
"141 644 LINE",
"5 0 LINE",
"37 0 LINE",
"-12 -28 OFFCURVE",
"-52 -72 OFFCURVE",
"-63 -123 CURVE SMOOTH",
"-65 -131 OFFCURVE",
"-65 -138 OFFCURVE",
"-65 -144 CURVE SMOOTH",
"-65 -196 OFFCURVE",
"-18 -220 OFFCURVE",
"49 -220 CURVE SMOOTH"
);
}
);
width = 278;
}
);
note = Iogonek;
unicode = 012E;
},
{
glyphname = Itilde;
lastChange = "2015-10-24 06:28:56 +0000";
layers = (
{
layerId = "D9861EBB-D268-4716-B046-FAB51EB1D86F";
name = "Bold Italic";
paths = (
{
closed = 1;
nodes = (
"193 0 LINE",
"329 644 LINE",
"141 644 LINE",
"5 0 LINE"
);
},
{
closed = 1;
nodes = (
"385 711 OFFCURVE",
"423 726 OFFCURVE",
"440 744 CURVE",
"465 863 LINE",
"445 840 OFFCURVE",
"409 823 OFFCURVE",
"367 823 CURVE SMOOTH",
"304 823 OFFCURVE",
"262 865 OFFCURVE",
"195 865 CURVE SMOOTH",
"156 865 OFFCURVE",
"116 850 OFFCURVE",
"93 832 CURVE",
"68 714 LINE",
"97 738 OFFCURVE",
"132 753 OFFCURVE",
"174 753 CURVE SMOOTH",
"229 753 OFFCURVE",
"280 711 OFFCURVE",
"346 711 CURVE SMOOTH"
);
}
);
width = 278;
}
);
note = Itilde;
unicode = 0128;
},
{
glyphname = J;
lastChange = "2015-10-24 06:28:52 +0000";
layers = (
{
layerId = "D9861EBB-D268-4716-B046-FAB51EB1D86F";
name = "Bold Italic";
paths = (
{
closed = 1;
nodes = (
"288 -10 OFFCURVE",
"381 69 OFFCURVE",
"412 214 CURVE SMOOTH",
"503 644 LINE",
"315 644 LINE",
"230 244 LINE SMOOTH",
"216 176 OFFCURVE",
"190 149 OFFCURVE",
"110 149 CURVE SMOOTH",
"70 149 OFFCURVE",
"30 156 OFFCURVE",
"0 169 CURVE",
"-33 13 LINE",
"10 -3 OFFCURVE",
"59 -10 OFFCURVE",
"115 -10 CURVE SMOOTH"
);
}
);
width = 447;
}
);
leftKerningGroup = J;
note = J;
rightKerningGroup = J;
unicode = 004A;
},
{
glyphname = Jcircumflex;
lastChange = "2015-10-24 06:28:57 +0000";
layers = (
{
layerId = "D9861EBB-D268-4716-B046-FAB51EB1D86F";
name = "Bold Italic";
paths = (
{
closed = 1;
nodes = (
"288 -10 OFFCURVE",
"381 69 OFFCURVE",
"412 214 CURVE SMOOTH",
"503 644 LINE",
"315 644 LINE",
"230 244 LINE SMOOTH",
"216 176 OFFCURVE",
"190 149 OFFCURVE",
"110 149 CURVE SMOOTH",
"70 149 OFFCURVE",
"30 156 OFFCURVE",
"0 169 CURVE",
"-33 13 LINE",
"10 -3 OFFCURVE",
"59 -10 OFFCURVE",
"115 -10 CURVE SMOOTH"
);
},
{
closed = 1;
nodes = (
"342 688 LINE",
"435 796 LINE",
"489 688 LINE",
"620 688 LINE",
"507 888 LINE",
"393 888 LINE",
"197 688 LINE"
);
}
);
width = 447;
}
);
leftKerningGroup = J;
note = Jcircumflex;
rightKerningGroup = J;
unicode = 0134;
},
{
glyphname = K;
lastChange = "2015-10-24 06:28:52 +0000";
layers = (
{
layerId = "D9861EBB-D268-4716-B046-FAB51EB1D86F";
name = "Bold Italic";
paths = (
{
closed = 1;
nodes = (
"193 0 LINE",
"232 186 LINE",
"314 260 LINE",
"418 0 LINE",
"618 0 LINE",
"455 380 LINE",
"738 644 LINE",
"524 644 LINE",
"281 417 LINE",
"329 644 LINE",
"141 644 LINE",
"5 0 LINE"
);
}
);
width = 683;
}
);
note = K;
rightKerningGroup = K;
unicode = 004B;
},
{
glyphname = Kcommaaccent;
lastChange = "2015-10-24 06:28:57 +0000";
layers = (
{
layerId = "D9861EBB-D268-4716-B046-FAB51EB1D86F";
name = "Bold Italic";
paths = (
{
closed = 1;
nodes = (
"193 0 LINE",
"232 186 LINE",
"314 260 LINE",
"418 0 LINE",
"618 0 LINE",
"455 380 LINE",
"738 644 LINE",
"524 644 LINE",
"281 417 LINE",
"329 644 LINE",
"141 644 LINE",
"5 0 LINE"
);
},
{
closed = 1;
nodes = (
"271 -262 LINE",
"376 -37 LINE",
"223 -37 LINE",
"142 -262 LINE"
);
}
);
width = 683;
}
);
note = Kcommaaccent;
rightKerningGroup = K;
unicode = 0136;
},
{
glyphname = L;
lastChange = "2015-10-24 06:28:52 +0000";
layers = (
{
layerId = "D9861EBB-D268-4716-B046-FAB51EB1D86F";
name = "Bold Italic";
paths = (
{
closed = 1;
nodes = (
"483 0 LINE",
"513 144 LINE",
"223 144 LINE",
"329 644 LINE",
"141 644 LINE",
"5 0 LINE"
);
}
);
width = 528;
}
);
note = L;
rightKerningGroup = L;
unicode = 004C;
},
{
glyphname = Lacute;
lastChange = "2015-10-24 06:28:55 +0000";
layers = (
{
layerId = "D9861EBB-D268-4716-B046-FAB51EB1D86F";
name = "Bold Italic";
paths = (
{
closed = 1;
nodes = (
"483 0 LINE",
"513 144 LINE",
"223 144 LINE",
"329 644 LINE",
"141 644 LINE",
"5 0 LINE"
);
},
{
closed = 1;
nodes = (
"309 688 LINE",
"449 894 LINE",
"303 894 LINE",
"171 688 LINE"
);
}
);
width = 528;
}
);
note = Lacute;
rightKerningGroup = L;
unicode = 0139;
},
{
glyphname = Lcaron;
lastChange = "2015-10-24 06:28:57 +0000";
layers = (
{
layerId = "D9861EBB-D268-4716-B046-FAB51EB1D86F";
name = "Bold Italic";
paths = (
{
closed = 1;
nodes = (
"483 0 LINE",
"513 144 LINE",
"223 144 LINE",
"329 644 LINE",
"141 644 LINE",
"5 0 LINE"
);
},
{
closed = 1;
nodes = (
"513 626 LINE",
"618 851 LINE",
"465 851 LINE",
"384 626 LINE"
);
}
);
width = 528;
}
);
note = Lcaron;
rightKerningGroup = L;
unicode = 013D;
},
{
glyphname = Lcommaaccent;
lastChange = "2015-10-24 06:28:56 +0000";
layers = (
{
layerId = "D9861EBB-D268-4716-B046-FAB51EB1D86F";
name = "Bold Italic";
paths = (
{
closed = 1;
nodes = (
"483 0 LINE",
"513 144 LINE",
"223 144 LINE",
"329 644 LINE",
"141 644 LINE",
"5 0 LINE"
);
},
{
closed = 1;
nodes = (
"224 -262 LINE",
"329 -37 LINE",
"176 -37 LINE",
"95 -262 LINE"
);
}
);
width = 528;
}
);
note = Lcommaaccent;
rightKerningGroup = L;
unicode = 013B;
},
{
glyphname = Ldot;
lastChange = "2015-10-24 06:28:57 +0000";
layers = (
{
layerId = "D9861EBB-D268-4716-B046-FAB51EB1D86F";
name = "Bold Italic";
paths = (
{
closed = 1;
nodes = (
"483 0 LINE",
"513 144 LINE",
"223 144 LINE",
"329 644 LINE",
"141 644 LINE",
"5 0 LINE"
);
},
{
closed = 1;
nodes = (
"515 292 LINE",
"541 412 LINE",
"411 412 LINE",
"385 292 LINE"
);
}
);
width = 528;
}
);
note = Ldot;
rightKerningGroup = L;
unicode = 013F;
},
{
glyphname = Ldotbelow;
lastChange = "2015-10-24 06:28:56 +0000";
layers = (
{
layerId = "D9861EBB-D268-4716-B046-FAB51EB1D86F";
name = "Bold Italic";
paths = (
{
closed = 1;
nodes = (
"483 0 LINE",
"513 144 LINE",
"223 144 LINE",
"329 644 LINE",
"141 644 LINE",
"5 0 LINE"
);
},
{
closed = 1;
nodes = (
"265 -176 LINE",
"290 -56 LINE",
"160 -56 LINE",
"135 -176 LINE"
);
}
);
width = 528;
}
);
note = Ldotbelow;
rightKerningGroup = L;
unicode = 1E36;
},
{
glyphname = Ldotbelowmacron;
lastChange = "2015-10-24 06:28:56 +0000";
layers = (
{
layerId = "D9861EBB-D268-4716-B046-FAB51EB1D86F";
name = "Bold Italic";
paths = (
{
closed = 1;
nodes = (
"483 0 LINE",
"513 144 LINE",
"223 144 LINE",
"329 644 LINE",
"141 644 LINE",
"5 0 LINE"
);
},
{
closed = 1;
nodes = (
"265 -176 LINE",
"290 -56 LINE",
"160 -56 LINE",
"135 -176 LINE"
);
},
{
closed = 1;
nodes = (
"417 717 LINE",
"441 829 LINE",
"114 829 LINE",
"90 717 LINE"
);
}
);
width = 528;
}
);
note = Ldotbelowmacron;
rightKerningGroup = L;
unicode = 1E38;
},
{
glyphname = Llinebelow;
lastChange = "2015-10-24 06:28:57 +0000";
layers = (
{
layerId = "D9861EBB-D268-4716-B046-FAB51EB1D86F";
name = "Bold Italic";
paths = (
{
closed = 1;
nodes = (
"483 0 LINE",
"513 144 LINE",
"223 144 LINE",
"329 644 LINE",
"141 644 LINE",
"5 0 LINE"
);
},
{
closed = 1;
nodes = (
"367 -176 LINE",
"391 -64 LINE",
"64 -64 LINE",
"40 -176 LINE"
);
}
);
width = 528;
}
);
note = Llinebelow;
rightKerningGroup = L;
unicode = 1E3A;
},
{
glyphname = Lslash;
lastChange = "2015-10-24 06:28:52 +0000";
layers = (
{
layerId = "D9861EBB-D268-4716-B046-FAB51EB1D86F";
name = "Bold Italic";
paths = (
{
closed = 1;
nodes = (
"483 0 LINE",
"513 144 LINE",
"223 144 LINE",
"261 323 LINE",
"355 361 LINE",
"384 494 LINE",
"289 456 LINE",
"329 644 LINE",
"141 644 LINE",
"84 374 LINE",
"-3 339 LINE",
"-32 206 LINE",
"56 241 LINE",
"5 0 LINE"
);
}
);
width = 528;
}
);
note = Lslash;
rightKerningGroup = L;
unicode = 0141;
},
{
glyphname = M;
lastChange = "2015-10-24 06:28:52 +0000";
layers = (
{
layerId = "D9861EBB-D268-4716-B046-FAB51EB1D86F";
name = "Bold Italic";
paths = (
{
closed = 1;
nodes = (
"193 0 LINE",
"261 322 LINE",
"320 110 LINE",
"421 110 LINE",
"569 322 LINE",
"501 0 LINE",
"689 0 LINE",
"825 644 LINE",
"637 644 LINE",
"409 317 LINE",
"318 644 LINE",
"141 644 LINE",
"5 0 LINE"
);
}
);
width = 774;
}
);
note = M;
unicode = 004D;
},
{
glyphname = Mdotbelow;
lastChange = "2015-10-24 06:28:56 +0000";
layers = (
{
layerId = "D9861EBB-D268-4716-B046-FAB51EB1D86F";
name = "Bold Italic";
paths = (
{
closed = 1;
nodes = (
"193 0 LINE",
"261 322 LINE",
"320 110 LINE",
"421 110 LINE",
"569 322 LINE",
"501 0 LINE",
"689 0 LINE",
"825 644 LINE",
"637 644 LINE",
"409 317 LINE",
"318 644 LINE",
"141 644 LINE",
"5 0 LINE"
);
},
{
closed = 1;
nodes = (
"376 -176 LINE",
"401 -56 LINE",
"271 -56 LINE",
"246 -176 LINE"
);
}
);
width = 774;
}
);
note = Mdotbelow;
unicode = 1E42;
},
{
glyphname = N;
lastChange = "2015-10-24 06:28:52 +0000";
layers = (
{
layerId = "D9861EBB-D268-4716-B046-FAB51EB1D86F";
name = "Bold Italic";
paths = (
{
closed = 1;
nodes = (
"193 0 LINE",
"265 340 LINE",
"435 0 LINE",
"596 0 LINE",
"732 644 LINE",
"544 644 LINE",
"472 303 LINE",
"301 644 LINE",
"141 644 LINE",
"5 0 LINE"
);
}
);
width = 681;
}
);
note = N;
unicode = 004E;
},
{
glyphname = Nacute;
lastChange = "2015-10-24 06:28:56 +0000";
layers = (
{
layerId = "D9861EBB-D268-4716-B046-FAB51EB1D86F";
name = "Bold Italic";
paths = (
{
closed = 1;
nodes = (
"193 0 LINE",
"265 340 LINE",
"435 0 LINE",
"596 0 LINE",
"732 644 LINE",
"544 644 LINE",
"472 303 LINE",
"301 644 LINE",
"141 644 LINE",
"5 0 LINE"
);
},
{
closed = 1;
nodes = (
"494 688 LINE",
"634 894 LINE",
"488 894 LINE",
"356 688 LINE"
);
}
);
width = 681;
}
);
note = Nacute;
unicode = 0143;
},
{
glyphname = Ncaron;
lastChange = "2015-10-24 06:28:56 +0000";
layers = (
{
layerId = "D9861EBB-D268-4716-B046-FAB51EB1D86F";
name = "Bold Italic";
paths = (
{
closed = 1;
nodes = (
"193 0 LINE",
"265 340 LINE",
"435 0 LINE",
"596 0 LINE",
"732 644 LINE",
"544 644 LINE",
"472 303 LINE",
"301 644 LINE",
"141 644 LINE",
"5 0 LINE"
);
},
{
closed = 1;
nodes = (
"502 688 LINE",
"699 888 LINE",
"558 888 LINE",
"459 779 LINE",
"410 888 LINE",
"276 888 LINE",
"388 688 LINE"
);
}
);
width = 681;
}
);
note = Ncaron;
unicode = 0147;
},
{
glyphname = Ncommaaccent;
lastChange = "2015-10-24 06:28:56 +0000";
layers = (
{
layerId = "D9861EBB-D268-4716-B046-FAB51EB1D86F";
name = "Bold Italic";
paths = (
{
closed = 1;
nodes = (
"193 0 LINE",
"265 340 LINE",
"435 0 LINE",
"596 0 LINE",
"732 644 LINE",
"544 644 LINE",
"472 303 LINE",
"301 644 LINE",
"141 644 LINE",
"5 0 LINE"
);
},
{
closed = 1;
nodes = (
"275 -262 LINE",
"380 -37 LINE",
"227 -37 LINE",
"146 -262 LINE"
);
}
);
width = 681;
}
);
note = Ncommaaccent;
unicode = 0145;
},
{
glyphname = Ndotaccent;
lastChange = "2015-10-24 06:28:56 +0000";
layers = (
{
layerId = "D9861EBB-D268-4716-B046-FAB51EB1D86F";
name = "Bold Italic";
paths = (
{
closed = 1;
nodes = (
"193 0 LINE",
"265 340 LINE",
"435 0 LINE",
"596 0 LINE",
"732 644 LINE",
"544 644 LINE",
"472 303 LINE",
"301 644 LINE",
"141 644 LINE",
"5 0 LINE"
);
},
{
closed = 1;
nodes = (
"515 715 LINE",
"541 835 LINE",
"411 835 LINE",
"385 715 LINE"
);
}
);
width = 681;
}
);
note = Ndotaccent;
unicode = 1E44;
},
{
glyphname = Ndotbelow;
lastChange = "2015-10-24 06:28:56 +0000";
layers = (
{
layerId = "D9861EBB-D268-4716-B046-FAB51EB1D86F";
name = "Bold Italic";
paths = (
{
closed = 1;
nodes = (
"193 0 LINE",
"265 340 LINE",
"435 0 LINE",
"596 0 LINE",
"732 644 LINE",
"544 644 LINE",
"472 303 LINE",
"301 644 LINE",
"141 644 LINE",
"5 0 LINE"
);
},
{
closed = 1;
nodes = (
"329 -176 LINE",
"354 -56 LINE",
"224 -56 LINE",
"199 -176 LINE"
);
}
);
width = 681;
}
);
note = Ndotbelow;
unicode = 1E46;
},
{
glyphname = Eng;
lastChange = "2015-10-24 06:28:52 +0000";
layers = (
{
layerId = "D9861EBB-D268-4716-B046-FAB51EB1D86F";
name = "Bold Italic";
paths = (
{
closed = 1;
nodes = (
"490 -234 OFFCURVE",
"561 -162 OFFCURVE",
"583 -60 CURVE SMOOTH",
"732 644 LINE",
"543 644 LINE",
"471 303 LINE",
"301 644 LINE",
"141 644 LINE",
"5 0 LINE",
"193 0 LINE",
"265 340 LINE",
"415 39 LINE",
"397 -46 LINE SMOOTH",
"389 -82 OFFCURVE",
"366 -100 OFFCURVE",
"323 -100 CURVE SMOOTH",
"304 -100 OFFCURVE",
"285 -97 OFFCURVE",
"265 -90 CURVE",
"239 -212 LINE",
"272 -227 OFFCURVE",
"311 -234 OFFCURVE",
"363 -234 CURVE SMOOTH"
);
}
);
width = 681;
}
);
note = Eng;
unicode = 014A;
},
{
glyphname = Nlinebelow;
lastChange = "2015-10-24 06:28:57 +0000";
layers = (
{
layerId = "D9861EBB-D268-4716-B046-FAB51EB1D86F";
name = "Bold Italic";
paths = (
{
closed = 1;
nodes = (
"193 0 LINE",
"265 340 LINE",
"435 0 LINE",
"596 0 LINE",
"732 644 LINE",
"544 644 LINE",
"472 303 LINE",
"301 644 LINE",
"141 644 LINE",
"5 0 LINE"
);
},
{
closed = 1;
nodes = (
"432 -175 LINE",
"456 -63 LINE",
"129 -63 LINE",
"105 -175 LINE"
);
}
);
width = 681;
}
);
note = Nlinebelow;
unicode = 1E48;
},
{
glyphname = Ntilde;
lastChange = "2015-10-24 06:28:57 +0000";
layers = (
{
layerId = "D9861EBB-D268-4716-B046-FAB51EB1D86F";
name = "Bold Italic";
paths = (
{
closed = 1;
nodes = (
"193 0 LINE",
"265 340 LINE",
"435 0 LINE",
"596 0 LINE",
"732 644 LINE",
"544 644 LINE",
"472 303 LINE",
"301 644 LINE",
"141 644 LINE",
"5 0 LINE"
);
},
{
closed = 1;
nodes = (
"594 696 OFFCURVE",
"632 711 OFFCURVE",
"649 729 CURVE",
"674 848 LINE",
"654 825 OFFCURVE",
"618 808 OFFCURVE",
"576 808 CURVE SMOOTH",
"513 808 OFFCURVE",
"471 850 OFFCURVE",
"404 850 CURVE SMOOTH",
"365 850 OFFCURVE",
"325 835 OFFCURVE",
"302 817 CURVE",
"277 699 LINE",
"306 723 OFFCURVE",
"341 738 OFFCURVE",
"383 738 CURVE SMOOTH",
"438 738 OFFCURVE",
"489 696 OFFCURVE",
"555 696 CURVE SMOOTH"
);
}
);
width = 681;
}
);
note = Ntilde;
unicode = 00D1;
},
{
glyphname = O;
lastChange = "2015-10-24 06:29:09 +0000";
layers = (
{
layerId = "D9861EBB-D268-4716-B046-FAB51EB1D86F";
name = "Bold Italic";
paths = (
{
closed = 1;
nodes = (
"535 -10 OFFCURVE",
"661 88 OFFCURVE",
"711 320 CURVE SMOOTH",
"719 359 OFFCURVE",
"723 394 OFFCURVE",
"723 425 CURVE SMOOTH",
"723 582 OFFCURVE",
"624 654 OFFCURVE",
"453 654 CURVE SMOOTH",
"230 654 OFFCURVE",
"104 560 OFFCURVE",
"53 320 CURVE SMOOTH",
"45 282 OFFCURVE",
"41 248 OFFCURVE",
"41 218 CURVE SMOOTH",
"41 59 OFFCURVE",
"145 -10 OFFCURVE",
"311 -10 CURVE SMOOTH"
);
},
{
closed = 1;
nodes = (
"267 150 OFFCURVE",
"234 175 OFFCURVE",
"234 239 CURVE SMOOTH",
"234 261 OFFCURVE",
"238 288 OFFCURVE",
"245 320 CURVE SMOOTH",
"273 447 OFFCURVE",
"323 494 OFFCURVE",
"419 494 CURVE SMOOTH",
"497 494 OFFCURVE",
"529 468 OFFCURVE",
"529 401 CURVE SMOOTH",
"529 379 OFFCURVE",
"526 352 OFFCURVE",
"519 320 CURVE SMOOTH",
"493 201 OFFCURVE",
"441 150 OFFCURVE",
"345 150 CURVE SMOOTH"
);
}
);
width = 708;
}
);
leftKerningGroup = O;
note = O;
rightKerningGroup = O;
unicode = 004F;
},
{
glyphname = Oacute;
lastChange = "2015-10-24 06:29:08 +0000";
layers = (
{
layerId = "D9861EBB-D268-4716-B046-FAB51EB1D86F";
name = "Bold Italic";
paths = (
{
closed = 1;
nodes = (
"535 -10 OFFCURVE",
"661 88 OFFCURVE",
"711 320 CURVE SMOOTH",
"719 359 OFFCURVE",
"723 394 OFFCURVE",
"723 425 CURVE SMOOTH",
"723 582 OFFCURVE",
"624 654 OFFCURVE",
"453 654 CURVE SMOOTH",
"230 654 OFFCURVE",
"104 560 OFFCURVE",
"53 320 CURVE SMOOTH",
"45 282 OFFCURVE",
"41 248 OFFCURVE",
"41 218 CURVE SMOOTH",
"41 59 OFFCURVE",
"145 -10 OFFCURVE",
"311 -10 CURVE SMOOTH"
);
},
{
closed = 1;
nodes = (
"267 150 OFFCURVE",
"234 175 OFFCURVE",
"234 239 CURVE SMOOTH",
"234 261 OFFCURVE",
"238 288 OFFCURVE",
"245 320 CURVE SMOOTH",
"273 447 OFFCURVE",
"323 494 OFFCURVE",
"419 494 CURVE SMOOTH",
"497 494 OFFCURVE",
"529 468 OFFCURVE",
"529 401 CURVE SMOOTH",
"529 379 OFFCURVE",
"526 352 OFFCURVE",
"519 320 CURVE SMOOTH",
"493 201 OFFCURVE",
"441 150 OFFCURVE",
"345 150 CURVE SMOOTH"
);
},
{
closed = 1;
nodes = (
"516 688 LINE",
"656 894 LINE",
"510 894 LINE",
"378 688 LINE"
);
}
);
width = 708;
}
);
leftKerningGroup = O;
note = Oacute;
rightKerningGroup = O;
unicode = 00D3;
},
{
glyphname = Obreve;
lastChange = "2015-10-24 06:29:09 +0000";
layers = (
{
layerId = "D9861EBB-D268-4716-B046-FAB51EB1D86F";
name = "Bold Italic";
paths = (
{
closed = 1;
nodes = (
"535 -10 OFFCURVE",
"661 88 OFFCURVE",
"711 320 CURVE SMOOTH",
"719 359 OFFCURVE",
"723 394 OFFCURVE",
"723 425 CURVE SMOOTH",
"723 582 OFFCURVE",
"624 654 OFFCURVE",
"453 654 CURVE SMOOTH",
"230 654 OFFCURVE",
"104 560 OFFCURVE",
"53 320 CURVE SMOOTH",
"45 282 OFFCURVE",
"41 248 OFFCURVE",
"41 218 CURVE SMOOTH",
"41 59 OFFCURVE",
"145 -10 OFFCURVE",
"311 -10 CURVE SMOOTH"
);
},
{
closed = 1;
nodes = (
"267 150 OFFCURVE",
"234 175 OFFCURVE",
"234 239 CURVE SMOOTH",
"234 261 OFFCURVE",
"238 288 OFFCURVE",
"245 320 CURVE SMOOTH",
"273 447 OFFCURVE",
"323 494 OFFCURVE",
"419 494 CURVE SMOOTH",
"497 494 OFFCURVE",
"529 468 OFFCURVE",
"529 401 CURVE SMOOTH",
"529 379 OFFCURVE",
"526 352 OFFCURVE",
"519 320 CURVE SMOOTH",
"493 201 OFFCURVE",
"441 150 OFFCURVE",
"345 150 CURVE SMOOTH"
);
},
{
closed = 1;
nodes = (
"573 688 OFFCURVE",
"663 754 OFFCURVE",
"689 875 CURVE",
"562 875 LINE",
"552 826 OFFCURVE",
"527 791 OFFCURVE",
"476 791 CURVE SMOOTH",
"437 791 OFFCURVE",
"423 811 OFFCURVE",
"423 843 CURVE SMOOTH",
"423 852 OFFCURVE",
"425 863 OFFCURVE",
"427 875 CURVE",
"311 875 LINE",
"307 857 OFFCURVE",
"305 839 OFFCURVE",
"305 823 CURVE SMOOTH",
"305 735 OFFCURVE",
"364 688 OFFCURVE",
"459 688 CURVE SMOOTH"
);
}
);
width = 708;
}
);
leftKerningGroup = O;
note = Obreve;
rightKerningGroup = O;
unicode = 014E;
},
{
glyphname = Ocaron;
lastChange = "2015-10-24 06:29:09 +0000";
layers = (
{
layerId = "D9861EBB-D268-4716-B046-FAB51EB1D86F";
name = "Bold Italic";
paths = (
{
closed = 1;
nodes = (
"535 -10 OFFCURVE",
"661 88 OFFCURVE",
"711 320 CURVE SMOOTH",
"719 359 OFFCURVE",
"723 394 OFFCURVE",
"723 425 CURVE SMOOTH",
"723 582 OFFCURVE",
"624 654 OFFCURVE",
"453 654 CURVE SMOOTH",
"230 654 OFFCURVE",
"104 560 OFFCURVE",
"53 320 CURVE SMOOTH",
"45 282 OFFCURVE",
"41 248 OFFCURVE",
"41 218 CURVE SMOOTH",
"41 59 OFFCURVE",
"145 -10 OFFCURVE",
"311 -10 CURVE SMOOTH"
);
},
{
closed = 1;
nodes = (
"267 150 OFFCURVE",
"234 175 OFFCURVE",
"234 239 CURVE SMOOTH",
"234 261 OFFCURVE",
"238 288 OFFCURVE",
"245 320 CURVE SMOOTH",
"273 447 OFFCURVE",
"323 494 OFFCURVE",
"419 494 CURVE SMOOTH",
"497 494 OFFCURVE",
"529 468 OFFCURVE",
"529 401 CURVE SMOOTH",
"529 379 OFFCURVE",
"526 352 OFFCURVE",
"519 320 CURVE SMOOTH",
"493 201 OFFCURVE",
"441 150 OFFCURVE",
"345 150 CURVE SMOOTH"
);
},
{
closed = 1;
nodes = (
"517 688 LINE",
"714 888 LINE",
"573 888 LINE",
"474 779 LINE",
"425 888 LINE",
"291 888 LINE",
"403 688 LINE"
);
}
);
width = 708;
}
);
leftKerningGroup = O;
note = Ocaron;
rightKerningGroup = O;
unicode = 01D1;
},
{
glyphname = Ocircumflex;
lastChange = "2015-10-24 06:29:10 +0000";
layers = (
{
layerId = "D9861EBB-D268-4716-B046-FAB51EB1D86F";
name = "Bold Italic";
paths = (
{
closed = 1;
nodes = (
"535 -10 OFFCURVE",
"661 88 OFFCURVE",
"711 320 CURVE SMOOTH",
"719 359 OFFCURVE",
"723 394 OFFCURVE",
"723 425 CURVE SMOOTH",
"723 582 OFFCURVE",
"624 654 OFFCURVE",
"453 654 CURVE SMOOTH",
"230 654 OFFCURVE",
"104 560 OFFCURVE",
"53 320 CURVE SMOOTH",
"45 282 OFFCURVE",
"41 248 OFFCURVE",
"41 218 CURVE SMOOTH",
"41 59 OFFCURVE",
"145 -10 OFFCURVE",
"311 -10 CURVE SMOOTH"
);
},
{
closed = 1;
nodes = (
"267 150 OFFCURVE",
"234 175 OFFCURVE",
"234 239 CURVE SMOOTH",
"234 261 OFFCURVE",
"238 288 OFFCURVE",
"245 320 CURVE SMOOTH",
"273 447 OFFCURVE",
"323 494 OFFCURVE",
"419 494 CURVE SMOOTH",
"497 494 OFFCURVE",
"529 468 OFFCURVE",
"529 401 CURVE SMOOTH",
"529 379 OFFCURVE",
"526 352 OFFCURVE",
"519 320 CURVE SMOOTH",
"493 201 OFFCURVE",
"441 150 OFFCURVE",
"345 150 CURVE SMOOTH"
);
},
{
closed = 1;
nodes = (
"395 688 LINE",
"488 796 LINE",
"542 688 LINE",
"673 688 LINE",
"560 888 LINE",
"446 888 LINE",
"250 688 LINE"
);
}
);
width = 708;
}
);
leftKerningGroup = O;
note = Ocircumflex;
rightKerningGroup = O;
unicode = 00D4;
},
{
glyphname = Ocircumflexacute;
lastChange = "2015-10-24 06:29:09 +0000";
layers = (
{
layerId = "D9861EBB-D268-4716-B046-FAB51EB1D86F";
name = "Bold Italic";
paths = (
{
closed = 1;
nodes = (
"535 -10 OFFCURVE",
"661 88 OFFCURVE",
"711 320 CURVE SMOOTH",
"719 359 OFFCURVE",
"723 394 OFFCURVE",
"723 425 CURVE SMOOTH",
"723 582 OFFCURVE",
"624 654 OFFCURVE",
"453 654 CURVE SMOOTH",
"230 654 OFFCURVE",
"104 560 OFFCURVE",
"53 320 CURVE SMOOTH",
"45 282 OFFCURVE",
"41 248 OFFCURVE",
"41 218 CURVE SMOOTH",
"41 59 OFFCURVE",
"145 -10 OFFCURVE",
"311 -10 CURVE SMOOTH"
);
},
{
closed = 1;
nodes = (
"267 150 OFFCURVE",
"234 175 OFFCURVE",
"234 239 CURVE SMOOTH",
"234 261 OFFCURVE",
"238 288 OFFCURVE",
"245 320 CURVE SMOOTH",
"273 447 OFFCURVE",
"323 494 OFFCURVE",
"419 494 CURVE SMOOTH",
"497 494 OFFCURVE",
"529 468 OFFCURVE",
"529 401 CURVE SMOOTH",
"529 379 OFFCURVE",
"526 352 OFFCURVE",
"519 320 CURVE SMOOTH",
"493 201 OFFCURVE",
"441 150 OFFCURVE",
"345 150 CURVE SMOOTH"
);
},
{
closed = 1;
nodes = (
"397 688 LINE",
"476 767 LINE",
"521 688 LINE",
"667 688 LINE",
"558 840 LINE",
"420 840 LINE",
"245 688 LINE"
);
},
{
closed = 1;
nodes = (
"736 813 LINE",
"847 969 LINE",
"708 969 LINE",
"605 813 LINE"
);
}
);
width = 708;
}
);
leftKerningGroup = O;
note = Ocircumflexacute;
rightKerningGroup = O;
unicode = 1ED0;
},
{
glyphname = Ocircumflexdotbelow;
lastChange = "2015-10-24 06:29:10 +0000";
layers = (
{
layerId = "D9861EBB-D268-4716-B046-FAB51EB1D86F";
name = "Bold Italic";
paths = (
{
closed = 1;
nodes = (
"535 -10 OFFCURVE",
"661 88 OFFCURVE",
"711 320 CURVE SMOOTH",
"719 359 OFFCURVE",
"723 394 OFFCURVE",
"723 425 CURVE SMOOTH",
"723 582 OFFCURVE",
"624 654 OFFCURVE",
"453 654 CURVE SMOOTH",
"230 654 OFFCURVE",
"104 560 OFFCURVE",
"53 320 CURVE SMOOTH",
"45 282 OFFCURVE",
"41 248 OFFCURVE",
"41 218 CURVE SMOOTH",
"41 59 OFFCURVE",
"145 -10 OFFCURVE",
"311 -10 CURVE SMOOTH"
);
},
{
closed = 1;
nodes = (
"341 -176 LINE",
"366 -56 LINE",
"236 -56 LINE",
"211 -176 LINE"
);
},
{
closed = 1;
nodes = (
"267 150 OFFCURVE",
"234 175 OFFCURVE",
"234 239 CURVE SMOOTH",
"234 261 OFFCURVE",
"238 288 OFFCURVE",
"245 320 CURVE SMOOTH",
"273 447 OFFCURVE",
"323 494 OFFCURVE",
"419 494 CURVE SMOOTH",
"497 494 OFFCURVE",
"529 468 OFFCURVE",
"529 401 CURVE SMOOTH",
"529 379 OFFCURVE",
"526 352 OFFCURVE",
"519 320 CURVE SMOOTH",
"493 201 OFFCURVE",
"441 150 OFFCURVE",
"345 150 CURVE SMOOTH"
);
},
{
closed = 1;
nodes = (
"394 688 LINE",
"487 796 LINE",
"541 688 LINE",
"672 688 LINE",
"559 888 LINE",
"445 888 LINE",
"249 688 LINE"
);
}
);
width = 708;
}
);
leftKerningGroup = O;
note = Ocircumflexdotbelow;
rightKerningGroup = O;
unicode = 1ED8;
},
{
glyphname = Ocircumflexgrave;
lastChange = "2015-10-24 06:29:08 +0000";
layers = (
{
layerId = "D9861EBB-D268-4716-B046-FAB51EB1D86F";
name = "Bold Italic";
paths = (
{
closed = 1;
nodes = (
"535 -10 OFFCURVE",
"661 88 OFFCURVE",
"711 320 CURVE SMOOTH",
"719 359 OFFCURVE",
"723 394 OFFCURVE",
"723 425 CURVE SMOOTH",
"723 582 OFFCURVE",
"624 654 OFFCURVE",
"453 654 CURVE SMOOTH",
"230 654 OFFCURVE",
"104 560 OFFCURVE",
"53 320 CURVE SMOOTH",
"45 282 OFFCURVE",
"41 248 OFFCURVE",
"41 218 CURVE SMOOTH",
"41 59 OFFCURVE",
"145 -10 OFFCURVE",
"311 -10 CURVE SMOOTH"
);
},
{
closed = 1;
nodes = (
"267 150 OFFCURVE",
"234 175 OFFCURVE",
"234 239 CURVE SMOOTH",
"234 261 OFFCURVE",
"238 288 OFFCURVE",
"245 320 CURVE SMOOTH",
"273 447 OFFCURVE",
"323 494 OFFCURVE",
"419 494 CURVE SMOOTH",
"497 494 OFFCURVE",
"529 468 OFFCURVE",
"529 401 CURVE SMOOTH",
"529 379 OFFCURVE",
"526 352 OFFCURVE",
"519 320 CURVE SMOOTH",
"493 201 OFFCURVE",
"441 150 OFFCURVE",
"345 150 CURVE SMOOTH"
);
},
{
closed = 1;
nodes = (
"368 813 LINE",
"330 969 LINE",
"191 969 LINE",
"236 813 LINE"
);
},
{
closed = 1;
nodes = (
"404 688 LINE",
"483 767 LINE",
"528 688 LINE",
"673 688 LINE",
"565 840 LINE",
"427 840 LINE",
"252 688 LINE"
);
}
);
width = 708;
}
);
leftKerningGroup = O;
note = Ocircumflexgrave;
rightKerningGroup = O;
unicode = 1ED2;
},
{
glyphname = Ocircumflexhookabove;
lastChange = "2015-10-24 06:29:08 +0000";
layers = (
{
layerId = "D9861EBB-D268-4716-B046-FAB51EB1D86F";
name = "Bold Italic";
paths = (
{
closed = 1;
nodes = (
"535 -10 OFFCURVE",
"661 88 OFFCURVE",
"711 320 CURVE SMOOTH",
"719 359 OFFCURVE",
"723 394 OFFCURVE",
"723 425 CURVE SMOOTH",
"723 582 OFFCURVE",
"624 654 OFFCURVE",
"453 654 CURVE SMOOTH",
"230 654 OFFCURVE",
"104 560 OFFCURVE",
"53 320 CURVE SMOOTH",
"45 282 OFFCURVE",
"41 248 OFFCURVE",
"41 218 CURVE SMOOTH",
"41 59 OFFCURVE",
"145 -10 OFFCURVE",
"311 -10 CURVE SMOOTH"
);
},
{
closed = 1;
nodes = (
"267 150 OFFCURVE",
"234 175 OFFCURVE",
"234 239 CURVE SMOOTH",
"234 261 OFFCURVE",
"238 288 OFFCURVE",
"245 320 CURVE SMOOTH",
"273 447 OFFCURVE",
"323 494 OFFCURVE",
"419 494 CURVE SMOOTH",
"497 494 OFFCURVE",
"529 468 OFFCURVE",
"529 401 CURVE SMOOTH",
"529 379 OFFCURVE",
"526 352 OFFCURVE",
"519 320 CURVE SMOOTH",
"493 201 OFFCURVE",
"441 150 OFFCURVE",
"345 150 CURVE SMOOTH"
);
},
{
closed = 1;
nodes = (
"402 688 LINE",
"481 767 LINE",
"526 688 LINE",
"671 688 LINE",
"563 840 LINE",
"425 840 LINE",
"250 688 LINE"
);
},
{
closed = 1;
nodes = (
"739 790 LINE",
"746 823 LINE",
"798 831 OFFCURVE",
"827 862 OFFCURVE",
"837 907 CURVE SMOOTH",
"838 914 OFFCURVE",
"839 920 OFFCURVE",
"839 926 CURVE SMOOTH",
"839 968 OFFCURVE",
"806 993 OFFCURVE",
"735 993 CURVE SMOOTH",
"696 993 OFFCURVE",
"660 988 OFFCURVE",
"635 981 CURVE",
"619 909 LINE",
"635 913 OFFCURVE",
"653 916 OFFCURVE",
"671 916 CURVE SMOOTH",
"697 916 OFFCURVE",
"711 910 OFFCURVE",
"708 894 CURVE",
"704 877 OFFCURVE",
"689 864 OFFCURVE",
"630 863 CURVE",
"615 790 LINE"
);
}
);
width = 708;
}
);
leftKerningGroup = O;
note = Ocircumflexhookabove;
rightKerningGroup = O;
unicode = 1ED4;
},
{
glyphname = Ocircumflextilde;
lastChange = "2015-10-24 06:29:09 +0000";
layers = (
{
layerId = "D9861EBB-D268-4716-B046-FAB51EB1D86F";
name = "Bold Italic";
paths = (
{
closed = 1;
nodes = (
"535 -10 OFFCURVE",
"661 88 OFFCURVE",
"711 320 CURVE SMOOTH",
"719 359 OFFCURVE",
"723 394 OFFCURVE",
"723 425 CURVE SMOOTH",
"723 582 OFFCURVE",
"624 654 OFFCURVE",
"453 654 CURVE SMOOTH",
"230 654 OFFCURVE",
"104 560 OFFCURVE",
"53 320 CURVE SMOOTH",
"45 282 OFFCURVE",
"41 248 OFFCURVE",
"41 218 CURVE SMOOTH",
"41 59 OFFCURVE",
"145 -10 OFFCURVE",
"311 -10 CURVE SMOOTH"
);
},
{
closed = 1;
nodes = (
"267 150 OFFCURVE",
"234 175 OFFCURVE",
"234 239 CURVE SMOOTH",
"234 261 OFFCURVE",
"238 288 OFFCURVE",
"245 320 CURVE SMOOTH",
"273 447 OFFCURVE",
"323 494 OFFCURVE",
"419 494 CURVE SMOOTH",
"497 494 OFFCURVE",
"529 468 OFFCURVE",
"529 401 CURVE SMOOTH",
"529 379 OFFCURVE",
"526 352 OFFCURVE",
"519 320 CURVE SMOOTH",
"493 201 OFFCURVE",
"441 150 OFFCURVE",
"345 150 CURVE SMOOTH"
);
},
{
closed = 1;
nodes = (
"580 688 OFFCURVE",
"653 740 OFFCURVE",
"679 860 CURVE",
"574 860 LINE",
"564 812 OFFCURVE",
"531 780 OFFCURVE",
"481 780 CURVE SMOOTH",
"434 780 OFFCURVE",
"418 800 OFFCURVE",
"418 831 CURVE SMOOTH",
"418 840 OFFCURVE",
"419 850 OFFCURVE",
"421 860 CURVE",
"316 860 LINE",
"312 844 OFFCURVE",
"311 829 OFFCURVE",
"311 815 CURVE SMOOTH",
"311 727 OFFCURVE",
"378 688 OFFCURVE",
"461 688 CURVE SMOOTH"
);
},
{
closed = 1;
nodes = (
"635 878 OFFCURVE",
"672 893 OFFCURVE",
"687 910 CURVE",
"709 1013 LINE",
"688 990 OFFCURVE",
"654 974 OFFCURVE",
"613 974 CURVE SMOOTH",
"553 974 OFFCURVE",
"511 1015 OFFCURVE",
"446 1015 CURVE SMOOTH",
"408 1015 OFFCURVE",
"369 1001 OFFCURVE",
"347 983 CURVE",
"325 881 LINE",
"353 905 OFFCURVE",
"387 919 OFFCURVE",
"428 919 CURVE SMOOTH",
"482 919 OFFCURVE",
"533 878 OFFCURVE",
"596 878 CURVE SMOOTH"
);
}
);
width = 708;
}
);
leftKerningGroup = O;
note = Ocircumflextilde;
rightKerningGroup = O;
unicode = 1ED6;
},
{
glyphname = Odieresis;
lastChange = "2015-10-24 06:29:09 +0000";
layers = (
{
layerId = "D9861EBB-D268-4716-B046-FAB51EB1D86F";
name = "Bold Italic";
paths = (
{
closed = 1;
nodes = (
"535 -10 OFFCURVE",
"661 88 OFFCURVE",
"711 320 CURVE SMOOTH",
"719 359 OFFCURVE",
"723 394 OFFCURVE",
"723 425 CURVE SMOOTH",
"723 582 OFFCURVE",
"624 654 OFFCURVE",
"453 654 CURVE SMOOTH",
"230 654 OFFCURVE",
"104 560 OFFCURVE",
"53 320 CURVE SMOOTH",
"45 282 OFFCURVE",
"41 248 OFFCURVE",
"41 218 CURVE SMOOTH",
"41 59 OFFCURVE",
"145 -10 OFFCURVE",
"311 -10 CURVE SMOOTH"
);
},
{
closed = 1;
nodes = (
"267 150 OFFCURVE",
"234 175 OFFCURVE",
"234 239 CURVE SMOOTH",
"234 261 OFFCURVE",
"238 288 OFFCURVE",
"245 320 CURVE SMOOTH",
"273 447 OFFCURVE",
"323 494 OFFCURVE",
"419 494 CURVE SMOOTH",
"497 494 OFFCURVE",
"529 468 OFFCURVE",
"529 401 CURVE SMOOTH",
"529 379 OFFCURVE",
"526 352 OFFCURVE",
"519 320 CURVE SMOOTH",
"493 201 OFFCURVE",
"441 150 OFFCURVE",
"345 150 CURVE SMOOTH"
);
},
{
closed = 1;
nodes = (
"423 715 LINE",
"449 835 LINE",
"319 835 LINE",
"293 715 LINE"
);
},
{
closed = 1;
nodes = (
"639 715 LINE",
"665 835 LINE",
"534 835 LINE",
"508 715 LINE"
);
}
);
width = 708;
}
);
leftKerningGroup = O;
note = Odieresis;
rightKerningGroup = O;
unicode = 00D6;
},
{
glyphname = Odotbelow;
lastChange = "2015-10-24 06:29:09 +0000";
layers = (
{
layerId = "D9861EBB-D268-4716-B046-FAB51EB1D86F";
name = "Bold Italic";
paths = (
{
closed = 1;
nodes = (
"535 -10 OFFCURVE",
"661 88 OFFCURVE",
"711 320 CURVE SMOOTH",
"719 359 OFFCURVE",
"723 394 OFFCURVE",
"723 425 CURVE SMOOTH",
"723 582 OFFCURVE",
"624 654 OFFCURVE",
"453 654 CURVE SMOOTH",
"230 654 OFFCURVE",
"104 560 OFFCURVE",
"53 320 CURVE SMOOTH",
"45 282 OFFCURVE",
"41 248 OFFCURVE",
"41 218 CURVE SMOOTH",
"41 59 OFFCURVE",
"145 -10 OFFCURVE",
"311 -10 CURVE SMOOTH"
);
},
{
closed = 1;
nodes = (
"342 -176 LINE",
"367 -56 LINE",
"237 -56 LINE",
"212 -176 LINE"
);
},
{
closed = 1;
nodes = (
"267 150 OFFCURVE",
"234 175 OFFCURVE",
"234 239 CURVE SMOOTH",
"234 261 OFFCURVE",
"238 288 OFFCURVE",
"245 320 CURVE SMOOTH",
"273 447 OFFCURVE",
"323 494 OFFCURVE",
"419 494 CURVE SMOOTH",
"497 494 OFFCURVE",
"529 468 OFFCURVE",
"529 401 CURVE SMOOTH",
"529 379 OFFCURVE",
"526 352 OFFCURVE",
"519 320 CURVE SMOOTH",
"493 201 OFFCURVE",
"441 150 OFFCURVE",
"345 150 CURVE SMOOTH"
);
}
);
width = 708;
}
);
leftKerningGroup = O;
note = Odotbelow;
rightKerningGroup = O;
unicode = 1ECC;
},
{
glyphname = Ograve;
lastChange = "2015-10-24 06:29:09 +0000";
layers = (
{
layerId = "D9861EBB-D268-4716-B046-FAB51EB1D86F";
name = "Bold Italic";
paths = (
{
closed = 1;
nodes = (
"535 -10 OFFCURVE",
"661 88 OFFCURVE",
"711 320 CURVE SMOOTH",
"719 359 OFFCURVE",
"723 394 OFFCURVE",
"723 425 CURVE SMOOTH",
"723 582 OFFCURVE",
"624 654 OFFCURVE",
"453 654 CURVE SMOOTH",
"230 654 OFFCURVE",
"104 560 OFFCURVE",
"53 320 CURVE SMOOTH",
"45 282 OFFCURVE",
"41 248 OFFCURVE",
"41 218 CURVE SMOOTH",
"41 59 OFFCURVE",
"145 -10 OFFCURVE",
"311 -10 CURVE SMOOTH"
);
},
{
closed = 1;
nodes = (
"267 150 OFFCURVE",
"234 175 OFFCURVE",
"234 239 CURVE SMOOTH",
"234 261 OFFCURVE",
"238 288 OFFCURVE",
"245 320 CURVE SMOOTH",
"273 447 OFFCURVE",
"323 494 OFFCURVE",
"419 494 CURVE SMOOTH",
"497 494 OFFCURVE",
"529 468 OFFCURVE",
"529 401 CURVE SMOOTH",
"529 379 OFFCURVE",
"526 352 OFFCURVE",
"519 320 CURVE SMOOTH",
"493 201 OFFCURVE",
"441 150 OFFCURVE",
"345 150 CURVE SMOOTH"
);
},
{
closed = 1;
nodes = (
"535 688 LINE",
"491 894 LINE",
"344 894 LINE",
"397 688 LINE"
);
}
);
width = 708;
}
);
leftKerningGroup = O;
note = Ograve;
rightKerningGroup = O;
unicode = 00D2;
},
{
glyphname = Ohookabove;
lastChange = "2015-10-24 06:29:09 +0000";
layers = (
{
layerId = "D9861EBB-D268-4716-B046-FAB51EB1D86F";
name = "Bold Italic";
paths = (
{
closed = 1;
nodes = (
"535 -10 OFFCURVE",
"661 88 OFFCURVE",
"711 320 CURVE SMOOTH",
"719 359 OFFCURVE",
"723 394 OFFCURVE",
"723 425 CURVE SMOOTH",
"723 582 OFFCURVE",
"624 654 OFFCURVE",
"453 654 CURVE SMOOTH",
"230 654 OFFCURVE",
"104 560 OFFCURVE",
"53 320 CURVE SMOOTH",
"45 282 OFFCURVE",
"41 248 OFFCURVE",
"41 218 CURVE SMOOTH",
"41 59 OFFCURVE",
"145 -10 OFFCURVE",
"311 -10 CURVE SMOOTH"
);
},
{
closed = 1;
nodes = (
"267 150 OFFCURVE",
"234 175 OFFCURVE",
"234 239 CURVE SMOOTH",
"234 261 OFFCURVE",
"238 288 OFFCURVE",
"245 320 CURVE SMOOTH",
"273 447 OFFCURVE",
"323 494 OFFCURVE",
"419 494 CURVE SMOOTH",
"497 494 OFFCURVE",
"529 468 OFFCURVE",
"529 401 CURVE SMOOTH",
"529 379 OFFCURVE",
"526 352 OFFCURVE",
"519 320 CURVE SMOOTH",
"493 201 OFFCURVE",
"441 150 OFFCURVE",
"345 150 CURVE SMOOTH"
);
},
{
closed = 1;
nodes = (
"524 688 LINE",
"533 729 LINE",
"592 745 OFFCURVE",
"626 771 OFFCURVE",
"638 829 CURVE SMOOTH",
"640 836 OFFCURVE",
"640 843 OFFCURVE",
"640 850 CURVE SMOOTH",
"640 898 OFFCURVE",
"599 930 OFFCURVE",
"519 930 CURVE SMOOTH",
"471 930 OFFCURVE",
"431 925 OFFCURVE",
"401 916 CURVE",
"384 838 LINE",
"401 842 OFFCURVE",
"426 846 OFFCURVE",
"445 846 CURVE SMOOTH",
"484 846 OFFCURVE",
"503 836 OFFCURVE",
"498 813 CURVE SMOOTH",
"493 788 OFFCURVE",
"470 773 OFFCURVE",
"401 769 CURVE",
"383 688 LINE"
);
}
);
width = 708;
}
);
leftKerningGroup = O;
note = Ohookabove;
rightKerningGroup = O;
unicode = 1ECE;
},
{
glyphname = Ohorn;
lastChange = "2015-10-24 06:29:08 +0000";
layers = (
{
layerId = "D9861EBB-D268-4716-B046-FAB51EB1D86F";
name = "Bold Italic";
paths = (
{
closed = 1;
nodes = (
"535 -10 OFFCURVE",
"661 88 OFFCURVE",
"711 320 CURVE SMOOTH",
"719 358 OFFCURVE",
"723 393 OFFCURVE",
"723 424 CURVE SMOOTH",
"723 443 OFFCURVE",
"722 461 OFFCURVE",
"719 477 CURVE",
"819 497 OFFCURVE",
"873 556 OFFCURVE",
"901 688 CURVE",
"768 688 LINE",
"753 617 OFFCURVE",
"723 593 OFFCURVE",
"662 590 CURVE",
"615 633 OFFCURVE",
"544 654 OFFCURVE",
"453 654 CURVE SMOOTH",
"230 654 OFFCURVE",
"104 560 OFFCURVE",
"53 320 CURVE SMOOTH",
"45 282 OFFCURVE",
"41 248 OFFCURVE",
"41 218 CURVE SMOOTH",
"41 59 OFFCURVE",
"145 -10 OFFCURVE",
"311 -10 CURVE SMOOTH"
);
},
{
closed = 1;
nodes = (
"267 150 OFFCURVE",
"234 175 OFFCURVE",
"234 239 CURVE SMOOTH",
"234 261 OFFCURVE",
"238 288 OFFCURVE",
"245 320 CURVE SMOOTH",
"273 447 OFFCURVE",
"323 494 OFFCURVE",
"419 494 CURVE SMOOTH",
"497 494 OFFCURVE",
"529 468 OFFCURVE",
"529 401 CURVE SMOOTH",
"529 379 OFFCURVE",
"526 352 OFFCURVE",
"519 320 CURVE SMOOTH",
"493 201 OFFCURVE",
"441 150 OFFCURVE",
"345 150 CURVE SMOOTH"
);
}
);
width = 790;
}
);
leftKerningGroup = O;
note = Ohorn;
rightKerningGroup = O;
unicode = 01A0;
},
{
glyphname = Ohornacute;
lastChange = "2015-10-24 06:29:10 +0000";
layers = (
{
layerId = "D9861EBB-D268-4716-B046-FAB51EB1D86F";
name = "Bold Italic";
paths = (
{
closed = 1;
nodes = (
"535 -10 OFFCURVE",
"661 88 OFFCURVE",
"711 320 CURVE SMOOTH",
"719 358 OFFCURVE",
"723 393 OFFCURVE",
"723 424 CURVE SMOOTH",
"723 443 OFFCURVE",
"722 461 OFFCURVE",
"719 477 CURVE",
"819 497 OFFCURVE",
"873 556 OFFCURVE",
"901 688 CURVE",
"768 688 LINE",
"753 617 OFFCURVE",
"723 593 OFFCURVE",
"662 590 CURVE",
"615 633 OFFCURVE",
"544 654 OFFCURVE",
"453 654 CURVE SMOOTH",
"230 654 OFFCURVE",
"104 560 OFFCURVE",
"53 320 CURVE SMOOTH",
"45 282 OFFCURVE",
"41 248 OFFCURVE",
"41 218 CURVE SMOOTH",
"41 59 OFFCURVE",
"145 -10 OFFCURVE",
"311 -10 CURVE SMOOTH"
);
},
{
closed = 1;
nodes = (
"267 150 OFFCURVE",
"234 175 OFFCURVE",
"234 239 CURVE SMOOTH",
"234 261 OFFCURVE",
"238 288 OFFCURVE",
"245 320 CURVE SMOOTH",
"273 447 OFFCURVE",
"323 494 OFFCURVE",
"419 494 CURVE SMOOTH",
"497 494 OFFCURVE",
"529 468 OFFCURVE",
"529 401 CURVE SMOOTH",
"529 379 OFFCURVE",
"526 352 OFFCURVE",
"519 320 CURVE SMOOTH",
"493 201 OFFCURVE",
"441 150 OFFCURVE",
"345 150 CURVE SMOOTH"
);
},
{
closed = 1;
nodes = (
"523 688 LINE",
"663 894 LINE",
"517 894 LINE",
"385 688 LINE"
);
}
);
width = 790;
}
);
leftKerningGroup = O;
note = Ohornacute;
rightKerningGroup = O;
unicode = 1EDA;
},
{
glyphname = Ohorndotbelow;
lastChange = "2015-10-24 06:29:09 +0000";
layers = (
{
layerId = "D9861EBB-D268-4716-B046-FAB51EB1D86F";
name = "Bold Italic";
paths = (
{
closed = 1;
nodes = (
"535 -10 OFFCURVE",
"661 88 OFFCURVE",
"711 320 CURVE SMOOTH",
"719 358 OFFCURVE",
"723 393 OFFCURVE",
"723 424 CURVE SMOOTH",
"723 443 OFFCURVE",
"722 461 OFFCURVE",
"719 477 CURVE",
"819 497 OFFCURVE",
"873 556 OFFCURVE",
"901 688 CURVE",
"768 688 LINE",
"753 617 OFFCURVE",
"723 593 OFFCURVE",
"662 590 CURVE",
"615 633 OFFCURVE",
"544 654 OFFCURVE",
"453 654 CURVE SMOOTH",
"230 654 OFFCURVE",
"104 560 OFFCURVE",
"53 320 CURVE SMOOTH",
"45 282 OFFCURVE",
"41 248 OFFCURVE",
"41 218 CURVE SMOOTH",
"41 59 OFFCURVE",
"145 -10 OFFCURVE",
"311 -10 CURVE SMOOTH"
);
},
{
closed = 1;
nodes = (
"341 -176 LINE",
"366 -56 LINE",
"236 -56 LINE",
"211 -176 LINE"
);
},
{
closed = 1;
nodes = (
"267 150 OFFCURVE",
"234 175 OFFCURVE",
"234 239 CURVE SMOOTH",
"234 261 OFFCURVE",
"238 288 OFFCURVE",
"245 320 CURVE SMOOTH",
"273 447 OFFCURVE",
"323 494 OFFCURVE",
"419 494 CURVE SMOOTH",
"497 494 OFFCURVE",
"529 468 OFFCURVE",
"529 401 CURVE SMOOTH",
"529 379 OFFCURVE",
"526 352 OFFCURVE",
"519 320 CURVE SMOOTH",
"493 201 OFFCURVE",
"441 150 OFFCURVE",
"345 150 CURVE SMOOTH"
);
}
);
width = 790;
}
);
leftKerningGroup = O;
note = Ohorndotbelow;
rightKerningGroup = O;
unicode = 1EE2;
},
{
glyphname = Ohorngrave;
lastChange = "2015-10-24 06:29:10 +0000";
layers = (
{
layerId = "D9861EBB-D268-4716-B046-FAB51EB1D86F";
name = "Bold Italic";
paths = (
{
closed = 1;
nodes = (
"535 -10 OFFCURVE",
"661 88 OFFCURVE",
"711 320 CURVE SMOOTH",
"719 358 OFFCURVE",
"723 393 OFFCURVE",
"723 424 CURVE SMOOTH",
"723 443 OFFCURVE",
"722 461 OFFCURVE",
"719 477 CURVE",
"819 497 OFFCURVE",
"873 556 OFFCURVE",
"901 688 CURVE",
"768 688 LINE",
"753 617 OFFCURVE",
"723 593 OFFCURVE",
"662 590 CURVE",
"615 633 OFFCURVE",
"544 654 OFFCURVE",
"453 654 CURVE SMOOTH",
"230 654 OFFCURVE",
"104 560 OFFCURVE",
"53 320 CURVE SMOOTH",
"45 282 OFFCURVE",
"41 248 OFFCURVE",
"41 218 CURVE SMOOTH",
"41 59 OFFCURVE",
"145 -10 OFFCURVE",
"311 -10 CURVE SMOOTH"
);
},
{
closed = 1;
nodes = (
"267 150 OFFCURVE",
"234 175 OFFCURVE",
"234 239 CURVE SMOOTH",
"234 261 OFFCURVE",
"238 288 OFFCURVE",
"245 320 CURVE SMOOTH",
"273 447 OFFCURVE",
"323 494 OFFCURVE",
"419 494 CURVE SMOOTH",
"497 494 OFFCURVE",
"529 468 OFFCURVE",
"529 401 CURVE SMOOTH",
"529 379 OFFCURVE",
"526 352 OFFCURVE",
"519 320 CURVE SMOOTH",
"493 201 OFFCURVE",
"441 150 OFFCURVE",
"345 150 CURVE SMOOTH"
);
},
{
closed = 1;
nodes = (
"537 688 LINE",
"493 894 LINE",
"346 894 LINE",
"399 688 LINE"
);
}
);
width = 790;
}
);
leftKerningGroup = O;
note = Ohorngrave;
rightKerningGroup = O;
unicode = 1EDC;
},
{
glyphname = Ohornhookabove;
lastChange = "2015-10-24 06:29:08 +0000";
layers = (
{
layerId = "D9861EBB-D268-4716-B046-FAB51EB1D86F";
name = "Bold Italic";
paths = (
{
closed = 1;
nodes = (
"535 -10 OFFCURVE",
"661 88 OFFCURVE",
"711 320 CURVE SMOOTH",
"719 358 OFFCURVE",
"723 393 OFFCURVE",
"723 424 CURVE SMOOTH",
"723 443 OFFCURVE",
"722 461 OFFCURVE",
"719 477 CURVE",
"819 497 OFFCURVE",
"873 556 OFFCURVE",
"901 688 CURVE",
"768 688 LINE",
"753 617 OFFCURVE",
"723 593 OFFCURVE",
"662 590 CURVE",
"615 633 OFFCURVE",
"544 654 OFFCURVE",
"453 654 CURVE SMOOTH",
"230 654 OFFCURVE",
"104 560 OFFCURVE",
"53 320 CURVE SMOOTH",
"45 282 OFFCURVE",
"41 248 OFFCURVE",
"41 218 CURVE SMOOTH",
"41 59 OFFCURVE",
"145 -10 OFFCURVE",
"311 -10 CURVE SMOOTH"
);
},
{
closed = 1;
nodes = (
"267 150 OFFCURVE",
"234 175 OFFCURVE",
"234 239 CURVE SMOOTH",
"234 261 OFFCURVE",
"238 288 OFFCURVE",
"245 320 CURVE SMOOTH",
"273 447 OFFCURVE",
"323 494 OFFCURVE",
"419 494 CURVE SMOOTH",
"497 494 OFFCURVE",
"529 468 OFFCURVE",
"529 401 CURVE SMOOTH",
"529 379 OFFCURVE",
"526 352 OFFCURVE",
"519 320 CURVE SMOOTH",
"493 201 OFFCURVE",
"441 150 OFFCURVE",
"345 150 CURVE SMOOTH"
);
},
{
closed = 1;
nodes = (
"527 688 LINE",
"536 729 LINE",
"595 745 OFFCURVE",
"629 771 OFFCURVE",
"641 829 CURVE SMOOTH",
"643 836 OFFCURVE",
"643 843 OFFCURVE",
"643 850 CURVE SMOOTH",
"643 898 OFFCURVE",
"602 930 OFFCURVE",
"522 930 CURVE SMOOTH",
"474 930 OFFCURVE",
"434 925 OFFCURVE",
"404 916 CURVE",
"387 838 LINE",
"404 842 OFFCURVE",
"429 846 OFFCURVE",
"448 846 CURVE SMOOTH",
"487 846 OFFCURVE",
"506 836 OFFCURVE",
"501 813 CURVE SMOOTH",
"496 788 OFFCURVE",
"473 773 OFFCURVE",
"404 769 CURVE",
"386 688 LINE"
);
}
);
width = 790;
}
);
leftKerningGroup = O;
note = Ohornhookabove;
rightKerningGroup = O;
unicode = 1EDE;
},
{
glyphname = Ohorntilde;
lastChange = "2015-10-24 06:29:10 +0000";
layers = (
{
layerId = "D9861EBB-D268-4716-B046-FAB51EB1D86F";
name = "Bold Italic";
paths = (
{
closed = 1;
nodes = (
"535 -10 OFFCURVE",
"661 88 OFFCURVE",
"711 320 CURVE SMOOTH",
"719 358 OFFCURVE",
"723 393 OFFCURVE",
"723 424 CURVE SMOOTH",
"723 443 OFFCURVE",
"722 461 OFFCURVE",
"719 477 CURVE",
"819 497 OFFCURVE",
"873 556 OFFCURVE",
"901 688 CURVE",
"768 688 LINE",
"753 617 OFFCURVE",
"723 593 OFFCURVE",
"662 590 CURVE",
"615 633 OFFCURVE",
"544 654 OFFCURVE",
"453 654 CURVE SMOOTH",
"230 654 OFFCURVE",
"104 560 OFFCURVE",
"53 320 CURVE SMOOTH",
"45 282 OFFCURVE",
"41 248 OFFCURVE",
"41 218 CURVE SMOOTH",
"41 59 OFFCURVE",
"145 -10 OFFCURVE",
"311 -10 CURVE SMOOTH"
);
},
{
closed = 1;
nodes = (
"267 150 OFFCURVE",
"234 175 OFFCURVE",
"234 239 CURVE SMOOTH",
"234 261 OFFCURVE",
"238 288 OFFCURVE",
"245 320 CURVE SMOOTH",
"273 447 OFFCURVE",
"323 494 OFFCURVE",
"419 494 CURVE SMOOTH",
"497 494 OFFCURVE",
"529 468 OFFCURVE",
"529 401 CURVE SMOOTH",
"529 379 OFFCURVE",
"526 352 OFFCURVE",
"519 320 CURVE SMOOTH",
"493 201 OFFCURVE",
"441 150 OFFCURVE",
"345 150 CURVE SMOOTH"
);
},
{
closed = 1;
nodes = (
"598 692 OFFCURVE",
"636 707 OFFCURVE",
"653 725 CURVE",
"678 844 LINE",
"658 821 OFFCURVE",
"622 804 OFFCURVE",
"580 804 CURVE SMOOTH",
"517 804 OFFCURVE",
"475 846 OFFCURVE",
"408 846 CURVE SMOOTH",
"369 846 OFFCURVE",
"329 831 OFFCURVE",
"306 813 CURVE",
"281 695 LINE",
"310 719 OFFCURVE",
"345 734 OFFCURVE",
"387 734 CURVE SMOOTH",
"442 734 OFFCURVE",
"493 692 OFFCURVE",
"559 692 CURVE SMOOTH"
);
}
);
width = 790;
}
);
leftKerningGroup = O;
note = Ohorntilde;
rightKerningGroup = O;
unicode = 1EE0;
},
{
glyphname = Ohungarumlaut;
lastChange = "2015-10-24 06:29:09 +0000";
layers = (
{
layerId = "D9861EBB-D268-4716-B046-FAB51EB1D86F";
name = "Bold Italic";
paths = (
{
closed = 1;
nodes = (
"535 -10 OFFCURVE",
"661 88 OFFCURVE",
"711 320 CURVE SMOOTH",
"719 359 OFFCURVE",
"723 394 OFFCURVE",
"723 425 CURVE SMOOTH",
"723 582 OFFCURVE",
"624 654 OFFCURVE",
"453 654 CURVE SMOOTH",
"230 654 OFFCURVE",
"104 560 OFFCURVE",
"53 320 CURVE SMOOTH",
"45 282 OFFCURVE",
"41 248 OFFCURVE",
"41 218 CURVE SMOOTH",
"41 59 OFFCURVE",
"145 -10 OFFCURVE",
"311 -10 CURVE SMOOTH"
);
},
{
closed = 1;
nodes = (
"267 150 OFFCURVE",
"234 175 OFFCURVE",
"234 239 CURVE SMOOTH",
"234 261 OFFCURVE",
"238 288 OFFCURVE",
"245 320 CURVE SMOOTH",
"273 447 OFFCURVE",
"323 494 OFFCURVE",
"419 494 CURVE SMOOTH",
"497 494 OFFCURVE",
"529 468 OFFCURVE",
"529 401 CURVE SMOOTH",
"529 379 OFFCURVE",
"526 352 OFFCURVE",
"519 320 CURVE SMOOTH",
"493 201 OFFCURVE",
"441 150 OFFCURVE",
"345 150 CURVE SMOOTH"
);
},
{
closed = 1;
nodes = (
"391 688 LINE",
"531 872 LINE",
"374 872 LINE",
"249 688 LINE"
);
},
{
closed = 1;
nodes = (
"624 688 LINE",
"765 872 LINE",
"607 872 LINE",
"482 688 LINE"
);
}
);
width = 708;
}
);
leftKerningGroup = O;
note = Ohungarumlaut;
rightKerningGroup = O;
unicode = 0150;
},
{
glyphname = Omacron;
lastChange = "2015-10-24 06:29:09 +0000";
layers = (
{
layerId = "D9861EBB-D268-4716-B046-FAB51EB1D86F";
name = "Bold Italic";
paths = (
{
closed = 1;
nodes = (
"535 -10 OFFCURVE",
"661 88 OFFCURVE",
"711 320 CURVE SMOOTH",
"719 359 OFFCURVE",
"723 394 OFFCURVE",
"723 425 CURVE SMOOTH",
"723 582 OFFCURVE",
"624 654 OFFCURVE",
"453 654 CURVE SMOOTH",
"230 654 OFFCURVE",
"104 560 OFFCURVE",
"53 320 CURVE SMOOTH",
"45 282 OFFCURVE",
"41 248 OFFCURVE",
"41 218 CURVE SMOOTH",
"41 59 OFFCURVE",
"145 -10 OFFCURVE",
"311 -10 CURVE SMOOTH"
);
},
{
closed = 1;
nodes = (
"267 150 OFFCURVE",
"234 175 OFFCURVE",
"234 239 CURVE SMOOTH",
"234 261 OFFCURVE",
"238 288 OFFCURVE",
"245 320 CURVE SMOOTH",
"273 447 OFFCURVE",
"323 494 OFFCURVE",
"419 494 CURVE SMOOTH",
"497 494 OFFCURVE",
"529 468 OFFCURVE",
"529 401 CURVE SMOOTH",
"529 379 OFFCURVE",
"526 352 OFFCURVE",
"519 320 CURVE SMOOTH",
"493 201 OFFCURVE",
"441 150 OFFCURVE",
"345 150 CURVE SMOOTH"
);
},
{
closed = 1;
nodes = (
"630 725 LINE",
"654 837 LINE",
"327 837 LINE",
"303 725 LINE"
);
}
);
width = 708;
}
);
leftKerningGroup = O;
note = Omacron;
rightKerningGroup = O;
unicode = 014C;
},
{
glyphname = Oslash;
lastChange = "2015-10-24 06:29:10 +0000";
layers = (
{
layerId = "D9861EBB-D268-4716-B046-FAB51EB1D86F";
name = "Bold Italic";
paths = (
{
closed = 1;
nodes = (
"201 -53 LINE",
"231 -4 LINE",
"255 -8 OFFCURVE",
"282 -10 OFFCURVE",
"311 -10 CURVE SMOOTH",
"535 -10 OFFCURVE",
"661 88 OFFCURVE",
"711 320 CURVE SMOOTH",
"719 359 OFFCURVE",
"723 394 OFFCURVE",
"723 425 CURVE SMOOTH",
"723 524 OFFCURVE",
"684 589 OFFCURVE",
"612 624 CURVE",
"654 693 LINE",
"552 693 LINE",
"525 649 LINE",
"503 652 OFFCURVE",
"479 654 OFFCURVE",
"453 654 CURVE SMOOTH",
"230 654 OFFCURVE",
"104 560 OFFCURVE",
"53 320 CURVE SMOOTH",
"45 282 OFFCURVE",
"41 248 OFFCURVE",
"41 217 CURVE SMOOTH",
"41 121 OFFCURVE",
"79 59 OFFCURVE",
"145 24 CURVE",
"99 -53 LINE"
);
},
{
closed = 1;
nodes = (
"237 201 OFFCURVE",
"234 218 OFFCURVE",
"234 238 CURVE SMOOTH",
"234 261 OFFCURVE",
"238 287 OFFCURVE",
"245 320 CURVE SMOOTH",
"273 447 OFFCURVE",
"323 494 OFFCURVE",
"419 494 CURVE SMOOTH",
"423 494 OFFCURVE",
"427 493 OFFCURVE",
"431 493 CURVE",
"245 188 LINE"
);
},
{
closed = 1;
nodes = (
"338 150 OFFCURVE",
"331 150 OFFCURVE",
"325 151 CURVE",
"513 461 LINE",
"524 446 OFFCURVE",
"529 426 OFFCURVE",
"529 400 CURVE SMOOTH",
"529 378 OFFCURVE",
"525 351 OFFCURVE",
"519 320 CURVE SMOOTH",
"493 201 OFFCURVE",
"441 150 OFFCURVE",
"345 150 CURVE SMOOTH"
);
}
);
width = 708;
}
);
leftKerningGroup = O;
note = Oslash;
rightKerningGroup = O;
unicode = 00D8;
},
{
glyphname = Oslashacute;
lastChange = "2015-10-24 06:29:09 +0000";
layers = (
{
layerId = "D9861EBB-D268-4716-B046-FAB51EB1D86F";
name = "Bold Italic";
paths = (
{
closed = 1;
nodes = (
"201 -53 LINE",
"231 -4 LINE",
"255 -8 OFFCURVE",
"282 -10 OFFCURVE",
"311 -10 CURVE SMOOTH",
"535 -10 OFFCURVE",
"661 88 OFFCURVE",
"711 320 CURVE SMOOTH",
"719 359 OFFCURVE",
"723 394 OFFCURVE",
"723 425 CURVE SMOOTH",
"723 524 OFFCURVE",
"684 589 OFFCURVE",
"612 624 CURVE",
"654 693 LINE",
"552 693 LINE",
"525 649 LINE",
"503 652 OFFCURVE",
"479 654 OFFCURVE",
"453 654 CURVE SMOOTH",
"230 654 OFFCURVE",
"104 560 OFFCURVE",
"53 320 CURVE SMOOTH",
"45 282 OFFCURVE",
"41 248 OFFCURVE",
"41 217 CURVE SMOOTH",
"41 121 OFFCURVE",
"79 59 OFFCURVE",
"145 24 CURVE",
"99 -53 LINE"
);
},
{
closed = 1;
nodes = (
"237 201 OFFCURVE",
"234 218 OFFCURVE",
"234 238 CURVE SMOOTH",
"234 261 OFFCURVE",
"238 287 OFFCURVE",
"245 320 CURVE SMOOTH",
"273 447 OFFCURVE",
"323 494 OFFCURVE",
"419 494 CURVE SMOOTH",
"423 494 OFFCURVE",
"427 493 OFFCURVE",
"431 493 CURVE",
"245 188 LINE"
);
},
{
closed = 1;
nodes = (
"338 150 OFFCURVE",
"331 150 OFFCURVE",
"325 151 CURVE",
"513 461 LINE",
"524 446 OFFCURVE",
"529 426 OFFCURVE",
"529 400 CURVE SMOOTH",
"529 378 OFFCURVE",
"525 351 OFFCURVE",
"519 320 CURVE SMOOTH",
"493 201 OFFCURVE",
"441 150 OFFCURVE",
"345 150 CURVE SMOOTH"
);
},
{
closed = 1;
nodes = (
"490 688 LINE",
"630 894 LINE",
"484 894 LINE",
"352 688 LINE"
);
}
);
width = 708;
}
);
leftKerningGroup = O;
note = Oslashacute;
rightKerningGroup = O;
unicode = 01FE;
},
{
glyphname = Otilde;
lastChange = "2015-10-24 06:29:08 +0000";
layers = (
{
layerId = "D9861EBB-D268-4716-B046-FAB51EB1D86F";
name = "Bold Italic";
paths = (
{
closed = 1;
nodes = (
"535 -10 OFFCURVE",
"661 88 OFFCURVE",
"711 320 CURVE SMOOTH",
"719 359 OFFCURVE",
"723 394 OFFCURVE",
"723 425 CURVE SMOOTH",
"723 582 OFFCURVE",
"624 654 OFFCURVE",
"453 654 CURVE SMOOTH",
"230 654 OFFCURVE",
"104 560 OFFCURVE",
"53 320 CURVE SMOOTH",
"45 282 OFFCURVE",
"41 248 OFFCURVE",
"41 218 CURVE SMOOTH",
"41 59 OFFCURVE",
"145 -10 OFFCURVE",
"311 -10 CURVE SMOOTH"
);
},
{
closed = 1;
nodes = (
"267 150 OFFCURVE",
"234 175 OFFCURVE",
"234 239 CURVE SMOOTH",
"234 261 OFFCURVE",
"238 288 OFFCURVE",
"245 320 CURVE SMOOTH",
"273 447 OFFCURVE",
"323 494 OFFCURVE",
"419 494 CURVE SMOOTH",
"497 494 OFFCURVE",
"529 468 OFFCURVE",
"529 401 CURVE SMOOTH",
"529 379 OFFCURVE",
"526 352 OFFCURVE",
"519 320 CURVE SMOOTH",
"493 201 OFFCURVE",
"441 150 OFFCURVE",
"345 150 CURVE SMOOTH"
);
},
{
closed = 1;
nodes = (
"601 711 OFFCURVE",
"639 726 OFFCURVE",
"656 744 CURVE",
"681 863 LINE",
"661 840 OFFCURVE",
"625 823 OFFCURVE",
"583 823 CURVE SMOOTH",
"520 823 OFFCURVE",
"478 865 OFFCURVE",
"411 865 CURVE SMOOTH",
"372 865 OFFCURVE",
"332 850 OFFCURVE",
"309 832 CURVE",
"284 714 LINE",
"313 738 OFFCURVE",
"348 753 OFFCURVE",
"390 753 CURVE SMOOTH",
"445 753 OFFCURVE",
"496 711 OFFCURVE",
"562 711 CURVE SMOOTH"
);
}
);
width = 708;
}
);
leftKerningGroup = O;
note = Otilde;
rightKerningGroup = O;
unicode = 00D5;
},
{
glyphname = OE;
lastChange = "2015-10-24 06:29:09 +0000";
layers = (
{
layerId = "D9861EBB-D268-4716-B046-FAB51EB1D86F";
name = "Bold Italic";
paths = (
{
closed = 1;
nodes = (
"363 -10 OFFCURVE",
"421 4 OFFCURVE",
"455 21 CURVE",
"451 0 LINE",
"939 0 LINE",
"969 144 LINE",
"669 144 LINE",
"691 249 LINE",
"954 249 LINE",
"985 395 LINE",
"722 395 LINE",
"745 500 LINE",
"1045 500 LINE",
"1075 644 LINE",
"587 644 LINE",
"583 624 LINE",
"553 639 OFFCURVE",
"503 654 OFFCURVE",
"452 654 CURVE SMOOTH",
"229 654 OFFCURVE",
"103 560 OFFCURVE",
"52 320 CURVE SMOOTH",
"44 282 OFFCURVE",
"40 248 OFFCURVE",
"40 218 CURVE SMOOTH",
"40 59 OFFCURVE",
"144 -10 OFFCURVE",
"310 -10 CURVE SMOOTH"
);
},
{
closed = 1;
nodes = (
"266 150 OFFCURVE",
"233 175 OFFCURVE",
"233 239 CURVE SMOOTH",
"233 261 OFFCURVE",
"237 288 OFFCURVE",
"244 320 CURVE SMOOTH",
"272 447 OFFCURVE",
"322 494 OFFCURVE",
"418 494 CURVE SMOOTH",
"496 494 OFFCURVE",
"528 468 OFFCURVE",
"528 401 CURVE SMOOTH",
"528 379 OFFCURVE",
"525 352 OFFCURVE",
"518 320 CURVE SMOOTH",
"492 201 OFFCURVE",
"440 150 OFFCURVE",
"344 150 CURVE SMOOTH"
);
}
);
width = 1004;
}
);
leftKerningGroup = C;
note = OE;
unicode = 0152;
},
{
glyphname = P;
lastChange = "2015-10-24 06:29:10 +0000";
layers = (
{
layerId = "D9861EBB-D268-4716-B046-FAB51EB1D86F";
name = "Bold Italic";
paths = (
{
closed = 1;
nodes = (
"193 0 LINE",
"229 173 LINE",
"381 173 LINE SMOOTH",
"540 173 OFFCURVE",
"626 271 OFFCURVE",
"655 407 CURVE SMOOTH",
"659 426 OFFCURVE",
"661 444 OFFCURVE",
"661 462 CURVE SMOOTH",
"661 567 OFFCURVE",
"590 644 OFFCURVE",
"459 644 CURVE SMOOTH",
"141 644 LINE",
"5 0 LINE"
);
},
{
closed = 1;
nodes = (
"299 500 LINE",
"401 500 LINE SMOOTH",
"450 500 OFFCURVE",
"467 479 OFFCURVE",
"467 443 CURVE SMOOTH",
"467 432 OFFCURVE",
"466 420 OFFCURVE",
"463 407 CURVE SMOOTH",
"452 354 OFFCURVE",
"425 317 OFFCURVE",
"357 317 CURVE SMOOTH",
"260 317 LINE"
);
}
);
width = 614;
}
);
note = P;
unicode = 0050;
},
{
glyphname = Thorn;
lastChange = "2015-10-24 06:29:10 +0000";
layers = (
{
layerId = "D9861EBB-D268-4716-B046-FAB51EB1D86F";
name = "Bold Italic";
paths = (
{
closed = 1;
nodes = (
"193 0 LINE",
"212 90 LINE",
"352 90 LINE SMOOTH",
"514 90 OFFCURVE",
"614 184 OFFCURVE",
"637 321 CURVE SMOOTH",
"640 336 OFFCURVE",
"641 352 OFFCURVE",
"641 366 CURVE SMOOTH",
"641 467 OFFCURVE",
"581 553 OFFCURVE",
"454 553 CURVE SMOOTH",
"310 553 LINE",
"329 644 LINE",
"141 644 LINE",
"5 0 LINE"
);
},
{
closed = 1;
nodes = (
"279 409 LINE",
"381 409 LINE SMOOTH",
"433 409 OFFCURVE",
"451 391 OFFCURVE",
"451 358 CURVE SMOOTH",
"451 347 OFFCURVE",
"449 335 OFFCURVE",
"446 321 CURVE SMOOTH",
"434 268 OFFCURVE",
"411 234 OFFCURVE",
"339 234 CURVE SMOOTH",
"242 234 LINE"
);
}
);
width = 634;
}
);
note = Thorn;
unicode = 00DE;
},
{
glyphname = Q;
lastChange = "2015-10-24 06:29:09 +0000";
layers = (
{
layerId = "D9861EBB-D268-4716-B046-FAB51EB1D86F";
name = "Bold Italic";
paths = (
{
closed = 1;
nodes = (
"417 -172 OFFCURVE",
"447 -168 OFFCURVE",
"468 -162 CURVE",
"493 -46 LINE",
"471 -52 OFFCURVE",
"448 -56 OFFCURVE",
"428 -56 CURVE SMOOTH",
"399 -56 OFFCURVE",
"387 -50 OFFCURVE",
"387 -27 CURVE SMOOTH",
"387 -21 OFFCURVE",
"388 -14 OFFCURVE",
"389 -5 CURVE",
"565 16 OFFCURVE",
"667 116 OFFCURVE",
"711 320 CURVE SMOOTH",
"719 359 OFFCURVE",
"723 394 OFFCURVE",
"723 425 CURVE SMOOTH",
"723 582 OFFCURVE",
"624 654 OFFCURVE",
"453 654 CURVE SMOOTH",
"230 654 OFFCURVE",
"104 560 OFFCURVE",
"53 320 CURVE SMOOTH",
"45 282 OFFCURVE",
"41 248 OFFCURVE",
"41 217 CURVE SMOOTH",
"41 82 OFFCURVE",
"117 12 OFFCURVE",
"242 -5 CURVE",
"239 -22 OFFCURVE",
"237 -38 OFFCURVE",
"237 -52 CURVE SMOOTH",
"237 -132 OFFCURVE",
"289 -172 OFFCURVE",
"395 -172 CURVE SMOOTH"
);
},
{
closed = 1;
nodes = (
"267 150 OFFCURVE",
"234 175 OFFCURVE",
"234 239 CURVE SMOOTH",
"234 261 OFFCURVE",
"238 288 OFFCURVE",
"245 320 CURVE SMOOTH",
"273 447 OFFCURVE",
"323 494 OFFCURVE",
"419 494 CURVE SMOOTH",
"497 494 OFFCURVE",
"529 468 OFFCURVE",
"529 401 CURVE SMOOTH",
"529 379 OFFCURVE",
"526 352 OFFCURVE",
"519 320 CURVE SMOOTH",
"493 201 OFFCURVE",
"441 150 OFFCURVE",
"345 150 CURVE SMOOTH"
);
}
);
width = 708;
}
);
leftKerningGroup = O;
note = Q;
rightKerningGroup = O;
unicode = 0051;
},
{
glyphname = R;
lastChange = "2015-10-24 06:29:08 +0000";
layers = (
{
layerId = "D9861EBB-D268-4716-B046-FAB51EB1D86F";
name = "Bold Italic";
paths = (
{
closed = 1;
nodes = (
"193 0 LINE",
"232 188 LINE",
"285 188 LINE SMOOTH",
"313 188 OFFCURVE",
"324 179 OFFCURVE",
"330 155 CURVE SMOOTH",
"366 0 LINE",
"562 0 LINE",
"523 169 LINE SMOOTH",
"516 198 OFFCURVE",
"511 213 OFFCURVE",
"498 225 CURVE",
"578 260 OFFCURVE",
"639 328 OFFCURVE",
"658 415 CURVE SMOOTH",
"662 436 OFFCURVE",
"664 455 OFFCURVE",
"664 474 CURVE SMOOTH",
"664 576 OFFCURVE",
"599 644 OFFCURVE",
"476 644 CURVE SMOOTH",
"141 644 LINE",
"5 0 LINE"
);
},
{
closed = 1;
nodes = (
"299 500 LINE",
"404 500 LINE SMOOTH",
"452 500 OFFCURVE",
"470 481 OFFCURVE",
"470 447 CURVE SMOOTH",
"470 437 OFFCURVE",
"468 427 OFFCURVE",
"466 415 CURVE SMOOTH",
"454 361 OFFCURVE",
"417 332 OFFCURVE",
"362 332 CURVE SMOOTH",
"263 332 LINE"
);
}
);
width = 635;
}
);
note = R;
rightKerningGroup = R;
unicode = 0052;
},
{
glyphname = Racute;
lastChange = "2015-10-24 06:29:09 +0000";
layers = (
{
layerId = "D9861EBB-D268-4716-B046-FAB51EB1D86F";
name = "Bold Italic";
paths = (
{
closed = 1;
nodes = (
"193 0 LINE",
"232 188 LINE",
"285 188 LINE SMOOTH",
"313 188 OFFCURVE",
"324 179 OFFCURVE",
"330 155 CURVE SMOOTH",
"366 0 LINE",
"562 0 LINE",
"523 169 LINE SMOOTH",
"516 198 OFFCURVE",
"511 213 OFFCURVE",
"498 225 CURVE",
"578 260 OFFCURVE",
"639 328 OFFCURVE",
"658 415 CURVE SMOOTH",
"662 436 OFFCURVE",
"664 455 OFFCURVE",
"664 474 CURVE SMOOTH",
"664 576 OFFCURVE",
"599 644 OFFCURVE",
"476 644 CURVE SMOOTH",
"141 644 LINE",
"5 0 LINE"
);
},
{
closed = 1;
nodes = (
"299 500 LINE",
"404 500 LINE SMOOTH",
"452 500 OFFCURVE",
"470 481 OFFCURVE",
"470 447 CURVE SMOOTH",
"470 437 OFFCURVE",
"468 427 OFFCURVE",
"466 415 CURVE SMOOTH",
"454 361 OFFCURVE",
"417 332 OFFCURVE",
"362 332 CURVE SMOOTH",
"263 332 LINE"
);
},
{
closed = 1;
nodes = (
"427 688 LINE",
"567 894 LINE",
"421 894 LINE",
"289 688 LINE"
);
}
);
width = 635;
}
);
note = Racute;
rightKerningGroup = R;
unicode = 0154;
},
{
glyphname = Rcaron;
lastChange = "2015-10-24 06:29:08 +0000";
layers = (
{
layerId = "D9861EBB-D268-4716-B046-FAB51EB1D86F";
name = "Bold Italic";
paths = (
{
closed = 1;
nodes = (
"193 0 LINE",
"232 188 LINE",
"285 188 LINE SMOOTH",
"313 188 OFFCURVE",
"324 179 OFFCURVE",
"330 155 CURVE SMOOTH",
"366 0 LINE",
"562 0 LINE",
"523 169 LINE SMOOTH",
"516 198 OFFCURVE",
"511 213 OFFCURVE",
"498 225 CURVE",
"578 260 OFFCURVE",
"639 328 OFFCURVE",
"658 415 CURVE SMOOTH",
"662 436 OFFCURVE",
"664 455 OFFCURVE",
"664 474 CURVE SMOOTH",
"664 576 OFFCURVE",
"599 644 OFFCURVE",
"476 644 CURVE SMOOTH",
"141 644 LINE",
"5 0 LINE"
);
},
{
closed = 1;
nodes = (
"299 500 LINE",
"404 500 LINE SMOOTH",
"452 500 OFFCURVE",
"470 481 OFFCURVE",
"470 447 CURVE SMOOTH",
"470 437 OFFCURVE",
"468 427 OFFCURVE",
"466 415 CURVE SMOOTH",
"454 361 OFFCURVE",
"417 332 OFFCURVE",
"362 332 CURVE SMOOTH",
"263 332 LINE"
);
},
{
closed = 1;
nodes = (
"430 688 LINE",
"627 888 LINE",
"486 888 LINE",
"387 779 LINE",
"338 888 LINE",
"204 888 LINE",
"316 688 LINE"
);
}
);
width = 635;
}
);
note = Rcaron;
rightKerningGroup = R;
unicode = 0158;
},
{
glyphname = Rcommaaccent;
lastChange = "2015-10-24 06:29:09 +0000";
layers = (
{
layerId = "D9861EBB-D268-4716-B046-FAB51EB1D86F";
name = "Bold Italic";
paths = (
{
closed = 1;
nodes = (
"193 0 LINE",
"232 188 LINE",
"285 188 LINE SMOOTH",
"313 188 OFFCURVE",
"324 179 OFFCURVE",
"330 155 CURVE SMOOTH",
"366 0 LINE",
"562 0 LINE",
"523 169 LINE SMOOTH",
"516 198 OFFCURVE",
"511 213 OFFCURVE",
"498 225 CURVE",
"578 260 OFFCURVE",
"639 328 OFFCURVE",
"658 415 CURVE SMOOTH",
"662 436 OFFCURVE",
"664 455 OFFCURVE",
"664 474 CURVE SMOOTH",
"664 576 OFFCURVE",
"599 644 OFFCURVE",
"476 644 CURVE SMOOTH",
"141 644 LINE",
"5 0 LINE"
);
},
{
closed = 1;
nodes = (
"234 -262 LINE",
"339 -37 LINE",
"186 -37 LINE",
"105 -262 LINE"
);
},
{
closed = 1;
nodes = (
"299 500 LINE",
"404 500 LINE SMOOTH",
"452 500 OFFCURVE",
"470 481 OFFCURVE",
"470 447 CURVE SMOOTH",
"470 437 OFFCURVE",
"468 427 OFFCURVE",
"466 415 CURVE SMOOTH",
"454 361 OFFCURVE",
"417 332 OFFCURVE",
"362 332 CURVE SMOOTH",
"263 332 LINE"
);
}
);
width = 635;
}
);
note = Rcommaaccent;
rightKerningGroup = R;
unicode = 0156;
},
{
glyphname = Rdotbelow;
lastChange = "2015-10-24 06:29:09 +0000";
layers = (
{
layerId = "D9861EBB-D268-4716-B046-FAB51EB1D86F";
name = "Bold Italic";
paths = (
{
closed = 1;
nodes = (
"193 0 LINE",
"232 188 LINE",
"285 188 LINE SMOOTH",
"313 188 OFFCURVE",
"324 179 OFFCURVE",
"330 155 CURVE SMOOTH",
"366 0 LINE",
"562 0 LINE",
"523 169 LINE SMOOTH",
"516 198 OFFCURVE",
"511 213 OFFCURVE",
"498 225 CURVE",
"578 260 OFFCURVE",
"639 328 OFFCURVE",
"658 415 CURVE SMOOTH",
"662 436 OFFCURVE",
"664 455 OFFCURVE",
"664 474 CURVE SMOOTH",
"664 576 OFFCURVE",
"599 644 OFFCURVE",
"476 644 CURVE SMOOTH",
"141 644 LINE",
"5 0 LINE"
);
},
{
closed = 1;
nodes = (
"286 -176 LINE",
"311 -56 LINE",
"181 -56 LINE",
"156 -176 LINE"
);
},
{
closed = 1;
nodes = (
"299 500 LINE",
"404 500 LINE SMOOTH",
"452 500 OFFCURVE",
"470 481 OFFCURVE",
"470 447 CURVE SMOOTH",
"470 437 OFFCURVE",
"468 427 OFFCURVE",
"466 415 CURVE SMOOTH",
"454 361 OFFCURVE",
"417 332 OFFCURVE",
"362 332 CURVE SMOOTH",
"263 332 LINE"
);
}
);
width = 635;
}
);
note = Rdotbelow;
rightKerningGroup = R;
unicode = 1E5A;
},
{
glyphname = Rdotbelowmacron;
lastChange = "2015-10-24 06:29:10 +0000";
layers = (
{
layerId = "D9861EBB-D268-4716-B046-FAB51EB1D86F";
name = "Bold Italic";
paths = (
{
closed = 1;
nodes = (
"193 0 LINE",
"232 188 LINE",
"285 188 LINE SMOOTH",
"313 188 OFFCURVE",
"324 179 OFFCURVE",
"330 155 CURVE SMOOTH",
"366 0 LINE",
"562 0 LINE",
"523 169 LINE SMOOTH",
"516 198 OFFCURVE",
"511 213 OFFCURVE",
"498 225 CURVE",
"578 260 OFFCURVE",
"639 328 OFFCURVE",
"658 415 CURVE SMOOTH",
"662 436 OFFCURVE",
"664 455 OFFCURVE",
"664 474 CURVE SMOOTH",
"664 576 OFFCURVE",
"599 644 OFFCURVE",
"476 644 CURVE SMOOTH",
"141 644 LINE",
"5 0 LINE"
);
},
{
closed = 1;
nodes = (
"286 -176 LINE",
"311 -56 LINE",
"181 -56 LINE",
"156 -176 LINE"
);
},
{
closed = 1;
nodes = (
"299 500 LINE",
"404 500 LINE SMOOTH",
"452 500 OFFCURVE",
"470 481 OFFCURVE",
"470 447 CURVE SMOOTH",
"470 437 OFFCURVE",
"468 427 OFFCURVE",
"466 415 CURVE SMOOTH",
"454 361 OFFCURVE",
"417 332 OFFCURVE",
"362 332 CURVE SMOOTH",
"263 332 LINE"
);
},
{
closed = 1;
nodes = (
"538 717 LINE",
"562 829 LINE",
"235 829 LINE",
"211 717 LINE"
);
}
);
width = 635;
}
);
note = Rdotbelowmacron;
rightKerningGroup = R;
unicode = 1E5C;
},
{
glyphname = Rlinebelow;
lastChange = "2015-10-24 06:29:10 +0000";
layers = (
{
layerId = "D9861EBB-D268-4716-B046-FAB51EB1D86F";
name = "Bold Italic";
paths = (
{
closed = 1;
nodes = (
"193 0 LINE",
"232 188 LINE",
"285 188 LINE SMOOTH",
"313 188 OFFCURVE",
"324 179 OFFCURVE",
"330 155 CURVE SMOOTH",
"366 0 LINE",
"562 0 LINE",
"523 169 LINE SMOOTH",
"516 198 OFFCURVE",
"511 213 OFFCURVE",
"498 225 CURVE",
"578 260 OFFCURVE",
"639 328 OFFCURVE",
"658 415 CURVE SMOOTH",
"662 436 OFFCURVE",
"664 455 OFFCURVE",
"664 474 CURVE SMOOTH",
"664 576 OFFCURVE",
"599 644 OFFCURVE",
"476 644 CURVE SMOOTH",
"141 644 LINE",
"5 0 LINE"
);
},
{
closed = 1;
nodes = (
"385 -176 LINE",
"409 -64 LINE",
"82 -64 LINE",
"58 -176 LINE"
);
},
{
closed = 1;
nodes = (
"299 500 LINE",
"404 500 LINE SMOOTH",
"452 500 OFFCURVE",
"470 481 OFFCURVE",
"470 447 CURVE SMOOTH",
"470 437 OFFCURVE",
"468 427 OFFCURVE",
"466 415 CURVE SMOOTH",
"454 361 OFFCURVE",
"417 332 OFFCURVE",
"362 332 CURVE SMOOTH",
"263 332 LINE"
);
}
);
width = 635;
}
);
note = Rlinebelow;
rightKerningGroup = R;
unicode = 1E5E;
},
{
glyphname = S;
lastChange = "2015-10-24 06:29:10 +0000";
layers = (
{
layerId = "D9861EBB-D268-4716-B046-FAB51EB1D86F";
name = "Bold Italic";
paths = (
{
closed = 1;
nodes = (
"423 -10 OFFCURVE",
"504 68 OFFCURVE",
"529 185 CURVE SMOOTH",
"533 205 OFFCURVE",
"536 224 OFFCURVE",
"536 241 CURVE SMOOTH",
"536 310 OFFCURVE",
"497 360 OFFCURVE",
"381 395 CURVE SMOOTH",
"304 419 OFFCURVE",
"273 426 OFFCURVE",
"273 452 CURVE SMOOTH",
"273 455 OFFCURVE",
"273 458 OFFCURVE",
"274 461 CURVE SMOOTH",
"283 500 OFFCURVE",
"331 504 OFFCURVE",
"390 504 CURVE SMOOTH",
"440 504 OFFCURVE",
"496 494 OFFCURVE",
"553 469 CURVE",
"586 625 LINE",
"543 640 OFFCURVE",
"463 654 OFFCURVE",
"392 654 CURVE SMOOTH",
"204 654 OFFCURVE",
"109 587 OFFCURVE",
"82 460 CURVE SMOOTH",
"78 443 OFFCURVE",
"77 428 OFFCURVE",
"77 413 CURVE SMOOTH",
"77 339 OFFCURVE",
"124 297 OFFCURVE",
"215 265 CURVE SMOOTH",
"296 237 OFFCURVE",
"338 228 OFFCURVE",
"338 195 CURVE SMOOTH",
"338 192 OFFCURVE",
"338 189 OFFCURVE",
"337 185 CURVE SMOOTH",
"328 145 OFFCURVE",
"292 138 OFFCURVE",
"226 138 CURVE SMOOTH",
"162 138 OFFCURVE",
"87 157 OFFCURVE",
"33 185 CURVE",
"0 30 LINE",
"48 4 OFFCURVE",
"126 -10 OFFCURVE",
"213 -10 CURVE SMOOTH"
);
}
);
width = 555;
}
);
leftKerningGroup = S;
note = S;
rightKerningGroup = S;
unicode = 0053;
},
{
glyphname = Sacute;
lastChange = "2015-10-24 06:29:09 +0000";
layers = (
{
layerId = "D9861EBB-D268-4716-B046-FAB51EB1D86F";
name = "Bold Italic";
paths = (
{
closed = 1;
nodes = (
"423 -10 OFFCURVE",
"504 68 OFFCURVE",
"529 185 CURVE SMOOTH",
"533 205 OFFCURVE",
"536 224 OFFCURVE",
"536 241 CURVE SMOOTH",
"536 310 OFFCURVE",
"497 360 OFFCURVE",
"381 395 CURVE SMOOTH",
"304 419 OFFCURVE",
"273 426 OFFCURVE",
"273 452 CURVE SMOOTH",
"273 455 OFFCURVE",
"273 458 OFFCURVE",
"274 461 CURVE SMOOTH",
"283 500 OFFCURVE",
"331 504 OFFCURVE",
"390 504 CURVE SMOOTH",
"440 504 OFFCURVE",
"496 494 OFFCURVE",
"553 469 CURVE",
"586 625 LINE",
"543 640 OFFCURVE",
"463 654 OFFCURVE",
"392 654 CURVE SMOOTH",
"204 654 OFFCURVE",
"109 587 OFFCURVE",
"82 460 CURVE SMOOTH",
"78 443 OFFCURVE",
"77 428 OFFCURVE",
"77 413 CURVE SMOOTH",
"77 339 OFFCURVE",
"124 297 OFFCURVE",
"215 265 CURVE SMOOTH",
"296 237 OFFCURVE",
"338 228 OFFCURVE",
"338 195 CURVE SMOOTH",
"338 192 OFFCURVE",
"338 189 OFFCURVE",
"337 185 CURVE SMOOTH",
"328 145 OFFCURVE",
"292 138 OFFCURVE",
"226 138 CURVE SMOOTH",
"162 138 OFFCURVE",
"87 157 OFFCURVE",
"33 185 CURVE",
"0 30 LINE",
"48 4 OFFCURVE",
"126 -10 OFFCURVE",
"213 -10 CURVE SMOOTH"
);
},
{
closed = 1;
nodes = (
"437 689 LINE",
"577 895 LINE",
"431 895 LINE",
"299 689 LINE"
);
}
);
width = 555;
}
);
leftKerningGroup = S;
note = Sacute;
rightKerningGroup = S;
unicode = 015A;
},
{
glyphname = Scaron;
lastChange = "2015-10-24 06:29:10 +0000";
layers = (
{
layerId = "D9861EBB-D268-4716-B046-FAB51EB1D86F";
name = "Bold Italic";
paths = (
{
closed = 1;
nodes = (
"423 -10 OFFCURVE",
"504 68 OFFCURVE",
"529 185 CURVE SMOOTH",
"533 205 OFFCURVE",
"536 224 OFFCURVE",
"536 241 CURVE SMOOTH",
"536 310 OFFCURVE",
"497 360 OFFCURVE",
"381 395 CURVE SMOOTH",
"304 419 OFFCURVE",
"273 426 OFFCURVE",
"273 452 CURVE SMOOTH",
"273 455 OFFCURVE",
"273 458 OFFCURVE",
"274 461 CURVE SMOOTH",
"283 500 OFFCURVE",
"331 504 OFFCURVE",
"390 504 CURVE SMOOTH",
"440 504 OFFCURVE",
"496 494 OFFCURVE",
"553 469 CURVE",
"586 625 LINE",
"543 640 OFFCURVE",
"463 654 OFFCURVE",
"392 654 CURVE SMOOTH",
"204 654 OFFCURVE",
"109 587 OFFCURVE",
"82 460 CURVE SMOOTH",
"78 443 OFFCURVE",
"77 428 OFFCURVE",
"77 413 CURVE SMOOTH",
"77 339 OFFCURVE",
"124 297 OFFCURVE",
"215 265 CURVE SMOOTH",
"296 237 OFFCURVE",
"338 228 OFFCURVE",
"338 195 CURVE SMOOTH",
"338 192 OFFCURVE",
"338 189 OFFCURVE",
"337 185 CURVE SMOOTH",
"328 145 OFFCURVE",
"292 138 OFFCURVE",
"226 138 CURVE SMOOTH",
"162 138 OFFCURVE",
"87 157 OFFCURVE",
"33 185 CURVE",
"0 30 LINE",
"48 4 OFFCURVE",
"126 -10 OFFCURVE",
"213 -10 CURVE SMOOTH"
);
},
{
closed = 1;
nodes = (
"432 688 LINE",
"629 888 LINE",
"488 888 LINE",
"389 779 LINE",
"340 888 LINE",
"206 888 LINE",
"318 688 LINE"
);
}
);
width = 555;
}
);
leftKerningGroup = S;
note = Scaron;
rightKerningGroup = S;
unicode = 0160;
},
{
glyphname = Scedilla;
lastChange = "2015-10-24 06:29:10 +0000";
layers = (
{
layerId = "D9861EBB-D268-4716-B046-FAB51EB1D86F";
name = "Bold Italic";
paths = (
{
closed = 1;
nodes = (
"276 -240 OFFCURVE",
"337 -201 OFFCURVE",
"351 -135 CURVE SMOOTH",
"353 -127 OFFCURVE",
"354 -119 OFFCURVE",
"354 -111 CURVE SMOOTH",
"354 -69 OFFCURVE",
"326 -41 OFFCURVE",
"259 -41 CURVE",
"279 -7 LINE",
"440 8 OFFCURVE",
"507 81 OFFCURVE",
"529 185 CURVE SMOOTH",
"533 205 OFFCURVE",
"536 224 OFFCURVE",
"536 241 CURVE SMOOTH",
"536 310 OFFCURVE",
"497 360 OFFCURVE",
"381 395 CURVE SMOOTH",
"304 419 OFFCURVE",
"273 426 OFFCURVE",
"273 452 CURVE SMOOTH",
"273 455 OFFCURVE",
"273 458 OFFCURVE",
"274 461 CURVE SMOOTH",
"283 500 OFFCURVE",
"331 504 OFFCURVE",
"390 504 CURVE SMOOTH",
"440 504 OFFCURVE",
"496 494 OFFCURVE",
"553 469 CURVE",
"586 625 LINE",
"543 640 OFFCURVE",
"463 654 OFFCURVE",
"392 654 CURVE SMOOTH",
"204 654 OFFCURVE",
"109 587 OFFCURVE",
"82 460 CURVE SMOOTH",
"78 443 OFFCURVE",
"77 428 OFFCURVE",
"77 413 CURVE SMOOTH",
"77 339 OFFCURVE",
"124 297 OFFCURVE",
"215 265 CURVE SMOOTH",
"296 237 OFFCURVE",
"338 228 OFFCURVE",
"338 195 CURVE SMOOTH",
"338 192 OFFCURVE",
"338 189 OFFCURVE",
"337 185 CURVE SMOOTH",
"328 145 OFFCURVE",
"292 138 OFFCURVE",
"226 138 CURVE SMOOTH",
"162 138 OFFCURVE",
"87 157 OFFCURVE",
"33 185 CURVE",
"0 30 LINE",
"41 8 OFFCURVE",
"104 -5 OFFCURVE",
"175 -9 CURVE",
"130 -101 LINE",
"193 -101 LINE SMOOTH",
"221 -101 OFFCURVE",
"241 -104 OFFCURVE",
"241 -124 CURVE SMOOTH",
"241 -156 OFFCURVE",
"217 -166 OFFCURVE",
"161 -166 CURVE SMOOTH",
"141 -166 OFFCURVE",
"121 -163 OFFCURVE",
"104 -158 CURVE",
"88 -232 LINE",
"102 -236 OFFCURVE",
"144 -240 OFFCURVE",
"168 -240 CURVE SMOOTH"
);
}
);
width = 555;
}
);
leftKerningGroup = S;
note = Scedilla;
rightKerningGroup = S;
unicode = 015E;
},
{
glyphname = Scircumflex;
lastChange = "2015-10-24 06:29:09 +0000";
layers = (
{
layerId = "D9861EBB-D268-4716-B046-FAB51EB1D86F";
name = "Bold Italic";
paths = (
{
closed = 1;
nodes = (
"423 -10 OFFCURVE",
"504 68 OFFCURVE",
"529 185 CURVE SMOOTH",
"533 205 OFFCURVE",
"536 224 OFFCURVE",
"536 241 CURVE SMOOTH",
"536 310 OFFCURVE",
"497 360 OFFCURVE",
"381 395 CURVE SMOOTH",
"304 419 OFFCURVE",
"273 426 OFFCURVE",
"273 452 CURVE SMOOTH",
"273 455 OFFCURVE",
"273 458 OFFCURVE",
"274 461 CURVE SMOOTH",
"283 500 OFFCURVE",
"331 504 OFFCURVE",
"390 504 CURVE SMOOTH",
"440 504 OFFCURVE",
"496 494 OFFCURVE",
"553 469 CURVE",
"586 625 LINE",
"543 640 OFFCURVE",
"463 654 OFFCURVE",
"392 654 CURVE SMOOTH",
"204 654 OFFCURVE",
"109 587 OFFCURVE",
"82 460 CURVE SMOOTH",
"78 443 OFFCURVE",
"77 428 OFFCURVE",
"77 413 CURVE SMOOTH",
"77 339 OFFCURVE",
"124 297 OFFCURVE",
"215 265 CURVE SMOOTH",
"296 237 OFFCURVE",
"338 228 OFFCURVE",
"338 195 CURVE SMOOTH",
"338 192 OFFCURVE",
"338 189 OFFCURVE",
"337 185 CURVE SMOOTH",
"328 145 OFFCURVE",
"292 138 OFFCURVE",
"226 138 CURVE SMOOTH",
"162 138 OFFCURVE",
"87 157 OFFCURVE",
"33 185 CURVE",
"0 30 LINE",
"48 4 OFFCURVE",
"126 -10 OFFCURVE",
"213 -10 CURVE SMOOTH"
);
},
{
closed = 1;
nodes = (
"304 688 LINE",
"397 796 LINE",
"451 688 LINE",
"582 688 LINE",
"469 888 LINE",
"355 888 LINE",
"159 688 LINE"
);
}
);
width = 555;
}
);
leftKerningGroup = S;
note = Scircumflex;
rightKerningGroup = S;
unicode = 015C;
},
{
glyphname = Scommaaccent;
lastChange = "2015-10-24 06:29:09 +0000";
layers = (
{
layerId = "D9861EBB-D268-4716-B046-FAB51EB1D86F";
name = "Bold Italic";
paths = (
{
closed = 1;
nodes = (
"423 -10 OFFCURVE",
"504 68 OFFCURVE",
"529 185 CURVE SMOOTH",
"533 205 OFFCURVE",
"536 224 OFFCURVE",
"536 241 CURVE SMOOTH",
"536 310 OFFCURVE",
"497 360 OFFCURVE",
"381 395 CURVE SMOOTH",
"304 419 OFFCURVE",
"273 426 OFFCURVE",
"273 452 CURVE SMOOTH",
"273 455 OFFCURVE",
"273 458 OFFCURVE",
"274 461 CURVE SMOOTH",
"283 500 OFFCURVE",
"331 504 OFFCURVE",
"390 504 CURVE SMOOTH",
"440 504 OFFCURVE",
"496 494 OFFCURVE",
"553 469 CURVE",
"586 625 LINE",
"543 640 OFFCURVE",
"463 654 OFFCURVE",
"392 654 CURVE SMOOTH",
"204 654 OFFCURVE",
"109 587 OFFCURVE",
"82 460 CURVE SMOOTH",
"78 443 OFFCURVE",
"77 428 OFFCURVE",
"77 413 CURVE SMOOTH",
"77 339 OFFCURVE",
"124 297 OFFCURVE",
"215 265 CURVE SMOOTH",
"296 237 OFFCURVE",
"338 228 OFFCURVE",
"338 195 CURVE SMOOTH",
"338 192 OFFCURVE",
"338 189 OFFCURVE",
"337 185 CURVE SMOOTH",
"328 145 OFFCURVE",
"292 138 OFFCURVE",
"226 138 CURVE SMOOTH",
"162 138 OFFCURVE",
"87 157 OFFCURVE",
"33 185 CURVE",
"0 30 LINE",
"48 4 OFFCURVE",
"126 -10 OFFCURVE",
"213 -10 CURVE SMOOTH"
);
},
{
closed = 1;
nodes = (
"223 -234 LINE",
"310 -42 LINE",
"162 -42 LINE",
"89 -234 LINE"
);
}
);
width = 555;
}
);
leftKerningGroup = S;
note = Scommaaccent;
rightKerningGroup = S;
unicode = 0218;
},
{
glyphname = Sdotaccent;
lastChange = "2015-10-24 06:29:09 +0000";
layers = (
{
layerId = "D9861EBB-D268-4716-B046-FAB51EB1D86F";
name = "Bold Italic";
paths = (
{
closed = 1;
nodes = (
"423 -10 OFFCURVE",
"504 68 OFFCURVE",
"529 185 CURVE SMOOTH",
"533 205 OFFCURVE",
"536 224 OFFCURVE",
"536 241 CURVE SMOOTH",
"536 310 OFFCURVE",
"497 360 OFFCURVE",
"381 395 CURVE SMOOTH",
"304 419 OFFCURVE",
"273 426 OFFCURVE",
"273 452 CURVE SMOOTH",
"273 455 OFFCURVE",
"273 458 OFFCURVE",
"274 461 CURVE SMOOTH",
"283 500 OFFCURVE",
"331 504 OFFCURVE",
"390 504 CURVE SMOOTH",
"440 504 OFFCURVE",
"496 494 OFFCURVE",
"553 469 CURVE",
"586 625 LINE",
"543 640 OFFCURVE",
"463 654 OFFCURVE",
"392 654 CURVE SMOOTH",
"204 654 OFFCURVE",
"109 587 OFFCURVE",
"82 460 CURVE SMOOTH",
"78 443 OFFCURVE",
"77 428 OFFCURVE",
"77 413 CURVE SMOOTH",
"77 339 OFFCURVE",
"124 297 OFFCURVE",
"215 265 CURVE SMOOTH",
"296 237 OFFCURVE",
"338 228 OFFCURVE",
"338 195 CURVE SMOOTH",
"338 192 OFFCURVE",
"338 189 OFFCURVE",
"337 185 CURVE SMOOTH",
"328 145 OFFCURVE",
"292 138 OFFCURVE",
"226 138 CURVE SMOOTH",
"162 138 OFFCURVE",
"87 157 OFFCURVE",
"33 185 CURVE",
"0 30 LINE",
"48 4 OFFCURVE",
"126 -10 OFFCURVE",
"213 -10 CURVE SMOOTH"
);
},
{
closed = 1;
nodes = (
"448 715 LINE",
"474 835 LINE",
"344 835 LINE",
"318 715 LINE"
);
}
);
width = 555;
}
);
leftKerningGroup = S;
note = Sdotaccent;
rightKerningGroup = S;
unicode = 1E60;
},
{
glyphname = Sdotbelow;
lastChange = "2015-10-24 06:29:10 +0000";
layers = (
{
layerId = "D9861EBB-D268-4716-B046-FAB51EB1D86F";
name = "Bold Italic";
paths = (
{
closed = 1;
nodes = (
"423 -10 OFFCURVE",
"504 68 OFFCURVE",
"529 185 CURVE SMOOTH",
"533 205 OFFCURVE",
"536 224 OFFCURVE",
"536 241 CURVE SMOOTH",
"536 310 OFFCURVE",
"497 360 OFFCURVE",
"381 395 CURVE SMOOTH",
"304 419 OFFCURVE",
"273 426 OFFCURVE",
"273 452 CURVE SMOOTH",
"273 455 OFFCURVE",
"273 458 OFFCURVE",
"274 461 CURVE SMOOTH",
"283 500 OFFCURVE",
"331 504 OFFCURVE",
"390 504 CURVE SMOOTH",
"440 504 OFFCURVE",
"496 494 OFFCURVE",
"553 469 CURVE",
"586 625 LINE",
"543 640 OFFCURVE",
"463 654 OFFCURVE",
"392 654 CURVE SMOOTH",
"204 654 OFFCURVE",
"109 587 OFFCURVE",
"82 460 CURVE SMOOTH",
"78 443 OFFCURVE",
"77 428 OFFCURVE",
"77 413 CURVE SMOOTH",
"77 339 OFFCURVE",
"124 297 OFFCURVE",
"215 265 CURVE SMOOTH",
"296 237 OFFCURVE",
"338 228 OFFCURVE",
"338 195 CURVE SMOOTH",
"338 192 OFFCURVE",
"338 189 OFFCURVE",
"337 185 CURVE SMOOTH",
"328 145 OFFCURVE",
"292 138 OFFCURVE",
"226 138 CURVE SMOOTH",
"162 138 OFFCURVE",
"87 157 OFFCURVE",
"33 185 CURVE",
"0 30 LINE",
"48 4 OFFCURVE",
"126 -10 OFFCURVE",
"213 -10 CURVE SMOOTH"
);
},
{
closed = 1;
nodes = (
"259 -176 LINE",
"284 -56 LINE",
"154 -56 LINE",
"129 -176 LINE"
);
}
);
width = 555;
}
);
leftKerningGroup = S;
note = Sdotbelow;
rightKerningGroup = S;
unicode = 1E62;
},
{
glyphname = Germandbls;
lastChange = "2015-10-24 06:29:09 +0000";
layers = (
{
layerId = "D9861EBB-D268-4716-B046-FAB51EB1D86F";
name = "Bold Italic";
paths = (
{
closed = 1;
nodes = (
"502 -10 OFFCURVE",
"594 58 OFFCURVE",
"612 175 CURVE SMOOTH",
"614 186 OFFCURVE",
"614 196 OFFCURVE",
"614 206 CURVE SMOOTH",
"614 274 OFFCURVE",
"575 322 OFFCURVE",
"505 322 CURVE SMOOTH",
"487 322 LINE",
"642 421 LINE",
"646 438 OFFCURVE",
"647 454 OFFCURVE",
"647 470 CURVE SMOOTH",
"647 575 OFFCURVE",
"570 654 OFFCURVE",
"418 654 CURVE SMOOTH",
"229 654 OFFCURVE",
"118 559 OFFCURVE",
"86 409 CURVE SMOOTH",
"0 0 LINE",
"177 0 LINE",
"262 401 LINE SMOOTH",
"274 459 OFFCURVE",
"312 494 OFFCURVE",
"396 494 CURVE SMOOTH",
"447 494 OFFCURVE",
"473 480 OFFCURVE",
"473 455 CURVE SMOOTH",
"473 453 OFFCURVE",
"473 450 OFFCURVE",
"472 447 CURVE",
"314 346 LINE",
"290 235 LINE",
"362 235 LINE SMOOTH",
"403 235 OFFCURVE",
"423 224 OFFCURVE",
"423 198 CURVE SMOOTH",
"423 194 OFFCURVE",
"423 190 OFFCURVE",
"422 185 CURVE SMOOTH",
"414 146 OFFCURVE",
"390 129 OFFCURVE",
"340 129 CURVE SMOOTH",
"312 129 OFFCURVE",
"278 135 OFFCURVE",
"256 145 CURVE",
"228 12 LINE",
"259 -2 OFFCURVE",
"307 -10 OFFCURVE",
"360 -10 CURVE SMOOTH"
);
}
);
width = 640;
}
);
note = uni1E9E;
unicode = 1E9E;
},
{
glyphname = Schwa;
lastChange = "2015-10-24 06:29:09 +0000";
layers = (
{
layerId = "D9861EBB-D268-4716-B046-FAB51EB1D86F";
name = "Bold Italic";
paths = (
{
closed = 1;
nodes = (
"536 -10 OFFCURVE",
"648 116 OFFCURVE",
"690 313 CURVE SMOOTH",
"696 344 OFFCURVE",
"700 372 OFFCURVE",
"700 399 CURVE SMOOTH",
"700 560 OFFCURVE",
"589 654 OFFCURVE",
"412 654 CURVE SMOOTH",
"315 654 OFFCURVE",
"215 633 OFFCURVE",
"148 609 CURVE",
"121 481 LINE",
"173 502 OFFCURVE",
"279 522 OFFCURVE",
"343 522 CURVE SMOOTH",
"485 522 OFFCURVE",
"532 501 OFFCURVE",
"532 421 CURVE SMOOTH",
"532 413 OFFCURVE",
"532 405 OFFCURVE",
"531 397 CURVE",
"69 397 LINE",
"43 277 LINE SMOOTH",
"38 252 OFFCURVE",
"35 229 OFFCURVE",
"35 207 CURVE SMOOTH",
"35 70 OFFCURVE",
"135 -10 OFFCURVE",
"295 -10 CURVE SMOOTH"
);
},
{
closed = 1;
nodes = (
"232 114 OFFCURVE",
"197 148 OFFCURVE",
"197 201 CURVE SMOOTH",
"197 211 OFFCURVE",
"199 222 OFFCURVE",
"201 234 CURVE SMOOTH",
"208 267 LINE",
"503 267 LINE",
"482 166 OFFCURVE",
"429 114 OFFCURVE",
"322 114 CURVE SMOOTH"
);
}
);
width = 689;
}
);
note = uni018F;
unicode = 018F;
},
{
glyphname = T;
lastChange = "2015-10-24 06:28:52 +0000";
layers = (
{
layerId = "D9861EBB-D268-4716-B046-FAB51EB1D86F";
name = "Bold Italic";
paths = (
{
closed = 1;
nodes = (
"334 0 LINE",
"441 504 LINE",
"622 504 LINE",
"651 644 LINE",
"101 644 LINE",
"72 504 LINE",
"253 504 LINE",
"146 0 LINE"
);
}
);
width = 560;
}
);
leftKerningGroup = T;
note = T;
rightKerningGroup = T;
unicode = 0054;
},
{
glyphname = Tbar;
lastChange = "2015-10-24 06:28:52 +0000";
layers = (
{
layerId = "D9861EBB-D268-4716-B046-FAB51EB1D86F";
name = "Bold Italic";
paths = (
{
closed = 1;
nodes = (
"334 0 LINE",
"390 266 LINE",
"487 266 LINE",
"514 392 LINE",
"417 392 LINE",
"441 504 LINE",
"622 504 LINE",
"651 644 LINE",
"101 644 LINE",
"72 504 LINE",
"253 504 LINE",
"229 392 LINE",
"132 392 LINE",
"105 266 LINE",
"202 266 LINE",
"146 0 LINE"
);
}
);
width = 560;
}
);
leftKerningGroup = T;
note = Tbar;
rightKerningGroup = T;
unicode = 0166;
},
{
glyphname = Tcaron;
lastChange = "2015-10-24 06:28:57 +0000";
layers = (
{
layerId = "D9861EBB-D268-4716-B046-FAB51EB1D86F";
name = "Bold Italic";
paths = (
{
closed = 1;
nodes = (
"334 0 LINE",
"441 504 LINE",
"622 504 LINE",
"651 644 LINE",
"101 644 LINE",
"72 504 LINE",
"253 504 LINE",
"146 0 LINE"
);
},
{
closed = 1;
nodes = (
"444 689 LINE",
"641 889 LINE",
"500 889 LINE",
"401 780 LINE",
"352 889 LINE",
"218 889 LINE",
"330 689 LINE"
);
}
);
width = 560;
}
);
leftKerningGroup = T;
note = Tcaron;
rightKerningGroup = T;
unicode = 0164;
},
{
glyphname = Tcedilla;
lastChange = "2015-10-24 06:29:09 +0000";
layers = (
{
layerId = "D9861EBB-D268-4716-B046-FAB51EB1D86F";
name = "Bold Italic";
paths = (
{
closed = 1;
nodes = (
"286 -240 OFFCURVE",
"347 -201 OFFCURVE",
"361 -135 CURVE SMOOTH",
"363 -127 OFFCURVE",
"364 -119 OFFCURVE",
"364 -111 CURVE SMOOTH",
"364 -69 OFFCURVE",
"336 -41 OFFCURVE",
"269 -41 CURVE",
"293 0 LINE",
"334 0 LINE",
"441 504 LINE",
"622 504 LINE",
"651 644 LINE",
"101 644 LINE",
"72 504 LINE",
"253 504 LINE",
"146 0 LINE",
"190 0 LINE",
"140 -101 LINE",
"203 -101 LINE SMOOTH",
"231 -101 OFFCURVE",
"251 -104 OFFCURVE",
"251 -124 CURVE SMOOTH",
"251 -156 OFFCURVE",
"227 -166 OFFCURVE",
"171 -166 CURVE SMOOTH",
"151 -166 OFFCURVE",
"131 -163 OFFCURVE",
"114 -158 CURVE",
"98 -232 LINE",
"112 -236 OFFCURVE",
"154 -240 OFFCURVE",
"178 -240 CURVE SMOOTH"
);
}
);
width = 560;
}
);
leftKerningGroup = T;
note = Tcedilla;
rightKerningGroup = T;
unicode = 0162;
},
{
glyphname = Tcommaaccent;
lastChange = "2015-10-24 06:28:56 +0000";
layers = (
{
layerId = "D9861EBB-D268-4716-B046-FAB51EB1D86F";
name = "Bold Italic";
paths = (
{
closed = 1;
nodes = (
"334 0 LINE",
"441 504 LINE",
"622 504 LINE",
"651 644 LINE",
"101 644 LINE",
"72 504 LINE",
"253 504 LINE",
"146 0 LINE"
);
},
{
closed = 1;
nodes = (
"207 -267 LINE",
"312 -42 LINE",
"159 -42 LINE",
"78 -267 LINE"
);
}
);
width = 560;
}
);
leftKerningGroup = T;
note = Tcommaaccent;
rightKerningGroup = T;
unicode = 021A;
},
{
glyphname = Tdotbelow;
lastChange = "2015-10-24 06:28:55 +0000";
layers = (
{
layerId = "D9861EBB-D268-4716-B046-FAB51EB1D86F";
name = "Bold Italic";
paths = (
{
closed = 1;
nodes = (
"334 0 LINE",
"441 504 LINE",
"622 504 LINE",
"651 644 LINE",
"101 644 LINE",
"72 504 LINE",
"253 504 LINE",
"146 0 LINE"
);
},
{
closed = 1;
nodes = (
"268 -176 LINE",
"293 -56 LINE",
"163 -56 LINE",
"138 -176 LINE"
);
}
);
width = 560;
}
);
leftKerningGroup = T;
note = Tdotbelow;
rightKerningGroup = T;
unicode = 1E6C;
},
{
glyphname = Tlinebelow;
lastChange = "2015-10-24 06:28:56 +0000";
layers = (
{
layerId = "D9861EBB-D268-4716-B046-FAB51EB1D86F";
name = "Bold Italic";
paths = (
{
closed = 1;
nodes = (
"334 0 LINE",
"441 504 LINE",
"622 504 LINE",
"651 644 LINE",
"101 644 LINE",
"72 504 LINE",
"253 504 LINE",
"146 0 LINE"
);
},
{
closed = 1;
nodes = (
"364 -176 LINE",
"388 -64 LINE",
"61 -64 LINE",
"37 -176 LINE"
);
}
);
width = 560;
}
);
leftKerningGroup = T;
note = Tlinebelow;
rightKerningGroup = T;
unicode = 1E6E;
},
{
glyphname = U;
lastChange = "2015-10-24 06:29:08 +0000";
layers = (
{
layerId = "D9861EBB-D268-4716-B046-FAB51EB1D86F";
name = "Bold Italic";
paths = (
{
closed = 1;
nodes = (
"509 -10 OFFCURVE",
"623 67 OFFCURVE",
"661 248 CURVE SMOOTH",
"745 644 LINE",
"557 644 LINE",
"477 268 LINE SMOOTH",
"459 183 OFFCURVE",
"421 150 OFFCURVE",
"336 150 CURVE SMOOTH",
"267 150 OFFCURVE",
"238 169 OFFCURVE",
"238 219 CURVE SMOOTH",
"238 233 OFFCURVE",
"240 249 OFFCURVE",
"244 268 CURVE SMOOTH",
"324 644 LINE",
"136 644 LINE",
"53 254 LINE SMOOTH",
"49 235 OFFCURVE",
"47 217 OFFCURVE",
"47 200 CURVE SMOOTH",
"47 80 OFFCURVE",
"138 -10 OFFCURVE",
"302 -10 CURVE SMOOTH"
);
}
);
width = 689;
}
);
leftKerningGroup = U;
note = U;
rightKerningGroup = U;
unicode = 0055;
},
{
glyphname = Uacute;
lastChange = "2015-10-24 06:29:08 +0000";
layers = (
{
layerId = "D9861EBB-D268-4716-B046-FAB51EB1D86F";
name = "Bold Italic";
paths = (
{
closed = 1;
nodes = (
"509 -10 OFFCURVE",
"623 67 OFFCURVE",
"661 248 CURVE SMOOTH",
"745 644 LINE",
"557 644 LINE",
"477 268 LINE SMOOTH",
"459 183 OFFCURVE",
"421 150 OFFCURVE",
"336 150 CURVE SMOOTH",
"267 150 OFFCURVE",
"238 169 OFFCURVE",
"238 219 CURVE SMOOTH",
"238 233 OFFCURVE",
"240 249 OFFCURVE",
"244 268 CURVE SMOOTH",
"324 644 LINE",
"136 644 LINE",
"53 254 LINE SMOOTH",
"49 235 OFFCURVE",
"47 217 OFFCURVE",
"47 200 CURVE SMOOTH",
"47 80 OFFCURVE",
"138 -10 OFFCURVE",
"302 -10 CURVE SMOOTH"
);
},
{
closed = 1;
nodes = (
"518 688 LINE",
"658 894 LINE",
"512 894 LINE",
"380 688 LINE"
);
}
);
width = 689;
}
);
leftKerningGroup = U;
note = Uacute;
rightKerningGroup = U;
unicode = 00DA;
},
{
glyphname = Ubreve;
lastChange = "2015-10-24 06:29:08 +0000";
layers = (
{
layerId = "D9861EBB-D268-4716-B046-FAB51EB1D86F";
name = "Bold Italic";
paths = (
{
closed = 1;
nodes = (
"509 -10 OFFCURVE",
"623 67 OFFCURVE",
"661 248 CURVE SMOOTH",
"745 644 LINE",
"557 644 LINE",
"477 268 LINE SMOOTH",
"459 183 OFFCURVE",
"421 150 OFFCURVE",
"336 150 CURVE SMOOTH",
"267 150 OFFCURVE",
"238 169 OFFCURVE",
"238 219 CURVE SMOOTH",
"238 233 OFFCURVE",
"240 249 OFFCURVE",
"244 268 CURVE SMOOTH",
"324 644 LINE",
"136 644 LINE",
"53 254 LINE SMOOTH",
"49 235 OFFCURVE",
"47 217 OFFCURVE",
"47 200 CURVE SMOOTH",
"47 80 OFFCURVE",
"138 -10 OFFCURVE",
"302 -10 CURVE SMOOTH"
);
},
{
closed = 1;
nodes = (
"563 688 OFFCURVE",
"653 754 OFFCURVE",
"679 875 CURVE",
"552 875 LINE",
"542 826 OFFCURVE",
"517 791 OFFCURVE",
"466 791 CURVE SMOOTH",
"427 791 OFFCURVE",
"413 811 OFFCURVE",
"413 843 CURVE SMOOTH",
"413 852 OFFCURVE",
"415 863 OFFCURVE",
"417 875 CURVE",
"301 875 LINE",
"297 857 OFFCURVE",
"295 839 OFFCURVE",
"295 823 CURVE SMOOTH",
"295 735 OFFCURVE",
"354 688 OFFCURVE",
"449 688 CURVE SMOOTH"
);
}
);
width = 689;
}
);
leftKerningGroup = U;
note = Ubreve;
rightKerningGroup = U;
unicode = 016C;
},
{
glyphname = Ucaron;
lastChange = "2015-10-24 06:29:09 +0000";
layers = (
{
layerId = "D9861EBB-D268-4716-B046-FAB51EB1D86F";
name = "Bold Italic";
paths = (
{
closed = 1;
nodes = (
"509 -10 OFFCURVE",
"623 67 OFFCURVE",
"661 248 CURVE SMOOTH",
"745 644 LINE",
"557 644 LINE",
"477 268 LINE SMOOTH",
"459 183 OFFCURVE",
"421 150 OFFCURVE",
"336 150 CURVE SMOOTH",
"267 150 OFFCURVE",
"238 169 OFFCURVE",
"238 219 CURVE SMOOTH",
"238 233 OFFCURVE",
"240 249 OFFCURVE",
"244 268 CURVE SMOOTH",
"324 644 LINE",
"136 644 LINE",
"53 254 LINE SMOOTH",
"49 235 OFFCURVE",
"47 217 OFFCURVE",
"47 200 CURVE SMOOTH",
"47 80 OFFCURVE",
"138 -10 OFFCURVE",
"302 -10 CURVE SMOOTH"
);
},
{
closed = 1;
nodes = (
"507 688 LINE",
"704 888 LINE",
"563 888 LINE",
"464 779 LINE",
"415 888 LINE",
"281 888 LINE",
"393 688 LINE"
);
}
);
width = 689;
}
);
leftKerningGroup = U;
note = Ucaron;
rightKerningGroup = U;
unicode = 01D3;
},
{
glyphname = Ucircumflex;
lastChange = "2015-10-24 06:29:10 +0000";
layers = (
{
layerId = "D9861EBB-D268-4716-B046-FAB51EB1D86F";
name = "Bold Italic";
paths = (
{
closed = 1;
nodes = (
"509 -10 OFFCURVE",
"623 67 OFFCURVE",
"661 248 CURVE SMOOTH",
"745 644 LINE",
"557 644 LINE",
"477 268 LINE SMOOTH",
"459 183 OFFCURVE",
"421 150 OFFCURVE",
"336 150 CURVE SMOOTH",
"267 150 OFFCURVE",
"238 169 OFFCURVE",
"238 219 CURVE SMOOTH",
"238 233 OFFCURVE",
"240 249 OFFCURVE",
"244 268 CURVE SMOOTH",
"324 644 LINE",
"136 644 LINE",
"53 254 LINE SMOOTH",
"49 235 OFFCURVE",
"47 217 OFFCURVE",
"47 200 CURVE SMOOTH",
"47 80 OFFCURVE",
"138 -10 OFFCURVE",
"302 -10 CURVE SMOOTH"
);
},
{
closed = 1;
nodes = (
"385 688 LINE",
"478 796 LINE",
"532 688 LINE",
"663 688 LINE",
"550 888 LINE",
"436 888 LINE",
"240 688 LINE"
);
}
);
width = 689;
}
);
leftKerningGroup = U;
note = Ucircumflex;
rightKerningGroup = U;
unicode = 00DB;
},
{
glyphname = Udieresis;
lastChange = "2015-10-24 06:29:08 +0000";
layers = (
{
layerId = "D9861EBB-D268-4716-B046-FAB51EB1D86F";
name = "Bold Italic";
paths = (
{
closed = 1;
nodes = (
"509 -10 OFFCURVE",
"623 67 OFFCURVE",
"661 248 CURVE SMOOTH",
"745 644 LINE",
"557 644 LINE",
"477 268 LINE SMOOTH",
"459 183 OFFCURVE",
"421 150 OFFCURVE",
"336 150 CURVE SMOOTH",
"267 150 OFFCURVE",
"238 169 OFFCURVE",
"238 219 CURVE SMOOTH",
"238 233 OFFCURVE",
"240 249 OFFCURVE",
"244 268 CURVE SMOOTH",
"324 644 LINE",
"136 644 LINE",
"53 254 LINE SMOOTH",
"49 235 OFFCURVE",
"47 217 OFFCURVE",
"47 200 CURVE SMOOTH",
"47 80 OFFCURVE",
"138 -10 OFFCURVE",
"302 -10 CURVE SMOOTH"
);
},
{
closed = 1;
nodes = (
"413 715 LINE",
"439 835 LINE",
"309 835 LINE",
"283 715 LINE"
);
},
{
closed = 1;
nodes = (
"629 715 LINE",
"655 835 LINE",
"524 835 LINE",
"498 715 LINE"
);
}
);
width = 689;
}
);
leftKerningGroup = U;
note = Udieresis;
rightKerningGroup = U;
unicode = 00DC;
},
{
glyphname = Udieresisacute;
lastChange = "2015-10-24 06:29:08 +0000";
layers = (
{
layerId = "D9861EBB-D268-4716-B046-FAB51EB1D86F";
name = "Bold Italic";
paths = (
{
closed = 1;
nodes = (
"509 -10 OFFCURVE",
"623 67 OFFCURVE",
"661 248 CURVE SMOOTH",
"745 644 LINE",
"557 644 LINE",
"477 268 LINE SMOOTH",
"459 183 OFFCURVE",
"421 150 OFFCURVE",
"336 150 CURVE SMOOTH",
"267 150 OFFCURVE",
"238 169 OFFCURVE",
"238 219 CURVE SMOOTH",
"238 233 OFFCURVE",
"240 249 OFFCURVE",
"244 268 CURVE SMOOTH",
"324 644 LINE",
"136 644 LINE",
"53 254 LINE SMOOTH",
"49 235 OFFCURVE",
"47 217 OFFCURVE",
"47 200 CURVE SMOOTH",
"47 80 OFFCURVE",
"138 -10 OFFCURVE",
"302 -10 CURVE SMOOTH"
);
},
{
closed = 1;
nodes = (
"406 692 LINE",
"430 805 LINE",
"303 805 LINE",
"279 692 LINE"
);
},
{
closed = 1;
nodes = (
"621 692 LINE",
"645 805 LINE",
"518 805 LINE",
"494 692 LINE"
);
},
{
closed = 1;
nodes = (
"539 831 LINE",
"638 968 LINE",
"498 968 LINE",
"412 831 LINE"
);
}
);
width = 689;
}
);
leftKerningGroup = U;
note = Udieresisacute;
rightKerningGroup = U;
unicode = 01D7;
},
{
glyphname = Udieresiscaron;
lastChange = "2015-10-24 06:29:09 +0000";
layers = (
{
layerId = "D9861EBB-D268-4716-B046-FAB51EB1D86F";
name = "Bold Italic";
paths = (
{
closed = 1;
nodes = (
"509 -10 OFFCURVE",
"623 67 OFFCURVE",
"661 248 CURVE SMOOTH",
"745 644 LINE",
"557 644 LINE",
"477 268 LINE SMOOTH",
"459 183 OFFCURVE",
"421 150 OFFCURVE",
"336 150 CURVE SMOOTH",
"267 150 OFFCURVE",
"238 169 OFFCURVE",
"238 219 CURVE SMOOTH",
"238 233 OFFCURVE",
"240 249 OFFCURVE",
"244 268 CURVE SMOOTH",
"324 644 LINE",
"136 644 LINE",
"53 254 LINE SMOOTH",
"49 235 OFFCURVE",
"47 217 OFFCURVE",
"47 200 CURVE SMOOTH",
"47 80 OFFCURVE",
"138 -10 OFFCURVE",
"302 -10 CURVE SMOOTH"
);
},
{
closed = 1;
nodes = (
"405 692 LINE",
"429 805 LINE",
"302 805 LINE",
"278 692 LINE"
);
},
{
closed = 1;
nodes = (
"619 692 LINE",
"643 805 LINE",
"517 805 LINE",
"493 692 LINE"
);
},
{
closed = 1;
nodes = (
"545 829 LINE",
"698 962 LINE",
"560 962 LINE",
"491 889 LINE",
"453 962 LINE",
"318 962 LINE",
"416 829 LINE"
);
}
);
width = 689;
}
);
leftKerningGroup = U;
note = Udieresiscaron;
rightKerningGroup = U;
unicode = 01D9;
},
{
glyphname = Udieresisgrave;
lastChange = "2015-10-24 06:29:10 +0000";
layers = (
{
layerId = "D9861EBB-D268-4716-B046-FAB51EB1D86F";
name = "Bold Italic";
paths = (
{
closed = 1;
nodes = (
"509 -10 OFFCURVE",
"623 67 OFFCURVE",
"661 248 CURVE SMOOTH",
"745 644 LINE",
"557 644 LINE",
"477 268 LINE SMOOTH",
"459 183 OFFCURVE",
"421 150 OFFCURVE",
"336 150 CURVE SMOOTH",
"267 150 OFFCURVE",
"238 169 OFFCURVE",
"238 219 CURVE SMOOTH",
"238 233 OFFCURVE",
"240 249 OFFCURVE",
"244 268 CURVE SMOOTH",
"324 644 LINE",
"136 644 LINE",
"53 254 LINE SMOOTH",
"49 235 OFFCURVE",
"47 217 OFFCURVE",
"47 200 CURVE SMOOTH",
"47 80 OFFCURVE",
"138 -10 OFFCURVE",
"302 -10 CURVE SMOOTH"
);
},
{
closed = 1;
nodes = (
"411 710 LINE",
"435 823 LINE",
"308 823 LINE",
"284 710 LINE"
);
},
{
closed = 1;
nodes = (
"626 710 LINE",
"650 823 LINE",
"523 823 LINE",
"499 710 LINE"
);
},
{
closed = 1;
nodes = (
"551 849 LINE",
"523 986 LINE",
"383 986 LINE",
"424 849 LINE"
);
}
);
width = 689;
}
);
leftKerningGroup = U;
note = Udieresisgrave;
rightKerningGroup = U;
unicode = 01DB;
},
{
glyphname = Udieresismacron;
lastChange = "2015-10-24 06:29:09 +0000";
layers = (
{
layerId = "D9861EBB-D268-4716-B046-FAB51EB1D86F";
name = "Bold Italic";
paths = (
{
closed = 1;
nodes = (
"509 -10 OFFCURVE",
"623 67 OFFCURVE",
"661 248 CURVE SMOOTH",
"745 644 LINE",
"557 644 LINE",
"477 268 LINE SMOOTH",
"459 183 OFFCURVE",
"421 150 OFFCURVE",
"336 150 CURVE SMOOTH",
"267 150 OFFCURVE",
"238 169 OFFCURVE",
"238 219 CURVE SMOOTH",
"238 233 OFFCURVE",
"240 249 OFFCURVE",
"244 268 CURVE SMOOTH",
"324 644 LINE",
"136 644 LINE",
"53 254 LINE SMOOTH",
"49 235 OFFCURVE",
"47 217 OFFCURVE",
"47 200 CURVE SMOOTH",
"47 80 OFFCURVE",
"138 -10 OFFCURVE",
"302 -10 CURVE SMOOTH"
);
},
{
closed = 1;
nodes = (
"410 699 LINE",
"436 819 LINE",
"306 819 LINE",
"280 699 LINE"
);
},
{
closed = 1;
nodes = (
"626 699 LINE",
"652 819 LINE",
"521 819 LINE",
"495 699 LINE"
);
},
{
closed = 1;
nodes = (
"653 873 LINE",
"677 985 LINE",
"350 985 LINE",
"326 873 LINE"
);
}
);
width = 689;
}
);
leftKerningGroup = U;
note = Udieresismacron;
rightKerningGroup = U;
unicode = 01D5;
},
{
glyphname = Udotbelow;
lastChange = "2015-10-24 06:29:09 +0000";
layers = (
{
layerId = "D9861EBB-D268-4716-B046-FAB51EB1D86F";
name = "Bold Italic";
paths = (
{
closed = 1;
nodes = (
"509 -10 OFFCURVE",
"623 67 OFFCURVE",
"661 248 CURVE SMOOTH",
"745 644 LINE",
"557 644 LINE",
"477 268 LINE SMOOTH",
"459 183 OFFCURVE",
"421 150 OFFCURVE",
"336 150 CURVE SMOOTH",
"267 150 OFFCURVE",
"238 169 OFFCURVE",
"238 219 CURVE SMOOTH",
"238 233 OFFCURVE",
"240 249 OFFCURVE",
"244 268 CURVE SMOOTH",
"324 644 LINE",
"136 644 LINE",
"53 254 LINE SMOOTH",
"49 235 OFFCURVE",
"47 217 OFFCURVE",
"47 200 CURVE SMOOTH",
"47 80 OFFCURVE",
"138 -10 OFFCURVE",
"302 -10 CURVE SMOOTH"
);
},
{
closed = 1;
nodes = (
"332 -176 LINE",
"357 -56 LINE",
"227 -56 LINE",
"202 -176 LINE"
);
}
);
width = 689;
}
);
leftKerningGroup = U;
note = Udotbelow;
rightKerningGroup = U;
unicode = 1EE4;
},
{
glyphname = Ugrave;
lastChange = "2015-10-24 06:29:09 +0000";
layers = (
{
layerId = "D9861EBB-D268-4716-B046-FAB51EB1D86F";
name = "Bold Italic";
paths = (
{
closed = 1;
nodes = (
"509 -10 OFFCURVE",
"623 67 OFFCURVE",
"661 248 CURVE SMOOTH",
"745 644 LINE",
"557 644 LINE",
"477 268 LINE SMOOTH",
"459 183 OFFCURVE",
"421 150 OFFCURVE",
"336 150 CURVE SMOOTH",
"267 150 OFFCURVE",
"238 169 OFFCURVE",
"238 219 CURVE SMOOTH",
"238 233 OFFCURVE",
"240 249 OFFCURVE",
"244 268 CURVE SMOOTH",
"324 644 LINE",
"136 644 LINE",
"53 254 LINE SMOOTH",
"49 235 OFFCURVE",
"47 217 OFFCURVE",
"47 200 CURVE SMOOTH",
"47 80 OFFCURVE",
"138 -10 OFFCURVE",
"302 -10 CURVE SMOOTH"
);
},
{
closed = 1;
nodes = (
"526 688 LINE",
"482 894 LINE",
"335 894 LINE",
"388 688 LINE"
);
}
);
width = 689;
}
);
leftKerningGroup = U;
note = Ugrave;
rightKerningGroup = U;
unicode = 00D9;
},
{
glyphname = Uhookabove;
lastChange = "2015-10-24 06:29:09 +0000";
layers = (
{
layerId = "D9861EBB-D268-4716-B046-FAB51EB1D86F";
name = "Bold Italic";
paths = (
{
closed = 1;
nodes = (
"509 -10 OFFCURVE",
"623 67 OFFCURVE",
"661 248 CURVE SMOOTH",
"745 644 LINE",
"557 644 LINE",
"477 268 LINE SMOOTH",
"459 183 OFFCURVE",
"421 150 OFFCURVE",
"336 150 CURVE SMOOTH",
"267 150 OFFCURVE",
"238 169 OFFCURVE",
"238 219 CURVE SMOOTH",
"238 233 OFFCURVE",
"240 249 OFFCURVE",
"244 268 CURVE SMOOTH",
"324 644 LINE",
"136 644 LINE",
"53 254 LINE SMOOTH",
"49 235 OFFCURVE",
"47 217 OFFCURVE",
"47 200 CURVE SMOOTH",
"47 80 OFFCURVE",
"138 -10 OFFCURVE",
"302 -10 CURVE SMOOTH"
);
},
{
closed = 1;
nodes = (
"519 688 LINE",
"528 729 LINE",
"587 745 OFFCURVE",
"621 771 OFFCURVE",
"633 829 CURVE SMOOTH",
"635 836 OFFCURVE",
"635 843 OFFCURVE",
"635 850 CURVE SMOOTH",
"635 898 OFFCURVE",
"594 930 OFFCURVE",
"514 930 CURVE SMOOTH",
"466 930 OFFCURVE",
"426 925 OFFCURVE",
"396 916 CURVE",
"379 838 LINE",
"396 842 OFFCURVE",
"421 846 OFFCURVE",
"440 846 CURVE SMOOTH",
"479 846 OFFCURVE",
"498 836 OFFCURVE",
"493 813 CURVE SMOOTH",
"488 788 OFFCURVE",
"465 773 OFFCURVE",
"396 769 CURVE",
"378 688 LINE"
);
}
);
width = 689;
}
);
leftKerningGroup = U;
note = Uhookabove;
rightKerningGroup = U;
unicode = 1EE6;
},
{
glyphname = Uhorn;
lastChange = "2015-10-24 06:29:08 +0000";
layers = (
{
layerId = "D9861EBB-D268-4716-B046-FAB51EB1D86F";
name = "Bold Italic";
paths = (
{
closed = 1;
nodes = (
"509 -10 OFFCURVE",
"623 67 OFFCURVE",
"661 248 CURVE SMOOTH",
"707 468 LINE",
"866 471 OFFCURVE",
"937 525 OFFCURVE",
"972 688 CURVE",
"839 688 LINE",
"824 617 OFFCURVE",
"796 593 OFFCURVE",
"733 590 CURVE",
"745 644 LINE",
"557 644 LINE",
"477 268 LINE SMOOTH",
"459 183 OFFCURVE",
"421 150 OFFCURVE",
"336 150 CURVE SMOOTH",
"267 150 OFFCURVE",
"238 169 OFFCURVE",
"238 219 CURVE SMOOTH",
"238 233 OFFCURVE",
"240 249 OFFCURVE",
"244 268 CURVE SMOOTH",
"324 644 LINE",
"136 644 LINE",
"53 254 LINE SMOOTH",
"49 235 OFFCURVE",
"47 217 OFFCURVE",
"47 200 CURVE SMOOTH",
"47 80 OFFCURVE",
"138 -10 OFFCURVE",
"302 -10 CURVE SMOOTH"
);
}
);
width = 871;
}
);
note = Uhorn;
unicode = 01AF;
},
{
glyphname = Uhornacute;
lastChange = "2015-10-24 06:29:10 +0000";
layers = (
{
layerId = "D9861EBB-D268-4716-B046-FAB51EB1D86F";
name = "Bold Italic";
paths = (
{
closed = 1;
nodes = (
"509 -10 OFFCURVE",
"623 67 OFFCURVE",
"661 248 CURVE SMOOTH",
"707 468 LINE",
"866 471 OFFCURVE",
"937 525 OFFCURVE",
"972 688 CURVE",
"839 688 LINE",
"824 617 OFFCURVE",
"796 593 OFFCURVE",
"733 590 CURVE",
"745 644 LINE",
"557 644 LINE",
"477 268 LINE SMOOTH",
"459 183 OFFCURVE",
"421 150 OFFCURVE",
"336 150 CURVE SMOOTH",
"267 150 OFFCURVE",
"238 169 OFFCURVE",
"238 219 CURVE SMOOTH",
"238 233 OFFCURVE",
"240 249 OFFCURVE",
"244 268 CURVE SMOOTH",
"324 644 LINE",
"136 644 LINE",
"53 254 LINE SMOOTH",
"49 235 OFFCURVE",
"47 217 OFFCURVE",
"47 200 CURVE SMOOTH",
"47 80 OFFCURVE",
"138 -10 OFFCURVE",
"302 -10 CURVE SMOOTH"
);
},
{
closed = 1;
nodes = (
"510 688 LINE",
"650 894 LINE",
"504 894 LINE",
"372 688 LINE"
);
}
);
width = 861;
}
);
leftKerningGroup = U;
note = Uhornacute;
rightKerningGroup = U;
unicode = 1EE8;
},
{
glyphname = Uhorndotbelow;
lastChange = "2015-10-24 06:29:10 +0000";
layers = (
{
layerId = "D9861EBB-D268-4716-B046-FAB51EB1D86F";
name = "Bold Italic";
paths = (
{
closed = 1;
nodes = (
"509 -10 OFFCURVE",
"623 67 OFFCURVE",
"661 248 CURVE SMOOTH",
"707 468 LINE",
"866 471 OFFCURVE",
"937 525 OFFCURVE",
"972 688 CURVE",
"839 688 LINE",
"824 617 OFFCURVE",
"796 593 OFFCURVE",
"733 590 CURVE",
"745 644 LINE",
"557 644 LINE",
"477 268 LINE SMOOTH",
"459 183 OFFCURVE",
"421 150 OFFCURVE",
"336 150 CURVE SMOOTH",
"267 150 OFFCURVE",
"238 169 OFFCURVE",
"238 219 CURVE SMOOTH",
"238 233 OFFCURVE",
"240 249 OFFCURVE",
"244 268 CURVE SMOOTH",
"324 644 LINE",
"136 644 LINE",
"53 254 LINE SMOOTH",
"49 235 OFFCURVE",
"47 217 OFFCURVE",
"47 200 CURVE SMOOTH",
"47 80 OFFCURVE",
"138 -10 OFFCURVE",
"302 -10 CURVE SMOOTH"
);
},
{
closed = 1;
nodes = (
"337 -176 LINE",
"362 -56 LINE",
"232 -56 LINE",
"207 -176 LINE"
);
}
);
width = 871;
}
);
leftKerningGroup = U;
note = Uhorndotbelow;
rightKerningGroup = U;
unicode = 1EF0;
},
{
glyphname = Uhorngrave;
lastChange = "2015-10-24 06:29:10 +0000";
layers = (
{
layerId = "D9861EBB-D268-4716-B046-FAB51EB1D86F";
name = "Bold Italic";
paths = (
{
closed = 1;
nodes = (
"509 -10 OFFCURVE",
"623 67 OFFCURVE",
"661 248 CURVE SMOOTH",
"707 468 LINE",
"866 471 OFFCURVE",
"937 525 OFFCURVE",
"972 688 CURVE",
"839 688 LINE",
"824 617 OFFCURVE",
"796 593 OFFCURVE",
"733 590 CURVE",
"745 644 LINE",
"557 644 LINE",
"477 268 LINE SMOOTH",
"459 183 OFFCURVE",
"421 150 OFFCURVE",
"336 150 CURVE SMOOTH",
"267 150 OFFCURVE",
"238 169 OFFCURVE",
"238 219 CURVE SMOOTH",
"238 233 OFFCURVE",
"240 249 OFFCURVE",
"244 268 CURVE SMOOTH",
"324 644 LINE",
"136 644 LINE",
"53 254 LINE SMOOTH",
"49 235 OFFCURVE",
"47 217 OFFCURVE",
"47 200 CURVE SMOOTH",
"47 80 OFFCURVE",
"138 -10 OFFCURVE",
"302 -10 CURVE SMOOTH"
);
},
{
closed = 1;
nodes = (
"525 688 LINE",
"481 894 LINE",
"334 894 LINE",
"387 688 LINE"
);
}
);
width = 861;
}
);
leftKerningGroup = U;
note = Uhorngrave;
rightKerningGroup = U;
unicode = 1EEA;
},
{
glyphname = Uhornhookabove;
lastChange = "2015-10-24 06:29:08 +0000";
layers = (
{
layerId = "D9861EBB-D268-4716-B046-FAB51EB1D86F";
name = "Bold Italic";
paths = (
{
closed = 1;
nodes = (
"509 -10 OFFCURVE",
"623 67 OFFCURVE",
"661 248 CURVE SMOOTH",
"707 468 LINE",
"866 471 OFFCURVE",
"937 525 OFFCURVE",
"972 688 CURVE",
"839 688 LINE",
"824 617 OFFCURVE",
"796 593 OFFCURVE",
"733 590 CURVE",
"745 644 LINE",
"557 644 LINE",
"477 268 LINE SMOOTH",
"459 183 OFFCURVE",
"421 150 OFFCURVE",
"336 150 CURVE SMOOTH",
"267 150 OFFCURVE",
"238 169 OFFCURVE",
"238 219 CURVE SMOOTH",
"238 233 OFFCURVE",
"240 249 OFFCURVE",
"244 268 CURVE SMOOTH",
"324 644 LINE",
"136 644 LINE",
"53 254 LINE SMOOTH",
"49 235 OFFCURVE",
"47 217 OFFCURVE",
"47 200 CURVE SMOOTH",
"47 80 OFFCURVE",
"138 -10 OFFCURVE",
"302 -10 CURVE SMOOTH"
);
},
{
closed = 1;
nodes = (
"490 687 LINE",
"499 728 LINE",
"558 744 OFFCURVE",
"592 770 OFFCURVE",
"604 828 CURVE SMOOTH",
"606 835 OFFCURVE",
"606 842 OFFCURVE",
"606 849 CURVE SMOOTH",
"606 897 OFFCURVE",
"565 929 OFFCURVE",
"485 929 CURVE SMOOTH",
"437 929 OFFCURVE",
"397 924 OFFCURVE",
"367 915 CURVE",
"350 837 LINE",
"367 841 OFFCURVE",
"392 845 OFFCURVE",
"411 845 CURVE SMOOTH",
"450 845 OFFCURVE",
"469 835 OFFCURVE",
"464 812 CURVE SMOOTH",
"459 787 OFFCURVE",
"436 772 OFFCURVE",
"367 768 CURVE",
"349 687 LINE"
);
}
);
width = 861;
}
);
leftKerningGroup = U;
note = Uhornhookabove;
rightKerningGroup = U;
unicode = 1EEC;
},
{
glyphname = Uhorntilde;
lastChange = "2015-10-24 06:29:10 +0000";
layers = (
{
layerId = "D9861EBB-D268-4716-B046-FAB51EB1D86F";
name = "Bold Italic";
paths = (
{
closed = 1;
nodes = (
"509 -10 OFFCURVE",
"623 67 OFFCURVE",
"661 248 CURVE SMOOTH",
"707 468 LINE",
"866 471 OFFCURVE",
"937 525 OFFCURVE",
"972 688 CURVE",
"839 688 LINE",
"824 617 OFFCURVE",
"796 593 OFFCURVE",
"733 590 CURVE",
"745 644 LINE",
"557 644 LINE",
"477 268 LINE SMOOTH",
"459 183 OFFCURVE",
"421 150 OFFCURVE",
"336 150 CURVE SMOOTH",
"267 150 OFFCURVE",
"238 169 OFFCURVE",
"238 219 CURVE SMOOTH",
"238 233 OFFCURVE",
"240 249 OFFCURVE",
"244 268 CURVE SMOOTH",
"324 644 LINE",
"136 644 LINE",
"53 254 LINE SMOOTH",
"49 235 OFFCURVE",
"47 217 OFFCURVE",
"47 200 CURVE SMOOTH",
"47 80 OFFCURVE",
"138 -10 OFFCURVE",
"302 -10 CURVE SMOOTH"
);
},
{
closed = 1;
nodes = (
"591 692 OFFCURVE",
"629 707 OFFCURVE",
"646 725 CURVE",
"671 844 LINE",
"651 821 OFFCURVE",
"615 804 OFFCURVE",
"573 804 CURVE SMOOTH",
"510 804 OFFCURVE",
"468 846 OFFCURVE",
"401 846 CURVE SMOOTH",
"362 846 OFFCURVE",
"322 831 OFFCURVE",
"299 813 CURVE",
"274 695 LINE",
"303 719 OFFCURVE",
"338 734 OFFCURVE",
"380 734 CURVE SMOOTH",
"435 734 OFFCURVE",
"486 692 OFFCURVE",
"552 692 CURVE SMOOTH"
);
}
);
width = 871;
}
);
leftKerningGroup = U;
note = Uhorntilde;
rightKerningGroup = U;
unicode = 1EEE;
},
{
glyphname = Uhungarumlaut;
lastChange = "2015-10-24 06:29:10 +0000";
layers = (
{
layerId = "D9861EBB-D268-4716-B046-FAB51EB1D86F";
name = "Bold Italic";
paths = (
{
closed = 1;
nodes = (
"509 -10 OFFCURVE",
"623 67 OFFCURVE",
"661 248 CURVE SMOOTH",
"745 644 LINE",
"557 644 LINE",
"477 268 LINE SMOOTH",
"459 183 OFFCURVE",
"421 150 OFFCURVE",
"336 150 CURVE SMOOTH",
"267 150 OFFCURVE",
"238 169 OFFCURVE",
"238 219 CURVE SMOOTH",
"238 233 OFFCURVE",
"240 249 OFFCURVE",
"244 268 CURVE SMOOTH",
"324 644 LINE",
"136 644 LINE",
"53 254 LINE SMOOTH",
"49 235 OFFCURVE",
"47 217 OFFCURVE",
"47 200 CURVE SMOOTH",
"47 80 OFFCURVE",
"138 -10 OFFCURVE",
"302 -10 CURVE SMOOTH"
);
},
{
closed = 1;
nodes = (
"382 688 LINE",
"522 872 LINE",
"365 872 LINE",
"240 688 LINE"
);
},
{
closed = 1;
nodes = (
"615 688 LINE",
"756 872 LINE",
"598 872 LINE",
"473 688 LINE"
);
}
);
width = 689;
}
);
leftKerningGroup = U;
note = Uhungarumlaut;
rightKerningGroup = U;
unicode = 0170;
},
{
glyphname = Umacron;
lastChange = "2015-10-24 06:29:10 +0000";
layers = (
{
layerId = "D9861EBB-D268-4716-B046-FAB51EB1D86F";
name = "Bold Italic";
paths = (
{
closed = 1;
nodes = (
"509 -10 OFFCURVE",
"623 67 OFFCURVE",
"661 248 CURVE SMOOTH",
"745 644 LINE",
"557 644 LINE",
"477 268 LINE SMOOTH",
"459 183 OFFCURVE",
"421 150 OFFCURVE",
"336 150 CURVE SMOOTH",
"267 150 OFFCURVE",
"238 169 OFFCURVE",
"238 219 CURVE SMOOTH",
"238 233 OFFCURVE",
"240 249 OFFCURVE",
"244 268 CURVE SMOOTH",
"324 644 LINE",
"136 644 LINE",
"53 254 LINE SMOOTH",
"49 235 OFFCURVE",
"47 217 OFFCURVE",
"47 200 CURVE SMOOTH",
"47 80 OFFCURVE",
"138 -10 OFFCURVE",
"302 -10 CURVE SMOOTH"
);
},
{
closed = 1;
nodes = (
"621 724 LINE",
"645 836 LINE",
"318 836 LINE",
"294 724 LINE"
);
}
);
width = 689;
}
);
leftKerningGroup = U;
note = Umacron;
rightKerningGroup = U;
unicode = 016A;
},
{
glyphname = Uogonek;
lastChange = "2015-10-24 06:29:09 +0000";
layers = (
{
layerId = "D9861EBB-D268-4716-B046-FAB51EB1D86F";
name = "Bold Italic";
paths = (
{
closed = 1;
nodes = (
"314 -220 OFFCURVE",
"355 -212 OFFCURVE",
"377 -204 CURVE",
"395 -118 LINE",
"382 -125 OFFCURVE",
"360 -129 OFFCURVE",
"343 -129 CURVE SMOOTH",
"321 -129 OFFCURVE",
"308 -119 OFFCURVE",
"308 -101 CURVE SMOOTH",
"308 -97 OFFCURVE",
"309 -93 OFFCURVE",
"310 -89 CURVE",
"316 -57 OFFCURVE",
"341 -31 OFFCURVE",
"376 -6 CURVE",
"537 11 OFFCURVE",
"628 90 OFFCURVE",
"661 248 CURVE SMOOTH",
"745 644 LINE",
"557 644 LINE",
"477 268 LINE SMOOTH",
"459 183 OFFCURVE",
"421 150 OFFCURVE",
"336 150 CURVE SMOOTH",
"267 150 OFFCURVE",
"238 169 OFFCURVE",
"238 219 CURVE SMOOTH",
"238 233 OFFCURVE",
"240 249 OFFCURVE",
"244 268 CURVE SMOOTH",
"324 644 LINE",
"136 644 LINE",
"53 254 LINE SMOOTH",
"49 235 OFFCURVE",
"47 217 OFFCURVE",
"47 199 CURVE SMOOTH",
"47 93 OFFCURVE",
"119 10 OFFCURVE",
"250 -6 CURVE",
"206 -34 OFFCURVE",
"171 -76 OFFCURVE",
"161 -123 CURVE SMOOTH",
"159 -131 OFFCURVE",
"159 -138 OFFCURVE",
"159 -144 CURVE SMOOTH",
"159 -196 OFFCURVE",
"206 -220 OFFCURVE",
"273 -220 CURVE SMOOTH"
);
}
);
width = 689;
}
);
leftKerningGroup = U;
note = Uogonek;
rightKerningGroup = U;
unicode = 0172;
},
{
glyphname = Uring;
lastChange = "2015-10-24 06:29:09 +0000";
layers = (
{
layerId = "D9861EBB-D268-4716-B046-FAB51EB1D86F";
name = "Bold Italic";
paths = (
{
closed = 1;
nodes = (
"509 -10 OFFCURVE",
"623 67 OFFCURVE",
"661 248 CURVE SMOOTH",
"745 644 LINE",
"557 644 LINE",
"477 268 LINE SMOOTH",
"459 183 OFFCURVE",
"421 150 OFFCURVE",
"336 150 CURVE SMOOTH",
"267 150 OFFCURVE",
"238 169 OFFCURVE",
"238 219 CURVE SMOOTH",
"238 233 OFFCURVE",
"240 249 OFFCURVE",
"244 268 CURVE SMOOTH",
"324 644 LINE",
"136 644 LINE",
"53 254 LINE SMOOTH",
"49 235 OFFCURVE",
"47 217 OFFCURVE",
"47 200 CURVE SMOOTH",
"47 80 OFFCURVE",
"138 -10 OFFCURVE",
"302 -10 CURVE SMOOTH"
);
},
{
closed = 1;
nodes = (
"541 688 OFFCURVE",
"600 745 OFFCURVE",
"616 819 CURVE SMOOTH",
"618 830 OFFCURVE",
"620 841 OFFCURVE",
"620 851 CURVE SMOOTH",
"620 909 OFFCURVE",
"581 951 OFFCURVE",
"505 951 CURVE SMOOTH",
"413 951 OFFCURVE",
"355 893 OFFCURVE",
"339 819 CURVE SMOOTH",
"337 808 OFFCURVE",
"335 798 OFFCURVE",
"335 788 CURVE SMOOTH",
"335 729 OFFCURVE",
"375 688 OFFCURVE",
"449 688 CURVE SMOOTH"
);
},
{
closed = 1;
nodes = (
"431 765 OFFCURVE",
"419 781 OFFCURVE",
"419 803 CURVE SMOOTH",
"419 838 OFFCURVE",
"445 873 OFFCURVE",
"488 873 CURVE SMOOTH",
"522 873 OFFCURVE",
"535 856 OFFCURVE",
"535 834 CURVE SMOOTH",
"535 797 OFFCURVE",
"508 765 OFFCURVE",
"465 765 CURVE SMOOTH"
);
}
);
width = 689;
}
);
leftKerningGroup = U;
note = Uring;
rightKerningGroup = U;
unicode = 016E;
},
{
glyphname = Utilde;
lastChange = "2015-10-24 06:29:09 +0000";
layers = (
{
layerId = "D9861EBB-D268-4716-B046-FAB51EB1D86F";
name = "Bold Italic";
paths = (
{
closed = 1;
nodes = (
"509 -10 OFFCURVE",
"623 67 OFFCURVE",
"661 248 CURVE SMOOTH",
"745 644 LINE",
"557 644 LINE",
"477 268 LINE SMOOTH",
"459 183 OFFCURVE",
"421 150 OFFCURVE",
"336 150 CURVE SMOOTH",
"267 150 OFFCURVE",
"238 169 OFFCURVE",
"238 219 CURVE SMOOTH",
"238 233 OFFCURVE",
"240 249 OFFCURVE",
"244 268 CURVE SMOOTH",
"324 644 LINE",
"136 644 LINE",
"53 254 LINE SMOOTH",
"49 235 OFFCURVE",
"47 217 OFFCURVE",
"47 200 CURVE SMOOTH",
"47 80 OFFCURVE",
"138 -10 OFFCURVE",
"302 -10 CURVE SMOOTH"
);
},
{
closed = 1;
nodes = (
"587 696 OFFCURVE",
"625 711 OFFCURVE",
"642 729 CURVE",
"667 848 LINE",
"647 825 OFFCURVE",
"611 808 OFFCURVE",
"569 808 CURVE SMOOTH",
"506 808 OFFCURVE",
"464 850 OFFCURVE",
"397 850 CURVE SMOOTH",
"358 850 OFFCURVE",
"318 835 OFFCURVE",
"295 817 CURVE",
"270 699 LINE",
"299 723 OFFCURVE",
"334 738 OFFCURVE",
"376 738 CURVE SMOOTH",
"431 738 OFFCURVE",
"482 696 OFFCURVE",
"548 696 CURVE SMOOTH"
);
}
);
width = 689;
}
);
leftKerningGroup = U;
note = Utilde;
rightKerningGroup = U;
unicode = 0168;
},
{
glyphname = V;
lastChange = "2015-10-24 06:28:52 +0000";
layers = (
{
layerId = "D9861EBB-D268-4716-B046-FAB51EB1D86F";
name = "Bold Italic";
paths = (
{
closed = 1;
nodes = (
"431 0 LINE",
"814 644 LINE",
"611 644 LINE",
"371 218 LINE",
"311 644 LINE",
"121 644 LINE",
"232 0 LINE"
);
}
);
width = 743;
}
);
note = V;
unicode = 0056;
},
{
glyphname = W;
lastChange = "2015-10-24 06:28:52 +0000";
layers = (
{
layerId = "D9861EBB-D268-4716-B046-FAB51EB1D86F";
name = "Bold Italic";
paths = (
{
closed = 1;
nodes = (
"310 0 LINE",
"485 333 LINE",
"512 0 LINE",
"677 0 LINE",
"962 644 LINE",
"778 644 LINE",
"629 302 LINE",
"603 644 LINE",
"449 644 LINE",
"429 547 LINE",
"306 303 LINE",
"305 644 LINE",
"121 644 LINE",
"135 0 LINE"
);
}
);
width = 891;
}
);
leftKerningGroup = W;
note = W;
rightKerningGroup = W;
unicode = 0057;
},
{
glyphname = Wacute;
lastChange = "2015-10-24 06:28:56 +0000";
layers = (
{
layerId = "D9861EBB-D268-4716-B046-FAB51EB1D86F";
name = "Bold Italic";
paths = (
{
closed = 1;
nodes = (
"310 0 LINE",
"485 333 LINE",
"512 0 LINE",
"677 0 LINE",
"962 644 LINE",
"778 644 LINE",
"629 302 LINE",
"603 644 LINE",
"449 644 LINE",
"429 547 LINE",
"306 303 LINE",
"305 644 LINE",
"121 644 LINE",
"135 0 LINE"
);
},
{
closed = 1;
nodes = (
"600 688 LINE",
"740 894 LINE",
"594 894 LINE",
"462 688 LINE"
);
}
);
width = 891;
}
);
leftKerningGroup = W;
note = Wacute;
rightKerningGroup = W;
unicode = 1E82;
},
{
glyphname = Wcircumflex;
lastChange = "2015-10-24 06:28:56 +0000";
layers = (
{
layerId = "D9861EBB-D268-4716-B046-FAB51EB1D86F";
name = "Bold Italic";
paths = (
{
closed = 1;
nodes = (
"310 0 LINE",
"485 333 LINE",
"512 0 LINE",
"677 0 LINE",
"962 644 LINE",
"778 644 LINE",
"629 302 LINE",
"603 644 LINE",
"449 644 LINE",
"429 547 LINE",
"306 303 LINE",
"305 644 LINE",
"121 644 LINE",
"135 0 LINE"
);
},
{
closed = 1;
nodes = (
"489 688 LINE",
"582 796 LINE",
"636 688 LINE",
"767 688 LINE",
"654 888 LINE",
"540 888 LINE",
"344 688 LINE"
);
}
);
width = 891;
}
);
leftKerningGroup = W;
note = Wcircumflex;
rightKerningGroup = W;
unicode = 0174;
},
{
glyphname = Wdieresis;
lastChange = "2015-10-24 06:28:56 +0000";
layers = (
{
layerId = "D9861EBB-D268-4716-B046-FAB51EB1D86F";
name = "Bold Italic";
paths = (
{
closed = 1;
nodes = (
"310 0 LINE",
"485 333 LINE",
"512 0 LINE",
"677 0 LINE",
"962 644 LINE",
"778 644 LINE",
"629 302 LINE",
"603 644 LINE",
"449 644 LINE",
"429 547 LINE",
"306 303 LINE",
"305 644 LINE",
"121 644 LINE",
"135 0 LINE"
);
},
{
closed = 1;
nodes = (
"519 715 LINE",
"545 835 LINE",
"415 835 LINE",
"389 715 LINE"
);
},
{
closed = 1;
nodes = (
"735 715 LINE",
"761 835 LINE",
"630 835 LINE",
"604 715 LINE"
);
}
);
width = 891;
}
);
leftKerningGroup = W;
note = Wdieresis;
rightKerningGroup = W;
unicode = 1E84;
},
{
glyphname = Wgrave;
lastChange = "2015-10-24 06:28:57 +0000";
layers = (
{
layerId = "D9861EBB-D268-4716-B046-FAB51EB1D86F";
name = "Bold Italic";
paths = (
{
closed = 1;
nodes = (
"310 0 LINE",
"485 333 LINE",
"512 0 LINE",
"677 0 LINE",
"962 644 LINE",
"778 644 LINE",
"629 302 LINE",
"603 644 LINE",
"449 644 LINE",
"429 547 LINE",
"306 303 LINE",
"305 644 LINE",
"121 644 LINE",
"135 0 LINE"
);
},
{
closed = 1;
nodes = (
"607 688 LINE",
"563 894 LINE",
"416 894 LINE",
"469 688 LINE"
);
}
);
width = 891;
}
);
leftKerningGroup = W;
note = Wgrave;
rightKerningGroup = W;
unicode = 1E80;
},
{
glyphname = X;
lastChange = "2015-10-24 06:28:52 +0000";
layers = (
{
layerId = "D9861EBB-D268-4716-B046-FAB51EB1D86F";
name = "Bold Italic";
paths = (
{
closed = 1;
nodes = (
"212 0 LINE",
"373 175 LINE",
"461 0 LINE",
"688 0 LINE",
"519 326 LINE",
"815 644 LINE",
"591 644 LINE",
"436 475 LINE",
"354 644 LINE",
"130 644 LINE",
"292 326 LINE",
"-15 0 LINE"
);
}
);
width = 753;
}
);
note = X;
unicode = 0058;
},
{
glyphname = Y;
lastChange = "2015-10-24 06:28:52 +0000";
layers = (
{
layerId = "D9861EBB-D268-4716-B046-FAB51EB1D86F";
name = "Bold Italic";
paths = (
{
closed = 1;
nodes = (
"405 0 LINE",
"455 236 LINE",
"773 644 LINE",
"571 644 LINE",
"390 401 LINE",
"311 644 LINE",
"121 644 LINE",
"267 236 LINE",
"217 0 LINE"
);
}
);
width = 702;
}
);
leftKerningGroup = Y;
note = Y;
rightKerningGroup = Y;
unicode = 0059;
},
{
glyphname = Yacute;
lastChange = "2015-10-24 06:28:55 +0000";
layers = (
{
layerId = "D9861EBB-D268-4716-B046-FAB51EB1D86F";
name = "Bold Italic";
paths = (
{
closed = 1;
nodes = (
"405 0 LINE",
"455 236 LINE",
"773 644 LINE",
"571 644 LINE",
"390 401 LINE",
"311 644 LINE",
"121 644 LINE",
"267 236 LINE",
"217 0 LINE"
);
},
{
closed = 1;
nodes = (
"522 688 LINE",
"662 894 LINE",
"516 894 LINE",
"384 688 LINE"
);
}
);
width = 702;
}
);
leftKerningGroup = Y;
note = Yacute;
rightKerningGroup = Y;
unicode = 00DD;
},
{
glyphname = Ycircumflex;
lastChange = "2015-10-24 06:28:56 +0000";
layers = (
{
layerId = "D9861EBB-D268-4716-B046-FAB51EB1D86F";
name = "Bold Italic";
paths = (
{
closed = 1;
nodes = (
"405 0 LINE",
"455 236 LINE",
"773 644 LINE",
"571 644 LINE",
"390 401 LINE",
"311 644 LINE",
"121 644 LINE",
"267 236 LINE",
"217 0 LINE"
);
},
{
closed = 1;
nodes = (
"391 688 LINE",
"484 796 LINE",
"538 688 LINE",
"669 688 LINE",
"556 888 LINE",
"442 888 LINE",
"246 688 LINE"
);
}
);
width = 702;
}
);
leftKerningGroup = Y;
note = Ycircumflex;
rightKerningGroup = Y;
unicode = 0176;
},
{
glyphname = Ydieresis;
lastChange = "2015-10-24 06:28:56 +0000";
layers = (
{
layerId = "D9861EBB-D268-4716-B046-FAB51EB1D86F";
name = "Bold Italic";
paths = (
{
closed = 1;
nodes = (
"405 0 LINE",
"455 236 LINE",
"773 644 LINE",
"571 644 LINE",
"390 401 LINE",
"311 644 LINE",
"121 644 LINE",
"267 236 LINE",
"217 0 LINE"
);
},
{
closed = 1;
nodes = (
"421 715 LINE",
"447 835 LINE",
"317 835 LINE",
"291 715 LINE"
);
},
{
closed = 1;
nodes = (
"637 715 LINE",
"663 835 LINE",
"532 835 LINE",
"506 715 LINE"
);
}
);
width = 702;
}
);
leftKerningGroup = Y;
note = Ydieresis;
rightKerningGroup = Y;
unicode = 0178;
},
{
glyphname = Ydotaccent;
lastChange = "2015-10-24 06:28:57 +0000";
layers = (
{
layerId = "D9861EBB-D268-4716-B046-FAB51EB1D86F";
name = "Bold Italic";
paths = (
{
closed = 1;
nodes = (
"405 0 LINE",
"455 236 LINE",
"773 644 LINE",
"571 644 LINE",
"390 401 LINE",
"311 644 LINE",
"121 644 LINE",
"267 236 LINE",
"217 0 LINE"
);
},
{
closed = 1;
nodes = (
"527 715 LINE",
"553 835 LINE",
"423 835 LINE",
"397 715 LINE"
);
}
);
width = 702;
}
);
leftKerningGroup = Y;
note = Ydotaccent;
rightKerningGroup = Y;
unicode = 1E8E;
},
{
glyphname = Ydotbelow;
lastChange = "2015-10-24 06:28:55 +0000";
layers = (
{
layerId = "D9861EBB-D268-4716-B046-FAB51EB1D86F";
name = "Bold Italic";
paths = (
{
closed = 1;
nodes = (
"405 0 LINE",
"455 236 LINE",
"773 644 LINE",
"571 644 LINE",
"390 401 LINE",
"311 644 LINE",
"121 644 LINE",
"267 236 LINE",
"217 0 LINE"
);
},
{
closed = 1;
nodes = (
"339 -175 LINE",
"364 -55 LINE",
"234 -55 LINE",
"209 -175 LINE"
);
}
);
width = 702;
}
);
leftKerningGroup = Y;
note = Ydotbelow;
rightKerningGroup = Y;
unicode = 1EF4;
},
{
glyphname = Ygrave;
lastChange = "2015-10-24 06:28:56 +0000";
layers = (
{
layerId = "D9861EBB-D268-4716-B046-FAB51EB1D86F";
name = "Bold Italic";
paths = (
{
closed = 1;
nodes = (
"405 0 LINE",
"455 236 LINE",
"773 644 LINE",
"571 644 LINE",
"390 401 LINE",
"311 644 LINE",
"121 644 LINE",
"267 236 LINE",
"217 0 LINE"
);
},
{
closed = 1;
nodes = (
"519 688 LINE",
"475 894 LINE",
"328 894 LINE",
"381 688 LINE"
);
}
);
width = 702;
}
);
leftKerningGroup = Y;
note = Ygrave;
rightKerningGroup = Y;
unicode = 1EF2;
},
{
glyphname = Yhookabove;
lastChange = "2015-10-24 06:29:10 +0000";
layers = (
{
layerId = "D9861EBB-D268-4716-B046-FAB51EB1D86F";
name = "Bold Italic";
paths = (
{
closed = 1;
nodes = (
"405 0 LINE",
"455 236 LINE",
"773 644 LINE",
"571 644 LINE",
"390 401 LINE",
"311 644 LINE",
"121 644 LINE",
"267 236 LINE",
"217 0 LINE"
);
},
{
closed = 1;
nodes = (
"522 688 LINE",
"531 729 LINE",
"590 745 OFFCURVE",
"624 771 OFFCURVE",
"636 829 CURVE SMOOTH",
"638 836 OFFCURVE",
"638 843 OFFCURVE",
"638 850 CURVE SMOOTH",
"638 898 OFFCURVE",
"597 930 OFFCURVE",
"517 930 CURVE SMOOTH",
"469 930 OFFCURVE",
"429 925 OFFCURVE",
"399 916 CURVE",
"382 838 LINE",
"399 842 OFFCURVE",
"424 846 OFFCURVE",
"443 846 CURVE SMOOTH",
"482 846 OFFCURVE",
"501 836 OFFCURVE",
"496 813 CURVE SMOOTH",
"491 788 OFFCURVE",
"468 773 OFFCURVE",
"399 769 CURVE",
"381 688 LINE"
);
}
);
width = 702;
}
);
leftKerningGroup = Y;
note = Yhookabove;
rightKerningGroup = Y;
unicode = 1EF6;
},
{
glyphname = Ytilde;
lastChange = "2015-10-24 06:28:57 +0000";
layers = (
{
layerId = "D9861EBB-D268-4716-B046-FAB51EB1D86F";
name = "Bold Italic";
paths = (
{
closed = 1;
nodes = (
"405 0 LINE",
"455 236 LINE",
"773 644 LINE",
"571 644 LINE",
"390 401 LINE",
"311 644 LINE",
"121 644 LINE",
"267 236 LINE",
"217 0 LINE"
);
},
{
closed = 1;
nodes = (
"594 696 OFFCURVE",
"632 711 OFFCURVE",
"649 729 CURVE",
"674 848 LINE",
"654 825 OFFCURVE",
"618 808 OFFCURVE",
"576 808 CURVE SMOOTH",
"513 808 OFFCURVE",
"471 850 OFFCURVE",
"404 850 CURVE SMOOTH",
"365 850 OFFCURVE",
"325 835 OFFCURVE",
"302 817 CURVE",
"277 699 LINE",
"306 723 OFFCURVE",
"341 738 OFFCURVE",
"383 738 CURVE SMOOTH",
"438 738 OFFCURVE",
"489 696 OFFCURVE",
"555 696 CURVE SMOOTH"
);
}
);
width = 702;
}
);
leftKerningGroup = Y;
note = Ytilde;
rightKerningGroup = Y;
unicode = 1EF8;
},
{
glyphname = Z;
lastChange = "2015-10-24 06:28:52 +0000";
layers = (
{
layerId = "D9861EBB-D268-4716-B046-FAB51EB1D86F";
name = "Bold Italic";
paths = (
{
closed = 1;
nodes = (
"518 0 LINE",
"548 144 LINE",
"265 144 LINE",
"628 546 LINE",
"648 644 LINE",
"136 644 LINE",
"106 500 LINE",
"371 500 LINE",
"4 94 LINE",
"-15 0 LINE"
);
}
);
width = 578;
}
);
note = Z;
unicode = 005A;
},
{
glyphname = Zacute;
lastChange = "2015-10-24 06:28:57 +0000";
layers = (
{
layerId = "D9861EBB-D268-4716-B046-FAB51EB1D86F";
name = "Bold Italic";
paths = (
{
closed = 1;
nodes = (
"518 0 LINE",
"548 144 LINE",
"265 144 LINE",
"628 546 LINE",
"648 644 LINE",
"136 644 LINE",
"106 500 LINE",
"371 500 LINE",
"4 94 LINE",
"-15 0 LINE"
);
},
{
closed = 1;
nodes = (
"453 688 LINE",
"593 894 LINE",
"447 894 LINE",
"315 688 LINE"
);
}
);
width = 578;
}
);
note = Zacute;
unicode = 0179;
},
{
glyphname = Zcaron;
lastChange = "2015-10-24 06:28:55 +0000";
layers = (
{
layerId = "D9861EBB-D268-4716-B046-FAB51EB1D86F";
name = "Bold Italic";
paths = (
{
closed = 1;
nodes = (
"518 0 LINE",
"548 144 LINE",
"265 144 LINE",
"628 546 LINE",
"648 644 LINE",
"136 644 LINE",
"106 500 LINE",
"371 500 LINE",
"4 94 LINE",
"-15 0 LINE"
);
},
{
closed = 1;
nodes = (
"466 688 LINE",
"663 888 LINE",
"522 888 LINE",
"423 779 LINE",
"374 888 LINE",
"240 888 LINE",
"352 688 LINE"
);
}
);
width = 583;
}
);
note = Zcaron;
unicode = 017D;
},
{
glyphname = Zdotaccent;
lastChange = "2015-10-24 06:28:57 +0000";
layers = (
{
layerId = "D9861EBB-D268-4716-B046-FAB51EB1D86F";
name = "Bold Italic";
paths = (
{
closed = 1;
nodes = (
"518 0 LINE",
"548 144 LINE",
"265 144 LINE",
"628 546 LINE",
"648 644 LINE",
"136 644 LINE",
"106 500 LINE",
"371 500 LINE",
"4 94 LINE",
"-15 0 LINE"
);
},
{
closed = 1;
nodes = (
"470 715 LINE",
"496 835 LINE",
"366 835 LINE",
"340 715 LINE"
);
}
);
width = 583;
}
);
note = Zdotaccent;
unicode = 017B;
},
{
glyphname = Zdotbelow;
lastChange = "2015-10-24 06:28:56 +0000";
layers = (
{
layerId = "D9861EBB-D268-4716-B046-FAB51EB1D86F";
name = "Bold Italic";
paths = (
{
closed = 1;
nodes = (
"518 0 LINE",
"548 144 LINE",
"265 144 LINE",
"628 546 LINE",
"648 644 LINE",
"136 644 LINE",
"106 500 LINE",
"371 500 LINE",
"4 94 LINE",
"-15 0 LINE"
);
},
{
closed = 1;
nodes = (
"275 -176 LINE",
"300 -56 LINE",
"170 -56 LINE",
"145 -176 LINE"
);
}
);
width = 578;
}
);
note = Zdotbelow;
unicode = 1E92;
},
{
glyphname = a;
lastChange = "2015-10-24 06:33:30 +0000";
layers = (
{
layerId = "D9861EBB-D268-4716-B046-FAB51EB1D86F";
name = "Bold Italic";
paths = (
{
closed = 1;
nodes = (
"265 -10 OFFCURVE",
"313 7 OFFCURVE",
"357 37 CURVE",
"359 0 LINE",
"522 0 LINE",
"622 474 LINE",
"434 474 LINE",
"429 451 LINE",
"407 469 OFFCURVE",
"370 484 OFFCURVE",
"319 484 CURVE SMOOTH",
"183 484 OFFCURVE",
"66 382 OFFCURVE",
"31 220 CURVE SMOOTH",
"25 193 OFFCURVE",
"23 169 OFFCURVE",
"23 147 CURVE SMOOTH",
"23 37 OFFCURVE",
"92 -10 OFFCURVE",
"203 -10 CURVE SMOOTH"
);
},
{
closed = 1;
nodes = (
"237 126 OFFCURVE",
"217 139 OFFCURVE",
"217 176 CURVE SMOOTH",
"217 187 OFFCURVE",
"219 202 OFFCURVE",
"223 219 CURVE SMOOTH",
"241 303 OFFCURVE",
"279 348 OFFCURVE",
"338 348 CURVE SMOOTH",
"368 348 OFFCURVE",
"387 340 OFFCURVE",
"402 323 CURVE",
"366 155 LINE",
"345 136 OFFCURVE",
"315 126 OFFCURVE",
"286 126 CURVE SMOOTH"
);
}
);
width = 607;
}
);
leftKerningGroup = a;
note = a;
unicode = 0061;
},
{
glyphname = aacute;
lastChange = "2015-10-24 06:29:09 +0000";
layers = (
{
layerId = "D9861EBB-D268-4716-B046-FAB51EB1D86F";
name = "Bold Italic";
paths = (
{
closed = 1;
nodes = (
"265 -10 OFFCURVE",
"313 7 OFFCURVE",
"357 37 CURVE",
"359 0 LINE",
"522 0 LINE",
"622 474 LINE",
"434 474 LINE",
"429 451 LINE",
"407 469 OFFCURVE",
"370 484 OFFCURVE",
"319 484 CURVE SMOOTH",
"183 484 OFFCURVE",
"66 382 OFFCURVE",
"31 220 CURVE SMOOTH",
"25 193 OFFCURVE",
"23 169 OFFCURVE",
"23 147 CURVE SMOOTH",
"23 37 OFFCURVE",
"92 -10 OFFCURVE",
"203 -10 CURVE SMOOTH"
);
},
{
closed = 1;
nodes = (
"237 126 OFFCURVE",
"217 139 OFFCURVE",
"217 176 CURVE SMOOTH",
"217 187 OFFCURVE",
"219 202 OFFCURVE",
"223 219 CURVE SMOOTH",
"241 303 OFFCURVE",
"279 348 OFFCURVE",
"338 348 CURVE SMOOTH",
"368 348 OFFCURVE",
"387 340 OFFCURVE",
"402 323 CURVE",
"366 155 LINE",
"345 136 OFFCURVE",
"315 126 OFFCURVE",
"286 126 CURVE SMOOTH"
);
},
{
closed = 1;
nodes = (
"424 522 LINE",
"564 728 LINE",
"418 728 LINE",
"286 522 LINE"
);
}
);
width = 572;
}
);
leftKerningGroup = a;
note = aacute;
unicode = 00E1;
},
{
glyphname = abreve;
lastChange = "2015-10-24 06:29:09 +0000";
layers = (
{
layerId = "D9861EBB-D268-4716-B046-FAB51EB1D86F";
name = "Bold Italic";
paths = (
{
closed = 1;
nodes = (
"265 -10 OFFCURVE",
"313 7 OFFCURVE",
"357 37 CURVE",
"359 0 LINE",
"522 0 LINE",
"622 474 LINE",
"434 474 LINE",
"429 451 LINE",
"407 469 OFFCURVE",
"370 484 OFFCURVE",
"319 484 CURVE SMOOTH",
"183 484 OFFCURVE",
"66 382 OFFCURVE",
"31 220 CURVE SMOOTH",
"25 193 OFFCURVE",
"23 169 OFFCURVE",
"23 147 CURVE SMOOTH",
"23 37 OFFCURVE",
"92 -10 OFFCURVE",
"203 -10 CURVE SMOOTH"
);
},
{
closed = 1;
nodes = (
"237 126 OFFCURVE",
"217 139 OFFCURVE",
"217 176 CURVE SMOOTH",
"217 187 OFFCURVE",
"219 202 OFFCURVE",
"223 219 CURVE SMOOTH",
"241 303 OFFCURVE",
"279 348 OFFCURVE",
"338 348 CURVE SMOOTH",
"368 348 OFFCURVE",
"387 340 OFFCURVE",
"402 323 CURVE",
"366 155 LINE",
"345 136 OFFCURVE",
"315 126 OFFCURVE",
"286 126 CURVE SMOOTH"
);
},
{
closed = 1;
nodes = (
"489 523 OFFCURVE",
"579 589 OFFCURVE",
"605 710 CURVE",
"478 710 LINE",
"468 661 OFFCURVE",
"443 626 OFFCURVE",
"392 626 CURVE SMOOTH",
"353 626 OFFCURVE",
"339 646 OFFCURVE",
"339 678 CURVE SMOOTH",
"339 687 OFFCURVE",
"341 698 OFFCURVE",
"343 710 CURVE",
"227 710 LINE",
"223 692 OFFCURVE",
"221 674 OFFCURVE",
"221 658 CURVE SMOOTH",
"221 570 OFFCURVE",
"280 523 OFFCURVE",
"375 523 CURVE SMOOTH"
);
}
);
width = 568;
}
);
leftKerningGroup = a;
note = abreve;
unicode = 0103;
},
{
glyphname = abreveacute;
lastChange = "2015-10-24 06:29:09 +0000";
layers = (
{
layerId = "D9861EBB-D268-4716-B046-FAB51EB1D86F";
name = "Bold Italic";
paths = (
{
closed = 1;
nodes = (
"265 -10 OFFCURVE",
"313 7 OFFCURVE",
"357 37 CURVE",
"359 0 LINE",
"522 0 LINE",
"622 474 LINE",
"434 474 LINE",
"429 451 LINE",
"407 469 OFFCURVE",
"370 484 OFFCURVE",
"319 484 CURVE SMOOTH",
"183 484 OFFCURVE",
"66 382 OFFCURVE",
"31 220 CURVE SMOOTH",
"25 193 OFFCURVE",
"23 169 OFFCURVE",
"23 147 CURVE SMOOTH",
"23 37 OFFCURVE",
"92 -10 OFFCURVE",
"203 -10 CURVE SMOOTH"
);
},
{
closed = 1;
nodes = (
"237 126 OFFCURVE",
"217 139 OFFCURVE",
"217 176 CURVE SMOOTH",
"217 187 OFFCURVE",
"219 202 OFFCURVE",
"223 219 CURVE SMOOTH",
"241 303 OFFCURVE",
"279 348 OFFCURVE",
"338 348 CURVE SMOOTH",
"368 348 OFFCURVE",
"387 340 OFFCURVE",
"402 323 CURVE",
"366 155 LINE",
"345 136 OFFCURVE",
"315 126 OFFCURVE",
"286 126 CURVE SMOOTH"
);
},
{
closed = 1;
nodes = (
"473 522 OFFCURVE",
"546 574 OFFCURVE",
"572 694 CURVE",
"467 694 LINE",
"457 646 OFFCURVE",
"424 614 OFFCURVE",
"374 614 CURVE SMOOTH",
"327 614 OFFCURVE",
"311 634 OFFCURVE",
"311 665 CURVE SMOOTH",
"311 674 OFFCURVE",
"312 684 OFFCURVE",
"314 694 CURVE",
"209 694 LINE",
"205 678 OFFCURVE",
"204 663 OFFCURVE",
"204 649 CURVE SMOOTH",
"204 561 OFFCURVE",
"271 522 OFFCURVE",
"354 522 CURVE SMOOTH"
);
},
{
closed = 1;
nodes = (
"443 690 LINE",
"559 847 LINE",
"434 847 LINE",
"335 690 LINE"
);
}
);
width = 568;
}
);
leftKerningGroup = a;
note = abreveacute;
unicode = 1EAF;
},
{
glyphname = abrevedotbelow;
lastChange = "2015-10-24 06:29:09 +0000";
layers = (
{
layerId = "D9861EBB-D268-4716-B046-FAB51EB1D86F";
name = "Bold Italic";
paths = (
{
closed = 1;
nodes = (
"265 -10 OFFCURVE",
"313 7 OFFCURVE",
"357 37 CURVE",
"359 0 LINE",
"522 0 LINE",
"622 474 LINE",
"434 474 LINE",
"429 451 LINE",
"407 469 OFFCURVE",
"370 484 OFFCURVE",
"319 484 CURVE SMOOTH",
"183 484 OFFCURVE",
"66 382 OFFCURVE",
"31 220 CURVE SMOOTH",
"25 193 OFFCURVE",
"23 169 OFFCURVE",
"23 147 CURVE SMOOTH",
"23 37 OFFCURVE",
"92 -10 OFFCURVE",
"203 -10 CURVE SMOOTH"
);
},
{
closed = 1;
nodes = (
"293 -176 LINE",
"318 -56 LINE",
"188 -56 LINE",
"163 -176 LINE"
);
},
{
closed = 1;
nodes = (
"237 126 OFFCURVE",
"217 139 OFFCURVE",
"217 176 CURVE SMOOTH",
"217 187 OFFCURVE",
"219 202 OFFCURVE",
"223 219 CURVE SMOOTH",
"241 303 OFFCURVE",
"279 348 OFFCURVE",
"338 348 CURVE SMOOTH",
"368 348 OFFCURVE",
"387 340 OFFCURVE",
"402 323 CURVE",
"366 155 LINE",
"345 136 OFFCURVE",
"315 126 OFFCURVE",
"286 126 CURVE SMOOTH"
);
},
{
closed = 1;
nodes = (
"483 522 OFFCURVE",
"573 588 OFFCURVE",
"599 709 CURVE",
"472 709 LINE",
"462 660 OFFCURVE",
"437 625 OFFCURVE",
"386 625 CURVE SMOOTH",
"347 625 OFFCURVE",
"333 645 OFFCURVE",
"333 677 CURVE SMOOTH",
"333 686 OFFCURVE",
"335 697 OFFCURVE",
"337 709 CURVE",
"221 709 LINE",
"217 691 OFFCURVE",
"215 673 OFFCURVE",
"215 657 CURVE SMOOTH",
"215 569 OFFCURVE",
"274 522 OFFCURVE",
"369 522 CURVE SMOOTH"
);
}
);
width = 568;
}
);
leftKerningGroup = a;
note = abrevedotbelow;
unicode = 1EB7;
},
{
glyphname = abrevegrave;
lastChange = "2015-10-24 06:29:08 +0000";
layers = (
{
layerId = "D9861EBB-D268-4716-B046-FAB51EB1D86F";
name = "Bold Italic";
paths = (
{
closed = 1;
nodes = (
"265 -10 OFFCURVE",
"313 7 OFFCURVE",
"357 37 CURVE",
"359 0 LINE",
"522 0 LINE",
"622 474 LINE",
"434 474 LINE",
"429 451 LINE",
"407 469 OFFCURVE",
"370 484 OFFCURVE",
"319 484 CURVE SMOOTH",
"183 484 OFFCURVE",
"66 382 OFFCURVE",
"31 220 CURVE SMOOTH",
"25 193 OFFCURVE",
"23 169 OFFCURVE",
"23 147 CURVE SMOOTH",
"23 37 OFFCURVE",
"92 -10 OFFCURVE",
"203 -10 CURVE SMOOTH"
);
},
{
closed = 1;
nodes = (
"237 126 OFFCURVE",
"217 139 OFFCURVE",
"217 176 CURVE SMOOTH",
"217 187 OFFCURVE",
"219 202 OFFCURVE",
"223 219 CURVE SMOOTH",
"241 303 OFFCURVE",
"279 348 OFFCURVE",
"338 348 CURVE SMOOTH",
"368 348 OFFCURVE",
"387 340 OFFCURVE",
"402 323 CURVE",
"366 155 LINE",
"345 136 OFFCURVE",
"315 126 OFFCURVE",
"286 126 CURVE SMOOTH"
);
},
{
closed = 1;
nodes = (
"482 522 OFFCURVE",
"555 574 OFFCURVE",
"581 694 CURVE",
"476 694 LINE",
"466 646 OFFCURVE",
"433 614 OFFCURVE",
"383 614 CURVE SMOOTH",
"336 614 OFFCURVE",
"320 634 OFFCURVE",
"320 665 CURVE SMOOTH",
"320 674 OFFCURVE",
"321 684 OFFCURVE",
"323 694 CURVE",
"218 694 LINE",
"214 678 OFFCURVE",
"213 663 OFFCURVE",
"213 649 CURVE SMOOTH",
"213 561 OFFCURVE",
"280 522 OFFCURVE",
"363 522 CURVE SMOOTH"
);
},
{
closed = 1;
nodes = (
"453 690 LINE",
"420 847 LINE",
"295 847 LINE",
"345 690 LINE"
);
}
);
width = 568;
}
);
leftKerningGroup = a;
note = abrevegrave;
unicode = 1EB1;
},
{
glyphname = abrevehookabove;
lastChange = "2015-10-24 06:29:09 +0000";
layers = (
{
layerId = "D9861EBB-D268-4716-B046-FAB51EB1D86F";
name = "Bold Italic";
paths = (
{
closed = 1;
nodes = (
"265 -10 OFFCURVE",
"313 7 OFFCURVE",
"357 37 CURVE",
"359 0 LINE",
"522 0 LINE",
"622 474 LINE",
"434 474 LINE",
"429 451 LINE",
"407 469 OFFCURVE",
"370 484 OFFCURVE",
"319 484 CURVE SMOOTH",
"183 484 OFFCURVE",
"66 382 OFFCURVE",
"31 220 CURVE SMOOTH",
"25 193 OFFCURVE",
"23 169 OFFCURVE",
"23 147 CURVE SMOOTH",
"23 37 OFFCURVE",
"92 -10 OFFCURVE",
"203 -10 CURVE SMOOTH"
);
},
{
closed = 1;
nodes = (
"237 126 OFFCURVE",
"217 139 OFFCURVE",
"217 176 CURVE SMOOTH",
"217 187 OFFCURVE",
"219 202 OFFCURVE",
"223 219 CURVE SMOOTH",
"241 303 OFFCURVE",
"279 348 OFFCURVE",
"338 348 CURVE SMOOTH",
"368 348 OFFCURVE",
"387 340 OFFCURVE",
"402 323 CURVE",
"366 155 LINE",
"345 136 OFFCURVE",
"315 126 OFFCURVE",
"286 126 CURVE SMOOTH"
);
},
{
closed = 1;
nodes = (
"481 522 OFFCURVE",
"554 574 OFFCURVE",
"580 694 CURVE",
"475 694 LINE",
"465 646 OFFCURVE",
"432 614 OFFCURVE",
"382 614 CURVE SMOOTH",
"335 614 OFFCURVE",
"319 634 OFFCURVE",
"319 665 CURVE SMOOTH",
"319 674 OFFCURVE",
"320 684 OFFCURVE",
"322 694 CURVE",
"217 694 LINE",
"213 678 OFFCURVE",
"212 663 OFFCURVE",
"212 649 CURVE SMOOTH",
"212 561 OFFCURVE",
"279 522 OFFCURVE",
"362 522 CURVE SMOOTH"
);
},
{
closed = 1;
nodes = (
"458 695 LINE",
"464 725 LINE",
"520 738 OFFCURVE",
"547 762 OFFCURVE",
"557 807 CURVE SMOOTH",
"558 813 OFFCURVE",
"559 818 OFFCURVE",
"559 823 CURVE SMOOTH",
"559 864 OFFCURVE",
"524 893 OFFCURVE",
"458 893 CURVE SMOOTH",
"418 893 OFFCURVE",
"379 888 OFFCURVE",
"353 880 CURVE",
"339 813 LINE",
"353 818 OFFCURVE",
"373 822 OFFCURVE",
"392 822 CURVE SMOOTH",
"423 822 OFFCURVE",
"438 816 OFFCURVE",
"433 794 CURVE",
"429 773 OFFCURVE",
"407 759 OFFCURVE",
"350 757 CURVE",
"337 695 LINE"
);
}
);
width = 568;
}
);
leftKerningGroup = a;
note = abrevehookabove;
unicode = 1EB3;
},
{
glyphname = abrevetilde;
lastChange = "2015-10-24 06:29:08 +0000";
layers = (
{
layerId = "D9861EBB-D268-4716-B046-FAB51EB1D86F";
name = "Bold Italic";
paths = (
{
closed = 1;
nodes = (
"265 -10 OFFCURVE",
"313 7 OFFCURVE",
"357 37 CURVE",
"359 0 LINE",
"522 0 LINE",
"622 474 LINE",
"434 474 LINE",
"429 451 LINE",
"407 469 OFFCURVE",
"370 484 OFFCURVE",
"319 484 CURVE SMOOTH",
"183 484 OFFCURVE",
"66 382 OFFCURVE",
"31 220 CURVE SMOOTH",
"25 193 OFFCURVE",
"23 169 OFFCURVE",
"23 147 CURVE SMOOTH",
"23 37 OFFCURVE",
"92 -10 OFFCURVE",
"203 -10 CURVE SMOOTH"
);
},
{
closed = 1;
nodes = (
"237 126 OFFCURVE",
"217 139 OFFCURVE",
"217 176 CURVE SMOOTH",
"217 187 OFFCURVE",
"219 202 OFFCURVE",
"223 219 CURVE SMOOTH",
"241 303 OFFCURVE",
"279 348 OFFCURVE",
"338 348 CURVE SMOOTH",
"368 348 OFFCURVE",
"387 340 OFFCURVE",
"402 323 CURVE",
"366 155 LINE",
"345 136 OFFCURVE",
"315 126 OFFCURVE",
"286 126 CURVE SMOOTH"
);
},
{
closed = 1;
nodes = (
"484 522 OFFCURVE",
"557 574 OFFCURVE",
"583 694 CURVE",
"478 694 LINE",
"468 646 OFFCURVE",
"435 614 OFFCURVE",
"385 614 CURVE SMOOTH",
"338 614 OFFCURVE",
"322 634 OFFCURVE",
"322 665 CURVE SMOOTH",
"322 674 OFFCURVE",
"323 684 OFFCURVE",
"325 694 CURVE",
"220 694 LINE",
"216 678 OFFCURVE",
"215 663 OFFCURVE",
"215 649 CURVE SMOOTH",
"215 561 OFFCURVE",
"282 522 OFFCURVE",
"365 522 CURVE SMOOTH"
);
},
{
closed = 1;
nodes = (
"539 712 OFFCURVE",
"576 727 OFFCURVE",
"591 744 CURVE",
"613 847 LINE",
"592 824 OFFCURVE",
"558 808 OFFCURVE",
"517 808 CURVE SMOOTH",
"457 808 OFFCURVE",
"415 849 OFFCURVE",
"350 849 CURVE SMOOTH",
"312 849 OFFCURVE",
"273 835 OFFCURVE",
"251 817 CURVE",
"229 715 LINE",
"257 739 OFFCURVE",
"291 753 OFFCURVE",
"332 753 CURVE SMOOTH",
"386 753 OFFCURVE",
"437 712 OFFCURVE",
"500 712 CURVE SMOOTH"
);
}
);
width = 568;
}
);
leftKerningGroup = a;
note = abrevetilde;
unicode = 1EB5;
},
{
glyphname = acaron;
lastChange = "2015-10-24 06:29:10 +0000";
layers = (
{
layerId = "D9861EBB-D268-4716-B046-FAB51EB1D86F";
name = "Bold Italic";
paths = (
{
closed = 1;
nodes = (
"265 -10 OFFCURVE",
"313 7 OFFCURVE",
"357 37 CURVE",
"359 0 LINE",
"522 0 LINE",
"622 474 LINE",
"434 474 LINE",
"429 451 LINE",
"407 469 OFFCURVE",
"370 484 OFFCURVE",
"319 484 CURVE SMOOTH",
"183 484 OFFCURVE",
"66 382 OFFCURVE",
"31 220 CURVE SMOOTH",
"25 193 OFFCURVE",
"23 169 OFFCURVE",
"23 147 CURVE SMOOTH",
"23 37 OFFCURVE",
"92 -10 OFFCURVE",
"203 -10 CURVE SMOOTH"
);
},
{
closed = 1;
nodes = (
"237 126 OFFCURVE",
"217 139 OFFCURVE",
"217 176 CURVE SMOOTH",
"217 187 OFFCURVE",
"219 202 OFFCURVE",
"223 219 CURVE SMOOTH",
"241 303 OFFCURVE",
"279 348 OFFCURVE",
"338 348 CURVE SMOOTH",
"368 348 OFFCURVE",
"387 340 OFFCURVE",
"402 323 CURVE",
"366 155 LINE",
"345 136 OFFCURVE",
"315 126 OFFCURVE",
"286 126 CURVE SMOOTH"
);
},
{
closed = 1;
nodes = (
"416 522 LINE",
"613 722 LINE",
"472 722 LINE",
"373 613 LINE",
"324 722 LINE",
"190 722 LINE",
"302 522 LINE"
);
}
);
width = 568;
}
);
leftKerningGroup = a;
note = acaron;
unicode = 01CE;
},
{
glyphname = acircumflex;
lastChange = "2015-10-24 06:29:10 +0000";
layers = (
{
layerId = "D9861EBB-D268-4716-B046-FAB51EB1D86F";
name = "Bold Italic";
paths = (
{
closed = 1;
nodes = (
"265 -10 OFFCURVE",
"313 7 OFFCURVE",
"357 37 CURVE",
"359 0 LINE",
"522 0 LINE",
"622 474 LINE",
"434 474 LINE",
"429 451 LINE",
"407 469 OFFCURVE",
"370 484 OFFCURVE",
"319 484 CURVE SMOOTH",
"183 484 OFFCURVE",
"66 382 OFFCURVE",
"31 220 CURVE SMOOTH",
"25 193 OFFCURVE",
"23 169 OFFCURVE",
"23 147 CURVE SMOOTH",
"23 37 OFFCURVE",
"92 -10 OFFCURVE",
"203 -10 CURVE SMOOTH"
);
},
{
closed = 1;
nodes = (
"237 126 OFFCURVE",
"217 139 OFFCURVE",
"217 176 CURVE SMOOTH",
"217 187 OFFCURVE",
"219 202 OFFCURVE",
"223 219 CURVE SMOOTH",
"241 303 OFFCURVE",
"279 348 OFFCURVE",
"338 348 CURVE SMOOTH",
"368 348 OFFCURVE",
"387 340 OFFCURVE",
"402 323 CURVE",
"366 155 LINE",
"345 136 OFFCURVE",
"315 126 OFFCURVE",
"286 126 CURVE SMOOTH"
);
},
{
closed = 1;
nodes = (
"295 522 LINE",
"388 630 LINE",
"442 522 LINE",
"573 522 LINE",
"460 722 LINE",
"346 722 LINE",
"150 522 LINE"
);
}
);
width = 568;
}
);
leftKerningGroup = a;
note = acircumflex;
unicode = 00E2;
},
{
glyphname = acircumflexacute;
lastChange = "2015-10-24 06:29:09 +0000";
layers = (
{
layerId = "D9861EBB-D268-4716-B046-FAB51EB1D86F";
name = "Bold Italic";
paths = (
{
closed = 1;
nodes = (
"265 -10 OFFCURVE",
"313 7 OFFCURVE",
"357 37 CURVE",
"359 0 LINE",
"522 0 LINE",
"622 474 LINE",
"434 474 LINE",
"429 451 LINE",
"407 469 OFFCURVE",
"370 484 OFFCURVE",
"319 484 CURVE SMOOTH",
"183 484 OFFCURVE",
"66 382 OFFCURVE",
"31 220 CURVE SMOOTH",
"25 193 OFFCURVE",
"23 169 OFFCURVE",
"23 147 CURVE SMOOTH",
"23 37 OFFCURVE",
"92 -10 OFFCURVE",
"203 -10 CURVE SMOOTH"
);
},
{
closed = 1;
nodes = (
"237 126 OFFCURVE",
"217 139 OFFCURVE",
"217 176 CURVE SMOOTH",
"217 187 OFFCURVE",
"219 202 OFFCURVE",
"223 219 CURVE SMOOTH",
"241 303 OFFCURVE",
"279 348 OFFCURVE",
"338 348 CURVE SMOOTH",
"368 348 OFFCURVE",
"387 340 OFFCURVE",
"402 323 CURVE",
"366 155 LINE",
"345 136 OFFCURVE",
"315 126 OFFCURVE",
"286 126 CURVE SMOOTH"
);
},
{
closed = 1;
nodes = (
"300 522 LINE",
"379 601 LINE",
"424 522 LINE",
"570 522 LINE",
"461 674 LINE",
"323 674 LINE",
"148 522 LINE"
);
},
{
closed = 1;
nodes = (
"639 647 LINE",
"750 803 LINE",
"611 803 LINE",
"508 647 LINE"
);
}
);
width = 568;
}
);
leftKerningGroup = a;
note = acircumflexacute;
unicode = 1EA5;
},
{
glyphname = acircumflexdotbelow;
lastChange = "2015-10-24 06:29:08 +0000";
layers = (
{
layerId = "D9861EBB-D268-4716-B046-FAB51EB1D86F";
name = "Bold Italic";
paths = (
{
closed = 1;
nodes = (
"265 -10 OFFCURVE",
"313 7 OFFCURVE",
"357 37 CURVE",
"359 0 LINE",
"522 0 LINE",
"622 474 LINE",
"434 474 LINE",
"429 451 LINE",
"407 469 OFFCURVE",
"370 484 OFFCURVE",
"319 484 CURVE SMOOTH",
"183 484 OFFCURVE",
"66 382 OFFCURVE",
"31 220 CURVE SMOOTH",
"25 193 OFFCURVE",
"23 169 OFFCURVE",
"23 147 CURVE SMOOTH",
"23 37 OFFCURVE",
"92 -10 OFFCURVE",
"203 -10 CURVE SMOOTH"
);
},
{
closed = 1;
nodes = (
"284 -176 LINE",
"309 -56 LINE",
"179 -56 LINE",
"154 -176 LINE"
);
},
{
closed = 1;
nodes = (
"237 126 OFFCURVE",
"217 139 OFFCURVE",
"217 176 CURVE SMOOTH",
"217 187 OFFCURVE",
"219 202 OFFCURVE",
"223 219 CURVE SMOOTH",
"241 303 OFFCURVE",
"279 348 OFFCURVE",
"338 348 CURVE SMOOTH",
"368 348 OFFCURVE",
"387 340 OFFCURVE",
"402 323 CURVE",
"366 155 LINE",
"345 136 OFFCURVE",
"315 126 OFFCURVE",
"286 126 CURVE SMOOTH"
);
},
{
closed = 1;
nodes = (
"300 522 LINE",
"393 630 LINE",
"447 522 LINE",
"578 522 LINE",
"465 722 LINE",
"351 722 LINE",
"155 522 LINE"
);
}
);
width = 568;
}
);
leftKerningGroup = a;
note = acircumflexdotbelow;
unicode = 1EAD;
},
{
glyphname = acircumflexgrave;
lastChange = "2015-10-24 06:29:10 +0000";
layers = (
{
layerId = "D9861EBB-D268-4716-B046-FAB51EB1D86F";
name = "Bold Italic";
paths = (
{
closed = 1;
nodes = (
"265 -10 OFFCURVE",
"313 7 OFFCURVE",
"357 37 CURVE",
"359 0 LINE",
"522 0 LINE",
"622 474 LINE",
"434 474 LINE",
"429 451 LINE",
"407 469 OFFCURVE",
"370 484 OFFCURVE",
"319 484 CURVE SMOOTH",
"183 484 OFFCURVE",
"66 382 OFFCURVE",
"31 220 CURVE SMOOTH",
"25 193 OFFCURVE",
"23 169 OFFCURVE",
"23 147 CURVE SMOOTH",
"23 37 OFFCURVE",
"92 -10 OFFCURVE",
"203 -10 CURVE SMOOTH"
);
},
{
closed = 1;
nodes = (
"237 126 OFFCURVE",
"217 139 OFFCURVE",
"217 176 CURVE SMOOTH",
"217 187 OFFCURVE",
"219 202 OFFCURVE",
"223 219 CURVE SMOOTH",
"241 303 OFFCURVE",
"279 348 OFFCURVE",
"338 348 CURVE SMOOTH",
"368 348 OFFCURVE",
"387 340 OFFCURVE",
"402 323 CURVE",
"366 155 LINE",
"345 136 OFFCURVE",
"315 126 OFFCURVE",
"286 126 CURVE SMOOTH"
);
},
{
closed = 1;
nodes = (
"278 647 LINE",
"240 803 LINE",
"101 803 LINE",
"146 647 LINE"
);
},
{
closed = 1;
nodes = (
"314 522 LINE",
"393 601 LINE",
"438 522 LINE",
"583 522 LINE",
"475 674 LINE",
"337 674 LINE",
"162 522 LINE"
);
}
);
width = 568;
}
);
leftKerningGroup = a;
note = acircumflexgrave;
unicode = 1EA7;
},
